<mxfile host="app.diagrams.net" modified="2022-03-12T02:32:25.444Z" agent="5.0 (X11)" etag="G8ppQdp8cOwA4kJL4JE-" version="17.1.2" type="github">
  <diagram id="Na8pzyvMDLQnwzBLp7me" name="First Class Citizens">
    <mxGraphModel dx="370" dy="626" grid="1" gridSize="10" guides="1" tooltips="1" connect="1" arrows="1" fold="1" page="1" pageScale="1" pageWidth="1700" pageHeight="1100" math="0" shadow="0">
      <root>
        <mxCell id="0" />
        <mxCell id="1" parent="0" />
        <mxCell id="d-vFsKxNeQWg8kUWLc13-1" value="" style="shape=image;verticalLabelPosition=bottom;labelBackgroundColor=default;verticalAlign=top;aspect=fixed;imageAspect=0;image=data:image/png,iVBORw0KGgoAAAANSUhEUgAAApsAAAJNCAYAAAB+9b5WAAAABHNCSVQICAgIfAhkiAAAABl0RVh0U29mdHdhcmUAZ25vbWUtc2NyZWVuc2hvdO8Dvz4AAAAtdEVYdENyZWF0aW9uIFRpbWUAU2F0IDEyIE1hciAyMDIyIDA5OjE1OjAwIEFNICswNx6Q7mMAACAASURBVHic7N13fBxnnfjxz872qi3a1ap3yb3FdmwnTnBiJyEBAqQQCEnoCXDkuPvxO+64437ccRxXOO6ODiEQwhFSIDnSSG+kuctNliXZVrF6WbXt7ffHSmuvV7Kk0e7KTp736+VXopl5dp55dmb2O08bhclUHkcQBEEQBEEQskBa7AwIgiAIgiAI71wi2BQEQRAEQRCyRgSbgiAIgiAIQtaIYFMQBEEQBEHIGhFsCoIgCIIgCFkjgk0AFNTW7sBurwIUOUgnCIIgCILw7qBa7AycDxyOGlyu5eTllTEy0k4sFs1qOuGdz+VaTm3tDvz+Yfbtu3+xsyPMoq7uWpzOOtraXqOra99iZ+cdR1wPwvks2+en3PtLbe3VuFxL05YfPfo4w8MnMpnFrHvXB5sKhUR5+RYAOjremnPAKDed8O6gVKoBiESCi5wTQVh84noQzmfn6/mpVmsJhbxEIgEikQAmkxNJ0ix2tmTJWLCp19upqrqKUGiclpanZt3ebC7EZqtBq7WgUukJh334/YMMDBwlFBrPVLZm5XQuQa+34fd7GBhoynq6uTKZCli9+qMEAiPs3Xtfxj9fLo3GxIYNn5l1O693gIaG3+QgR9lRULCcmpodeDztNDY+Nu/0kpS4tMLhQKazJggXnHfq9bDQ+4Rwfjhfz8/GxsdT/l679uMYDPmLlJuFWZSazeLizVit5cRiEfx+D6HQOBqNFau1iry8StrbX8Hr7ct6PiRJorR0M5ConYzHY1lN904TDI4Sj0//AqpcPjCcj7zefrq69uLzDS52VgRh0YnrQTififMz+2QHm1ptHjZbFWq1EbXagEZjnFM6u70Wq7Ucr7ePzs43iEZDk2sUOJ3LcLlWUlx8Mc3Nj5/zczLB7V6NTmdmYqKfwcGWrKc7F4PBQUHBCrRaC1qtCZ3OkpHPzaaGhgeJRPyLnY3z0shIByMjHYudDUGYhQJJkojH4/N8aJ5fOnE9COczcX5m34KCTYejnng8RiwWnrGG62wWSxkA/f2Hzwg0AeIMDBzBbq+dDF4NhEI+udmblSSpKSnZCEBHxxvA3PIvN91sDAYHRUVricVixGJBYrF3Vm3p+vWfQqu1cPDgw4yPd6esU6v1bNx4JwBvvfX9lP6vq1ffgsHgYO/eX6JU6igpWU9eXikqlZ5gcJS+vsN0dzcw2/eg0RhxOKoxmQoxGByo1XoA9uy596x8fhqt1pz822Yr55JLvpyyTTjsZ9eunyb/liSJzZu/xHQzEoyOnuLw4d+dM28AWq2J4uL1mExuDAYHPt8w4+PddHbuJBJJb9rJVLnINdfydDhqqavbQTgcIhLxEwiM4PUO4fG0MTHRO+PnL+bxmc2FFBWtxWwuQJI0k9/DLiYmZm5tUSgkiovX43TWo9VaCAbHGB/voatrD37/SMbyJrc8pyiVWlyupdhsZRgMTjQaIwpFYlKS1tYX6Os7vOB0mbgeFAoJl2s5NlsFRqMdjcZCOOwnGBxldPQUnZ07U4LcXJ8vcu4TZ5rv9S7XQs+X+aitvRqHo4b29tfp6Tkw7TYqlY6NGz8HwO7d9xAO+2XnU6+3s27d7SnLgsEJ9uz5OZDo8uV0LsFqLUOp1HDw4IPAws7PTJSnnPuLXLm6L82F7GBzfPwUjY0PJYPMqT6bs1EoEl+wRmPE5xtIW594Uo5nvaNuUdFa1Go9Y2NdeDztWU83m6GhVt5883vJG+hUn813g3M9pyiVOiRJTXn5peTnL0GhgGBwDIUijsHgoLLyciRJzalTu6ZNr9WaqKi4DIejJvnjeHq/MRI3nNMZGBvrBhTodBbMZjehkJfR0a6UdLHY2eemiq6uvUiSCqVSjSSp0emsmEyuOR2/w1FDTc12VCodgcAIgcAoJpMLs7kAh6OWpqYn0m5ECy0XueZbnkqlmnA4iEqlQ6s1YTQ6cThqKSvbxPh4L8ePv4DXm950tVjH53avpLx8a7JTvsFgxm6vxmqtoKXlWQYHm9PS6HRm6uuvw2RyEw778fs96PU2DAYHDkc1jY2PMz7ek5H8yS1PAKu1jLq6904+GMQJh/0EAokylSRN8t688HQLux5MJhfV1dsxmVzEYjFCoVEgilZrQqs1YbEU09W1h2j0dLCZ6/NF3n0iQc71LtdCzpf5Gh3twOVaitO5ZMZg0+GoRaGQGBlpTwaacvMZi0Xo7t6PSqVFpdJit1ejUmmRJCVlZZspLFyHJCXuUaGQ94yU8s/PhZannPuLXLm8L82F7GBTbj/F0dF2DIZ8CgrW4vd7CAZHk+us1grUaj3Dwy1ZHd2tUiWefAHa29/Merq5eLf2+0yYOdqMxSIAGI0umpqeZGSkjXg8hiSpqK29ivz8OkpL19PVtSetDE0mNytWfBilUsPERB+Dg61MTPQSCIwSjYaIxcJp+25u/iOQ6PhvNrvxegdpbn76nLmPxUK0tb2esszpXEJd3TWzHrnRmE99/bWEQj6OHPlt8kdGozGwZMn7MJuLqK3dQUPDAynHt5BykUtOefb3N9Lf3wiAJGkwGKxYLMUUFq7CbHazYsWNNDQ8QDA4lpJuMY4PEgMEmpp+k/zBUCo11Ndfg81WRVXVNjyek0Sj4eT2CoXE0qUfRKu10NT0FENDLZPHqqS6+orJKVWuYt++X2Ukf3LLU5Ik6uuvQ6XS0tHxFj09B+ZUgyYn3UKuB43GwLJlH0KSlLS2vkh//5Hk96vVWli//lNA+gNqrs8XOfeJRP7kXe9yyT1f5BgcbKW6+grM5kK02ryU3/YpTmc9AAMDxxacz2BwjJMnXwUS1+GWLXcjSSpWrLgJk8nF+HgP4+O9+HxDBAKn87KQ83Oh5Tnf+4tcub4vzUXOJ3UfHm5hcLAJlUpDVdVVOJ3LkCQ1+flLKCrayOhoO319DVnNQ0nJRSiVGoaHTzI21jV7ggWmE+SLxxMPHe3tb+LxnEjegGOxCCdOvAIkLnqtNrWPq0qlY9my65EkFS0tz3LgwG/p6trN6GgnweAYkUjgPJiuSkF19XYUComWlmdSajMSP0b/SyQSxGDIx+lckpJSbrnIlYnyjMVCTEz00929nwMHHmJ8vAeVSkdp6Ya0bXN9fFOGhlpSaiai0RBNTU8RCk2gVutxu1elbF9UtAaDwUFHx5vJG3oin1GOH3+RYHACvd6G2VyU0Xwm9jH38jSZClGptITDfjo7d825qVZuOrlqa69GrdZPNs0fSgm4wuEzu1Wl1qYu1vkyP/Kv90yYz/ki7/PDDA62AqeDyjNpNIla6VgsytBQa0bzmfi+4ygUCgYGjrJ79z0cOvQIbW1/or+/MSu/13LyOd/7i1yLeV+ayaK8Qaivr4H29leJxcK4XKtYsuRDuFwr6Ox8g1OnsjtnpUZjwO1eA8Tp7Jx77aTcdO9kdXVXs3Tp+9P+lZVtntfnnPmDkt40m6jCmGoOOVM47Es2xWi1ppR1RUVrUKv19PQcoL//6LzykytGowOz2Y3PN8jo6Km09dFoiL6+IwDk5RWnrJNbLnJlujwjkQCdnW8DiRaNs+X6+M4lFosm+yQajalNbYWFa4E4vb1HpkkXY2TkJJD+/WXabOUZCIwSj8dQq/VUVV2enFdwNnLTyWE05mO1lhMIeGZtTlQoUqs2z6fzZSYLud4zbbbzRa6paQBdrvRg2emsQ6FQMDLSdtZ4jczkMxZLnAODg80pTfS5sJDyPNf9Ra7z5b50pkWZ+kiSlBgMLiRJzcRELwaDE0lSUVCwimg0NG1fzkwpKbkYpVLN4GAzExNz34/cdO9kNlvFtMuVSu28PufMJrF4fPoai7OD0CmRSAC1Wp+2fuqCHx3tnFdecslodALg93tm3GbqWtDrbSnL5ZaLXJkoT0lSYzK50GrNqFSa5Nx2Wq0ZhUJKeejI9fHNxucbBkCnsyaXKZUatFozodAERqMdhUKJJCmRJFXyn1ptAEChUGY8T/Mpz1BogubmZ6ip2U5h4Rry8+vp6WmYtVlcbjo5zOZCgDn2IczMfSKXFnK9Z8J8zhe5RkY6CIUm0OvtGI1OvN7Tv5UOx/RN6JnLZxSQsnKtZTaf6aa7v8i12PelmeQ82Ex04r4MrdZCe/sr+HwDqNWJWkOLpYyKim10d+9ORt6ZpNVaKChYSTweo6Pjrayne6fbufOnGZn66MxairPHGsxxkoM0UzUYodCE3GxlnV5vB849kXAwmJivVKXSpSyXWy5yLaQ8jUYnZWWbsNkqZ/yxVyo1KcFLro9vNlNNuGcOhjEYHECieXDVqlvS0sTjMeLxKJFIIBkMZYKc8oREjc/ISCclJRsoLFxNWdlmiorW0dn5Nr29B2acAUNuuvlSKhPn+FxnNjnT+Xa+TGch1/tCyD1f5IkzMNA0OQJ6STLY1OlsmM0FRKNhPJ7pf9sXms9YLIYkpV6j2ZCN8pzu/iLXYt2XZpPzYLOwcB0GgzMZaEKioDs738RuH6Cw8CKKijbg8w1mfGLwsrJNSJJEX9/hcz5dZiqdkG66i+nMEz794p1qHpvfE9jUZ2q1eUxM9M8vkzkyNePCuZr2pp5Afb6hs9bIKxe55JanzVbJkiXvIxgc49ixP+L19hIIjAMKVCotGzZ8FklSTnNe5Pb4ZjM1zc1UMHCmSCTA/v33T05bFiUej2ZtwJ/88pzKq5+2ttfo7t5LUdFa3O5VVFZeTmHhag4ffnTGgQ1y081HIJCYimXqx3J+zq/zZToLu97lWej5IsdUsJmfXz85ECee7MM5ONg07QCYzORz6prLXu11tsrzXPcXuXJ5X5qLnLYpKBQSeXnlxGLhaeekGh5uwevtR6GQMJkKMrpvg8GB07mUWCxKZ+fOrKcTzpb4MVAq09/rOtXXBtKDUbkXh8+X+OGa63QrZ5uqKVEqs/c8NvXgotfnM92cb4l1ieY0rzf1xyfXNw055SlJErW1V6FQKDh48GGGhlomb8wA8ckn68RxZOp7z5apvlQjI23JZYngKI5KpUOtNkwOkgpnLe8LKc+zhUJe2tpeZ8+eXzI21oVOZ6W29upZ8yA33VwkasESUxXZ7RXTbDFz9eVinS/zuU8s5HqXI5Pny3x4vYN4vYNotaZkn8CpYHOqT2o28jn1XWSrq0Q2y3O6+4tcub4vzVVOg01JUqNQSJN9CKa/OKPRxNNfpufZLCvbgkKhoLf34LyeHuSmWxyKyfKVmOlmtliCwUTzq8Fgn2Zt/IyLdKaaifkdz/BwYrRjYeFqWf2fzqxlyVZtycRED7FYBJ3OjMNRk7ZekpQUFKwgFoueo59Tbr5nOeVpNLpQq/WEQr5zdLeYrUZq8c9jjcZEQcEK/H5PctoTSEzaPTKS6MNaWblt2gepTMpMeaaKRPx0de0GwGx2zjkvctOdSyAwkizfurprcbtXotGYUCo1WCzFVFdvn8On5PZ8mc99IjPX+9xl43yZq4GBxPfodNZjMjnR6234fEOMj6dXMmUqn9kInM+UrfKc6f4iV67vS3OV02AzGg1OTrQr4XavTws4LZZSzOYSIpFgRt+Nbja7cTiqicXC85rUV266xeJ2r2DLlrvZsuVuli59/2JnJ8VUB+jCwjUpnaD1ehv19dcmn0Znakafr76+I3i9gyiVGlat+gjFxRtS3vgxG693gFgsikqlY+nSD2A2uzP+xBwK+ejq2gtATc0VWK1lyXWJ+deuQ6s109W1m0Dg7O4bue2kJqc8p/qmabWmtB9XrTaP+vprkzdCSTr7hrg4nfA0GnPKzTkxt+iNSJKSlpZn02bKOHHiFcJhP3l5xaxbdwfl5VuwWIqzcoNfWHlOz2RyUVKyCQCPZ+6v65ObbjYnT/4Jj6cdpVJDdfWVbNjwGTZt+gIrV96UnLYoFgtPM5p5cc6X+dwnFna9z182zpe5GhhoIh6P4XDU4nKtAKC/P71WM5P5PB1sZiesyUQ+53t/kSuX96W5kt1GWFCwCqPRnfx7KnBUqYwpbxIKBsfo6no7+XdX19tUVGzDZqvAYinE7/cQj0fRai1oNGZisTAdHa/NeWqEuSgr2zK5733zmhJBbjo5yssvIS/v9M1HpUpMMaLRmFm16vSbhPz+YVpanp32M848kbL9Bqb56urai8u1HK3WzLp1txMIjKJW61GpdAwPHycYnECrNaU9gJwenT6/p9V4PMaRI7+nvv468vJKqKi4hIqKSwiHfQSDE0SjYRQKaG5+dtr+ZtFoiObmp6mvvw6rtRyrtZxYLEQw6CUSCXLs2NPJdBqNIXmuTJkKqPV6GzU1qTUyw8MnGR4+DsCpU3swmQqw2SpYvvzDBIPjhMN+DIZ8JEmip+fgtA86cstFLjnlGQiM4PG0YbNVsGTJ+5iY6CMc9qLX29Hp8iYD2AGMRieSpD5rf7k9vilFRWspKlpLIDCOSqVBpdISDE5w9OgT09bK+P3DHDz4MFVV78FmK6ekZGPydbbRaJhIxEckEubgwQcWPJBmIeVpt1dTVrY5OfG+JKnRaEzJ14yOjnbR2vpC2j7lpFvI9RCJBGhsfAyHoxqzuRiNxoTfP8zoaCfhsI916+7A70+fLHyxzpf53CdA/vUux0LOl4UKhXyMjHRis5VTWLiaeDw245RpcvOp19spLl6X/FutTsyCUla2OaXmcXi4leHhtuTfcs/PTJTnfO8v1dVXptTUajSJ/r6FhWuw26uSyxOD+E4/9OXyvjRXsoNNtdqUHF13JkmSUpZHo6kjsvz+YVpb/4jDUY/RWIDB4Jh8JdkYo6PtDA4em7yxZUZeXglWaxmRSCD5VJnNdHJptXmYzen9VCVJmbI8Epn5ffFnzoGXyTLMhEBghEOHHqaycitGoxO1Wo/XO0BPz0GGhlpYteojaLWmafo+JWos5LSMhMN+Dh/+HVZrGfn5tZjNReh05pR+h+caGTo0dJyDB3+Ly7V88q0YFnS6PBQKRUo6pVJLQcGKaT9DozGmrTuz838sFqax8Q+43StwOGom86ZleLiVgYHGlJtkKvnlIpec8mxqeori4otwOuvQ6x1oNCYmJno5fvwlRkY6WLLkOoxGJyrV9DWbuTq+wcFGFIpEjZ1abUSpVDEx0Tv5HuF953z4DQQ8NDY+hl5vx26vxGQqQKfLQ6MxoVIZkKRIxm7ocstTrTZgNOZP/hUnEgkRCIwyNNTK0FDLZLNbeu2gnHQLuR6mDA0dZ2joeMoyu70aYIZav9xfD1Pmep+AhVzv8si//hZuYKARm60cgOHh4+essJGTT63WNO155nBUp/w9Npb6SsaFnJ9yy1Pu/cXlWjptl8Mza8Vh+inpcnlfmguFyVR+AUwaId+qVbdgNrtpa3sj2ccom+mE81/i4o1NDkx6R5/+OSHK88Iw1Z87MfXJ3H9k5KbLJKVSzZo1t6LTWWlsfAyPp31R8iEIgjyLMql7rtjt1ZjNbkIhL729c38Fptx0woVh6j3KQmaI8rwwyA0WFyfIVKDRGDEY7FgsRbhcK9BqTfT2HhKBpiBcgN7BwaYi+drEU6d2zuPl9nLTCYIgCAu1evXHMBrzUwZ6RCIBTp58le5u8fAvCBeid2yw6XTWYzTmEwyOJd87ms10giAIwsLFYmFCIR+h0AQTE/2MjZ1iePh4xkbqCoKQe+/YYDMSCTA21kVf35F5dYKVm04QBEFYuEOHHlnsLAiCkGHv+AFCgiAIgiAIwuLJ6aTugiAIgiAIwruLCDYFQRAEQRCErBHBpiAIgiAIgpA1ItgUBEEQBEEQskYEm4IgCIIgCELWiGBTEARBEARByBoRbAqCIAiCIAhZo9RorN9Y7EwIgiDMhSQpMWiNaNU6QpHgYmfnnNQ6FZd/ej3xWJzR3vGUdVqjhm13bsA/GmBiyLdIOUzQW7TUbi5j/YeX03NskLB/4e+633jTCoqXuwgHI3hH/BnIpSAIF7J37BuEhAuDSq2hdt01VCy7hILylZjtbp74yd20Nb6elXQXErvZwY2X3sqly7dhMzs4fPIA33747xjzjS521hbN9+66l/qS5dz3/E/4zcv3LnZ2ZmSw6rnirg1YC81YnAa6jvQRCZ1+3WL91grctQ5cVXbe/u1BTuw+lfM8OsryWL69mpKVBUhSopGrdKWbpldPLuhz1ToVVRuLUWlU1F1ajnfYR8tbnbS80UHQG8pE1gVBuMCIYFNYNHUXvZerbvsnDBZHynK92ZaVdBeSDXWb+erN/0iewZpctr5uEzdfdhs/f+YHi5izxaNVa6kurAfg7aY/LXJuZma06djxpU2YHAZ6W4Z47Rd7UwJNgIPPNBONRFn7viVsuXU1CqWC42935iR/BqueDTcso3SVG4ChjhHaG3rpPNjL+IB3wZ8fDkT4/ddfpHSlm/J1hRQtdbLmunpW7Kim8cWTHH6+hVhUvLhOEN5NMhZs6vV2qqquIhQap6XlqRm3q6rajl6fP+vnjY930dFx/v6gvFOs3PoR3vvJf+XEoVf53X/ekbP9LtnwPt5/1/eJhP3sf/l/6Dz2NiMDHfjHh/CODmQ83YXk0uXb+LuP/jPegJcfPfkfHGk/wPsvvoFr1l+fEnxeiFzWAr772Z/TcGIX3/n9N+eVtr5kOSqlisHRfo73NGcphwujt2i56u7NGO0GOg708Pr9+4lFpg+sjrxwHP9YkM0fXcXmW1YRj8azXsNpL7FwxecvRmfS0Lavh6Mvn2CoYyTj+wkHIpzYfYoTu09htBtYtq2Suq3lrHpvLa5qGy/+eBfxmAg4BeHdYlFqNiORwIzrJEmFJKmIx8WN6J1KUqq48mP/D4jz2Pc+N+emb7npLiSV7hr+5iPfYtQ7yld/8QXa+k4A8PSeP3DN+us51NawyDmUT6FQ8H9v/AYFNjf7WnfPO703MMEPn/gOnQNtmc9cBqg0St7z2fUY7QbaG3p4/Vf7Zw2oTuw6RTwW55KPr2HTLSvxevz0tQ5lLY+bb12DzqThzd8c4MSu3DTde4d97P79EToP9XHl5zfirsvHVWWjr3U4J/sXBGHxyQ42tdo8bLYq1GojarUBjcY4p3QnTrxwzvWlpZdgsZQyMtImN2vnBbu9ktWrP0Jn5x5aW899zFmhUKBSaYhGI8Rj0dm3zyG7uwpjnpPBruZ5BYxy010o1Co1f33zN4nGwvyfez7HqcGO5Lq1VRvoH+njtcOLcC5lyA2XfIw1VeuJx+PsbX173umP9zSftzWaABtuWI6jzEpf6zBv/Hr2QHPKyT1d6C061l2/hK2fWMuT//oagfHM923UGjXYisxEQlHa9nZl/PNn09s8yGC7B2elHa1Rk/P9C4KweBYUbDoc9cTjMWKxcEZqIvX6fCyWUvz+IcbHM/PUfdFFd7Bu3cdpaHiQ3bunH1Cg11u5/fZHkSQNv/nNzYyNdaes12hMrFhxPTU1V5KXV4JSqcXvH2V4+ATNzX/k2LFnU7a32Sq4+eZfoFLpKShYkQw28/JKqau7ivr6a2hre4PXX/+vjBwjgNZgYcWWD1OxfCuu0mUY8pwolYmv95n7/pqDrz2Ysv1d//4mFkdR8u+qlZfzV79oS9nGPzHM9+9ed1a617E4SvjNP99IV+uelHV6k50vfW8fAN+9s45IePofTLu7GoCJkb55HaPcdBeKT+74AlXuGr7/+L+mBJoFNjc3X3Yb33rwawRCp1sFlpWt4usf/TbRWIyP//v7Uz5Lp9bzh2+8QiDk54P/uC3l+rzl8ju4aett3P/iz/jDWw9jN+dzwyUfZeuKK7CZHRw4sZdvP/R1vIGJGfO6pnoD711/PSvKV5NntNHr6eLxtx/h8bd/l7btF9//FT64+SPJvxUKBb/72+dTtjl0cj9/ec/nUpaZ9BZWVqxlVeVaVlWuo7qwFl/Qy03fuoZobPYR0xvrt/CBTTdRV7wMrVpLW98JXjn4HH9462Fi8Vja9gspl+JlLqo3lRIYD/Gn+/bN2HQ+k8aXjuOsslG6soCLb17Jq/funVf6uQh6Q4wNeLE4jdRuKePYn9ozvo9zUetU2IothHxhepqzV3srCML5R3awOT5+isbGh5I/YlN9NhfC7V4NQF/fgQV9zpl8viG0WjMOR+WM26xf/0nUagMNDQ+mBZqlpRvYvv3vMRjy8XhOMjrajdVagtnswmx20d9/JO3zVq26EZVKDyQC2fe//z9xOusxGOzJbfx+T4aOEMqXXcIH7vo+epOdeDyOb3yIscHEYAO11ogkKdPSnGrZjaJVwuoqo7ByNd7RATqaUmubwsGZg43pzfwDe/cPDqAz5KUsq1i+NS3A3fXMz3jl4X9ecDq5fv6NW1Gp0svrbN/91YscbMlc7VBFQRU3XnorjR0HeWLn71PWmfV5/PDJ77C7+a3kMqWk4ssf/Bvy81y8efTVtM+rKqxFUki0dh9LexBcXr4KiyGP3uFutq2+mruv/yoGrZFoLIpaqebi+kt538YbeOi1X6V9rk5j4P/e8HUuW7mdcDRMe99JAmE/5a4qvvSBrzI8PsTrR15OSTMw2s+TOx+ltrie+pLltHY309R5OGWbw+37k/+vVqn53l33UV1Yi0KhIBD24w14UUoqGjsOzRpoSpKST131eT5y2R3E43FO9h1HASwpWcayspVcVLORv7v/L9PSyS0XSZK46EPLANj/xFEC4/KmZNr18CGKljopXeXGVW2n/3jmm5nf/u1Btn/hYi768DLG+n30HMtRP2cFXHr7GlRqFa/cv4ewPzxrErd7JTfeeA8AY2Pd3H//h7OdS0EQskR2sBmfpmZgIczmEgwGJxMTvXi9/Rn73OHhRJ83m236YNNsLmTFihsIhbzs2XNfyrrS0ot53/u+g9/v4aGHbmdwsAUAhULiuuv+lYqKrfT3H0v7zBMnXqWy8jJMJhdGYz5qtQ6Pp43m5udYvvyDKJUqjh59MiPHp1Sp+eAXfozWYOH1x77Lvhd/RWAOU+M8+bM/BxIDhAorV9PXGzxftwAAIABJREFU0cgTP/3SgvKSGtQoTv+fQqJ1/+maLLu7iqLqdYwP99B+9I2Uz+htO7jgdAtRX1GAVjP7ZaHXqTOyvyk3XvpxFAoF9z77w7TgsLX7GK3dqefZDZfcQqW7BoAj7enHXlu8BICWrqa0deUFiRri96y6iouXbOGXz/2Y5/Y+iVKp4juf+Qk1RXW4bUVp6TRqDd/5zI+pL1nGiw1/5EdP/kdyGqZbr/gMn9h+J1etuy4t2Hz4tfsB+OpN/0h9yXIeffMBnt838yDCcCTMI3/6Nb2ebnqGT+GZGOYTO+7i1m2fZv/x2ft6fu0j3+TylTvY07KTf3vk7/FMJIK25eWr+dYd/8XFS7bynlU7eOVgau2q3HIpXuHC4jLi9QQ4uUf+A4h/LMjxtzupu7ScZVdUZSXY7D8+zBv/c4BL71jDZZ9ax2PfeInQHAK/hVq2rZri5QUceraFU4fm1jKhUJz5zhHRh18QLmTnxdRHCoU0WasZp78/c7WaAENDJ4nH41it5SgUSuLx1P6LmzbdiVKpYvfunxMInB6VqVJpufLKvyMc9vKHP3wJj+d0k1M8HsNqrQCgv/9o2j47O3czNHQcr3eQxx77PJHJyadLStazZs0ttLa+hM+XmWakoqq1aA0WfOPDvPnk92ExB1bNsO94PMbT934l+ffq93yMoup19Hc2pizPVLqF2PqJ72blc8/Fbs7nijXXcKK3lYMn980pjcVoJRaLIklKGqcLNosSwWZrT2qwqdPoKLAWAlDqLOez//1RhsYma7fCcKTjADVFdQyMpgcEH9/2GepLlvHgq/dx77M/TFn3wv4n+cT2O7GZHGnppiwrWwFAY/uhWY/vpQPPpPy9ruZiAPa37jpnuvW1F3P5yh3sP76bv7//y4Sjp2tBj7Qf4NE3HuC2Kz/HtlVXpwSbCymXyosSAWjTKycWPKXPkRdPUHdpOcXLXKg0yrQpkzKhfX835WvdlK0upKDWQefB3ozv42z1W8sBaHlz7tM7KRSnH1jFgFFBuLCdF6+rtNmq0GjMjI52ZrR5GSAS8TM+3oNSqSIvL7VWIj+/hrq6q/B6B2loeChl3erVH8VkcrJr1y9SAk1I9OHMyyvB5xvC601vhqqo2EpZ2UZeeeVfkoEmwIoVHwTg6NHHM3V4ePrbiUUjGMx2tn/sG6i1+ox99nydWdutkM6LU+uC8KEtH0GtVPPoG7+dc5pfPPsj/CE/kWiE5u7GtPU1U8HmWTWipc4KJIXEwGgfX7nnrtMB1aQCawEA3cOpQUFFQTU3bb2N9v4T/PL5n6Ttb2B0gL+570v85Onp+yHnGawUOUoZ9Y3QNdQx7TYzMWiN1BcvZdQ7wsm+4zNuJ0lK7rz2LwC499kfpgSaUw5MBvOlzvKU5XLLBcBaaAag/+TC713eYR+B8SAKSYHFNbdBl/NlLbJgLbLgGwlkpfZ0OoHJydxXXVODSjt7NxWAnp5D/Oxn2/nZz7bz4IO3ZzN7giBk2aLXbEqSGqdzJfF4jP7+2Ws85BgePo7FUoTNVsnIyOkfi02bvoBCIbFr18+JRE6/Uk2rNXPRRbcRDI5P29ztctWjUCgYGEhvotRoTFx22V9w4MAjDAycHjmr11uprHwPfv8InZ170tLJNTHSx5M/+zJXf+LbrLvyDpZe/H72Pn/fnJvTMykWO7NrhQg2Z2PWW/j9372QrMH5yg1f5ys3fH3abY+dauTPfnR6HtQyVyVGnYmmzsOEzhqIpVapKXdVEgwH6RhIfVCqcFUB0NR5hEA4/TWClQV1QHrT/G1XfhaVUsWvXvgpsWlmN4jFouxpnnmE+ZLSqVrN+bdcrK5ajyQp2X989zlruJaWrqCioJpjp45w7FR6X2og2exv0JlSlsstF0mSMOUngsLx/oVPiA4w2udFZ9ZiKTAxfGosI59Zv7Wcwnon1iIzOrOG9v29NDzZlLM3+rzx6wa23rGWms1lVK4vof/4EOODPvY/eWzG/pvxeJRQaL79xgVBOB8terBps1WhUmkZG+skFBqfPYEMw8MnqajYit1eycmTrwFQVLSGiootjIx0pAWUZWUXo9EYaW19gXA4/b3FTmdiMEBf39lN6Ap27Ph7/P5h3n77Rylrqqreg1KpoqXleWJzGEk7H027n6T96Btsuu6LrL3idi790F+y4erP8Obj/82+l+4nGsl+n6yEM2o2z2gCE6YXi8d4seEZtq99b3LZzqY/MTg+gEpSoVAoUUoSSknFkbOCtOVlicF00/XXrCyoQaVU0dLdlBYYVrprAWjuSu/+UWgrpsDmpmf4VEpzsVJSsbFuMwCH2vanpZuLZeUrJ/M7/wfKdTUbAGbtr7msbBUAbeeo/XTbigEYHhtMWS6nXACUGglJqYA4RMOZafKe+hwpg60DZWuKKKhJDFD0egL4PH5CgdxNiTbWN8Gz//0mG25YQfXFJRQucVJI4k1Kubo7CYKweBY92LTbE4Mchodbs7aPoaHEj4/NVpFctmXLFwF4/fX/Sgv+3O5ELczIyPTTLxUUJJoozx4ctH79HeTn1/PII58kEkmtMaisvBSAkyez81Yk/4SHlx/6J3Y/+zPW7/gUa7Z9nG23fJ21V9zGQ9+5jdHBzL4Kb7pgMnZGs+V0I+AvBLkcje4NTHCitxl4L68deoGVleuoKVrCL3/1Y473tJwz7bLyRGB1pCM92JxqQp9ucFBNUeJ1j63d6UHVmupEULe3JbVfpMPiQKcxMOobYWRCXlPx0tJEsNk4TX5ns3YyX7P113SYE28m6/H0zLhNuati2nzIKRdIvCknMBFCZ9JgdhoZ6Vn4A/NU8/lYf+Zq9V7+6S5M+UacFVbqtlaw8ppaSlcV8MfvvkE0nNnBntNxlFu5/FMXEfKH2fu/jfSf8DAx6BPvSheEd4lFbes0GgvQaMyEQuN4vdmbO3FqRLrdnhiRXlV1GW73Sjo6dtHW9mba9gZD4kdrbCz9R0uhkHC5lgMwMJD6wzQ8fJKnnvoKPl9qPyilUkVJyQai0TA9PZkdAHW2iZF+XnnkX/jpX22ls3kXVlcF1376OzMnmGyWnGtfz/hkU7lGb05bFz0z2FQt+nOMLPUVBSyrcs/6L1Oj0etLErXkz+x9nD/70R2MeEf4zzt/nlw+k7rJ0eYne1ODUrVKzfY1iZrSs/trAlQXJpqDm6cJRNfVbARgT8tbKcs1Kh2QeDe5UpL3vdYVL50xT+diN+dT7qqib6SHHs+5g/up5m/TWU3kU5SSius2fph4PM7z+1NHw8splynjk0HhVN/NhVBpVBhtiWtxtC9zwWYkFGWke4yWNzt45j9eZ2zAi7XIgrPSPnviDNh6+xo0BhVPf+dPHH35JEPtIyLQFIR3kUWNCOz2RNOVxzNzs1cmeDztxONR7PZyJEnF5s1fIB6PnmNS9UQAptOlzu+o01m56qp/wGJx4/d78HpTm+JOnEif7xDAbC5CpdLi8bSlDBjKJv+Eh11P/5jSuo24K1bMuN1IfxsAzuI6VGrNjBOxTxnz9JLnLCO/qIYTB19KXRmPE4tGkJQqlMrMTg2UK7kejT4V5JzobWVobIC/uvfzfP/zv+T/3fpvfPGHtyen7TlbgS0xcvrM9TqNjr+95VusrFw7+Zmpb9txWQuwGPLo8/Qm+y6eaU3VeiAx8vpMg2MDxOIxdGo9NUX1M/aHnInd7MCoMxEI+/GH0rulnMuqyWM53j37m4NODbZPplk37frrN9+E21bE8/ue4tip04Oq5JbLlJ5jQzir7NReUk7bvu5pt5mr2ktKUUgK+o8PEw5ktrvNlFg0jlIpEYvG8XRlpk/obOLxRCBdWO+k68jcprYzmwupqbkSnc7E0NAJmpufy3IuBUHIlkWr2VSrDZjNRcRiMTyek1ndVyQSYnS0G5VKz6ZNn8Nmq+Dw4ceSNZ5nGx9P1GguXXotWq0ZSVJRU7OdW265n/Bk7YnXm5i6SKs1o1brzrl/szkRGKQGYNnt01hQvoLNH7gbgJOHZ2667+88SiQcQme08uG776Woai2KczSBD3UnatIu2v5JrGeM6LW7q/jAXT9AmnxrkXSBBpu5ZjXaAJLN02O+Ub5235cx6/O467r0icchUUOnUSVe93dR7SYUCgUrK9byX3f+Am/Am/ysgdE+1Co1xsmavurCyeb1aZqK84xWrCYbE4FxRiY8mPQW1KrEdxgI+dg32YT8tY98k6rJ+T3PzM/SspVsW331tPmdmi9RrVSnzFNp1Jm4ZNl7uHXbp2csnzJnBQAmvRlp8nMUCgXFjjKuWvc+THpLctu9LTvxBb3UFS/lpq23JZerlCpu2vpx7rr2Lxj1jvDzZ3+Qsg+55TKl9e1OopEYBTV2nJW2GY9lNkqVxNJtiYFKx15rk/05s1l7/VKMdj37nzias9rFfY83QRy2fmItjjLrnNKEw342b76Liy76BMuWfSDLORQEIZtk12wWFKzCaHQn/5Ymm9dUKmPKm4SCwTG6utJHqdpsVSgUEqOjbUSj2a/tGxo6jtVayrp1txMMjrNz5z0zbtvc/Dzr1t2OzVbBpz71x8kpfaK89NK36elpoLr6PTgc1dx228OYzUU8/vifc+rUzK+Xm5qk3mIp5oMf/AHhsA+3eyUPPXQHExMLm8C+du1VXPqhvyQc9BGPx1BrDJjtbvSmRPNY57GdPHPfX8+YPugf54mffonrv/AjKpZvpWL5VsJBL+OePoL+cf7woy8yNnS67+quP/6MlZfejNleyKf/+UVGBzowmO3ojFZa9j/HuKcXs82NSq1N2c/WD/0ftIZEYJBfnOgf5yypZ/ut/5Cy3d4X7sPTd3LB6S4EkqTEqDPjD/lS3orTNdTBEzsf4YZLPsZ9z/04rfk4GotwvKeFuuKlfP2j3yYUCaNRqXli5+/5wRP/ziNfS7w+9T8/dw82s4MfPvEdnt37BDVFiVrU6ZqyrcbE+WLSmbnnzx+kOL+Mr9335zRMDsr58VPf5fvlv6TIUcqP/uzXtPWdxBecwKy3UJxfhlJS8sqB53j5wLNpn+0ZH6LX043bVsQ9X36Q9r4TmPRmiuylBMJ+Hn/7kRnLaHSypnFV5Tru+8qjBEMB3LZCdBoD/SN9HDvVyIQ/UTvnmRjmnme+x90f+Gs+9967+cCmG+nz9FBfugydWs/RzsN884G/Zng8tUViIeUC4Bvxc+y1NpZdUcW665fy3PfemvN70c+0dFsVhjwdg+0jtB+Yud/pQpStKWTZtkraG3o4+nLurpfOg73sf7KJte9fwuWfvognvv3qrDW3gcAIp07to6xsI3l5pTnKqSAI2SA72FSrTej16f19JElKWR6NBtK2USgkbLbE2zqy3YQ+ZXj4ONXV7wGYnMB95mmBBgdbePnlb7Nhw6eRJBXt7W+zZ88vGR3tBBScOPEqpaUbGB5u48UX/5nu7oZZ9n2SgwcfYcmSa8nLK6an5xDPP/+NtGZ4OQyWfJwliZqZeDxOyD+OZ6CDY3ueoXnP07QdfWPWid5b9j3Lr7/5AVZeejNF1euwOIrJc5YhSUr8Zw0IGRlo54F/uYn33Pw1XKVLMVgc9LUfYf9Lv6Z57x/5+N8+mgg2Nam1vSsuuRGzvTBlmcVRwror70hZtv/l/8lIugtCPE4sHkWlVKNQKFKm9Xl69/9y09bbWFG5Ztq+it999Jt85YZvUJJfQmtPMw+9+mvebkrMtPD71x/gw5d+lM7Bdn7wxL8nX3NZUzg1CCY9qOocaOPAib1UuKvpH+nj+4//W8oE8x0DJ7nre7dyx447uahmE+WuSgJhPy1dTbxy6AVe2P8kfZ7pJwePxWP802//hi9/8GtUuWsocpTQ2HGY37/+AC82PIMvOPOUQc/tfZJ1NRtZV30xNqONU/5TPL37D7zV9CcOntib9o7zJ3c+SudAOx+9/JNUumuoL1nKqYEOXj74HI+98cC0c28upFymHPhjC6WrCnBW2lh9bR0NT86vb6qz0saqa2uJhmO8/duDWXthzuprE4H1oWfOPQAtG468cJyyVW4c5VZKVhTM6W1LiXvuRny+HL1WUxCErFCYTOXi1QwXuEQfSRXRaCRlRLhw/vvNXz2By+rmxm/tYNR7+g1WkkLiqX98g3ue+d68JnsXFo+jzMqOL21CpVHy1m8Pcvztuc0AYSkwcfWfb0Zr1LDzoUO0vDm/Se/nSlIquOXf34ukVPD8D96mryUzbzGbj213bqB4mYvXfrGXjgOzv7loy5YvsG7d7TQ2/oGXXvp2DnIoCEI2iJm33wFi0QjhUEAEmhegXk9iQMnU6xin5BmtqJQqjvfMPjBGOD8MdYzwxq8biMfjbPrISqo3Fs+aJs9tYvsXL0Zr1ND40omsBZqQGBjU25xoTdn6iXUULXVmbV9nU2lUXHzzSoqXuRjr99J9dG41lVNT4x0+/Fg2sycIQpYpNRrrNxY7E4LwbqVQSGxZdjkVBVW8dvhFAiE/kqTki+/7CkadkV8+9yOi07yxRzg/jfVN4PP4KVlZQOnKQsKBCINtI9Nu6yi3sv2LF6M3a2l5s4M9j85vlL8cvc2DuKpsWFwmKtcXU7jESSQQYWLIJ6uf6WxsRWZW7KjhktvW4KyyMXBimJd/upuQb/ap3LVaC5dd9mXa29+ioUHU7gvChUw0owvCIlKr1PzkS7+hzFnJuH+Uox1HKMkvxW7J56v3/pmsSdCFxVe1oYRNH1uJJEm0vNnBrkcOpwRzleuL2XTLKpRqiWOvtbH70SNZ66d5NoVCQeWGYpZfWU2eOzFTQSQY5dThPo6+cpKhjumD47nSGjWsuKqGslUFGO0GALzDfg4+28LxnZ1zPs4rrvgabvdKfve7z4rXVgrCBU7UbArCIorFYrx04FmceS4KbEVYDHk0dh7iH/7nr8752kXh/ObpHmOwbZTSlQX0tQwlm6+nWN1mSle5aXiiiQNP576rhKdrjObX2+lrTczTmldgwlGWx4ndXfg86e+Gn494PMYlH1+DzqKlt3mI/U80sfuRIwx3zjwoczpDQyc4evRJAoGFBb+CICw+UbMpCIKQJVqjZsa5LPUWLf6x3LzkYTZKlURBjZ3upoXPkAHgqrYzPuA9b45PEITFJYJNQRAEQRAEIWvEaHRBEARBEAQha0SwKQiCIAiCIGSNCDYFQRAEQRCErBHBpiAIgiAIgpA1ItgUBEEQBEEQskYEm4IgCIIgCELWiGBTEARBEARByBoRbAqCIAiCIAhZI4JNQRAEQRAEIWsyFmzq9XaWL7+F2trrZKRWkJdXRlXVVahU2kxlSRAEQRAEQVhkqsXOgE5npahoI3q9HYC8vAqGho4tcq4EQRAEQRCETJAdbGq1edhsVajVRtRqAxqNcd6fYbVWUVS0HoVCwucbYGDgCBMTvXKzJAiCIAiCIJxnFhRsOhz1xOMxYrEw8Xh8XukdjqW43auJxcJ0de1kdLRdblYEQRAEQRCE85TsYHN8/BSNjQ8lg0y93k5V1VVzSmuxlOF2ryYc9tHe/grB4JjcbAiCIAiCIAjnMdnBZjwek5VOqdRQVHQR8XiMzs43RaApCIIgCILwDpbzAUI2Ww1KpZahoWb8/kH0egc6nRWlUk0gMIbX2ys7kBUEQRAEQRDOLzkPNi2WEgDC4Qmqq69Bp7MCcUCRXN7e/ieCwdFcZ00QBEEQBEHIsJwHm1qtBQCHYwlDQ8cYG+skHPahVhtxuVZgtVZSUbGNlpYnicUiuc6eIAiCIAiCkEE5DTbVagOSpCIcnqC19ZmUYDIc9tLVtRONxoTB4MRiKWNk5EQusycIgiAIgiBkWE5fV6lQKAGIx6UZay3Hx7uAxNRKgiAIgiAIwoUtp8FmODxBPB5Do9EjScppt4nHE303o9FgLrMmCIIgCIIgZEFOg814PE4gMAIosFqrpt3GbHYD4PcP5TBngiAIgiAIQjbkNNgEGBg4BEBBwSpMpqLkcoVCgcu1CqOxAK+3H6+3P9dZEwRBEARBEDJMYTKVz+89k5MKClZhNLqTf0uSCq3WQiwWIxgcSS4PBsfo6no7Ja3bvQ6How5IDAwKh31otRaUSi3B4Bjt7a8QDvvkZEsQBEEQBEE4j8geja5Wm9Dr7WnLJUlKWR6NBtK26e3dh9fbg91eg0ZjQ6ezEgiMMDbWzfBw07zfsy4IgiAIgiCcn2TXbAqCIAiCIAjCbHLeZ1MQBEEQBEF49xDBpiAIgiAIgpA1ItgUBEEQBEEQskYEm4IgCIIgCELWiGBTEARBEARByBoRbAqCIAiCIAhZI4JNQRAEQRAEIWtEsCkIgiAIgiBkjQg2BUEQBEEQhKwRwaYgCIIgCIKQNSLYFARBEARBELJGBJuCIAiCIAhC1ohgEwAFtbU7sNurAEUO0gmCIAiCILw7qBY7A+cDh6MGl2s5eXlljIy0E4tFs5pOeOdzuZZTW7sDv3+YffvuX+zsCLOoq7sWp7OOtrbX6Orat9jZEQRBeEd519dsKhQS5eVbAOjoeGvOAaPcdMK7g1KpBiASCS5yTgRBEARhcWWsZlOvt1NVdRWh0DgtLU+dc9vq6mvQ6awzrh8f76Gj49VMZe2cnM4l6PU2/H4PAwNNWU83k8LCNVRUbCUejxIOBwkGx/D5hhgdbcfjOUksFlvwPjJBozGxYcNnZt3O6x2goeE3OchRdhQULKemZgceTzuNjY/NO70kJS6tcDiQ6awJgiDkxELvg4IwZVGa0ZVKDQCh0Pi064PB0ZzkQ5IkSks3A4nayXh8bgGd3HTnolbrkSQloESp1KDTmcnLK6awcBWhkJeTJ19lcLB5wfvJpGBwlHg8Pu26mb7bdwuvt5+urr34fIOLnRVBEARBWFSyg02tNg+brQq12ohabUCjMc45rVKpJhYLz1oDmm1u92p0OjMTE/0MDrZkPd25dHS8RWfnTiRJjUZjQKezkZdXSH7+ErRaM/X11xKLRRkePp6R/WVCQ8ODRCL+xc7GeWlkpIORkY7FzoYgCMJ5QIEkScTj8YxUzggXngUFmw5HPfF4jFgsPGMN19kUCgWSpCYc9snddUZIkpqSko0AdHS8Acwt/3LTzUU8HiMaDeL3B/H7PXg8J+js3EV9/bXYbJW43avOq2BzPtav/xRarYWDBx9mfLw7ZZ1arWfjxjsBeOut76f0f129+hYMBgd79/4SpVJHScl68vJKUan0BIOj9PUdpru7gdm+B43GiMNRjclUiMHgQK3WA7Bnz71n5fPTaLXm5N82WzmXXPLllG3CYT+7dv00+bckSWze/CWmm5FgdPQUhw//7px5A9BqTRQXr8dkcmMwOPD5hhkf76azcyeRSHpTfKbKRa65lqfDUUtd3Q7C4RCRiJ9AYASvdwiPp42Jid4ZP38xj89sLqSoaC1mcwGSpJn8HnYxMdE3YxqFQqK4eD1OZz1arYVgcIzx8R66uvbg94/Mus+5lueU+Zwv1dVX4HQu5ciR32O1VuB01qNQKGhre4OJiV7Kyy/Fai0jEgnQ3PzMtMe50OObKznni15vZ92621OWBYMT7NnzcyDR9cfpXILVWoZSqeHgwQenPT6Xazk2WwVGox2NxkI47CcYHGV09BSdnTtTgiQ597PF+B7kXkdy7oNnUiq1uFxLsdnKMBicaDRGFIrEEJHW1hfo6zs8bTrhnUt2sDk+forGxoeSQeZUn83ZTDWhR6MhubvOiKKitajVesbGuvB42rOeTq5oNMypU3uw2SqxWAqzvr/FcK7nFKVShySpKS+/lPz8JSgUEAyOoVDEMRgcVFZejiSpOXVq17TptVoTFRWX4XDUJG92p/cbIxEgns7A2Fg3oECns2A2uwmFvIyOdqWki8XOHvSjoqtrL5KkQqlUI0lqdDorJpNrTsfvcNRQU7MdlUpHIDBCIDCKyeTCbC7A4ailqemJtB+ehZaLXPMtT6VSTTgcRKXSodWaMBqdOBy1lJVtYny8l+PHX8DrTe9qsFjH53avpLx8K6GQl0gkgMFgxm6vxmqtoKXl2Wm7suh0Zurrr8NkchMO+/H7Pej1NgwGBw5HNY2NjzM+3jPt/uZbnjD/80WS1CiVaurqrkOjMRCNhlCr9dTV7SAajRKLRVGpdKjVeqqrt3HgQGowtpDjmy8550ssFqG7ez8qlRaVSovdXo1KpUWSlJSVbaawcB2SlCjbUMibtk+TyUV19XZMJhexWIxQaBSIotWa0GpNWCzFdHXtIRqdW43cTPezxfge5F5H8u6DCVZrGXV17518YIoTDvsJBBL7lCQNCoWYJvDdSHawKbcqXKnUAosbbKpUiSc8gPb2N7OebqGCwQkgEXi+M80cbcZiEQCMRhdNTU8yMtJGPB5DklTU1l5Ffn4dpaXr6erak3ZOmkxuVqz4MEqlhomJPgYHW5mY6CUQGCUaDRGLhdP23dz8RyDRMd5sduP1DtLc/PQ5cx+LhWhrez1lmdO5hLq6a2Y9cqMxn/r6awmFfBw58ttkkKDRGFiy5H2YzUXU1u6goeGBlONbSLnIJac8+/sb6e9vBECSNBgMViyWRF9ks9nNihU30tDwAMHgWEq6xTg+SAzoamr6TTKgUSo11Ndfg81WRVXVNjyekynXoUIhsXTpB9FqLTQ1PcXQUMvksSqprr5icgqsq9i371cZKU9550viv37/AA0NzxKPh1m27Aby8oppbk7k2WRyT9aC5afsbyHHJ4ec8yUYHOPkyVeT+d2y5W4kScWKFTdhMrkYH+9hfLwXn2+IQCB1PIBGY2DZsg8hSUpaW1+kv/9Isty0Wgvr138KOPcDcbqZNs799yD3OpJzH0zkR6K+/jpUKi0dHW/R03Ng2pYZ4d0n51MfSVKiZlOvt1FWdjmFhRdhtVai0RhyloeSkotQKjUMD59kbKxr9gQLTLdQeXlFQKJJ9t0mHk80QbW3v4nHcyJ5Q4zFIpw48QqQOKd3Enp/AAAgAElEQVS0WktKOpVKx7Jl1yNJKlpanuXAgd/S1bWb0dFOgsExIpHAeTBdlYLq6u0oFBItLanNZolg4n+JRIIYDPk4nUtSUsotF7kyUZ6xWIiJiX66u/dz4MBDjI/3oFLpKC3dkLZtro9vytBQS0rNWTQaoqnpKUKhCdRqPW73qpTti4rWYDA46Oh4MxkAJPIZ5fjxFwkGJ9DrbZjNRSnp5JWnvPNlaiaLwcFWotEgsVgMr7cfIHkfS3xWHElSpdSwyj2+TJjP+TIlcZ7EUSgUDAwcZffuezh06BHa2v5Ef39j2n27tvZq1Gr9ZNPuoZSAK7Wr18Jr4xbje8j1dWQyFaJSaQmH/XR27hKBppCU82AzFgsxMtKO3+9Bp8vDbq+luPhiams/QGXllZhM7qzuX6Mx4HavAeJ0ds69dlJuuoVSKtWUll5MLBbLeJPhQtXVXc3Spe9P+1dWtnlen3PmDT69KTFRSzDVDHamcNhHOJwYoKTVmlLWFRWtQa3W09NzgP7+o/PKT64YjQ7MZjc+3+C0DxLRaIi+viMA5OUVp6yTWy5yZbo8I5EAnZ1vA2C1VqStz/XxnUssFk32MTMaU7tGFBauBeL09h6ZJl2MkZGTQPr3J6c85Z4vUwHHmQFTem1wfNp+93KPL9NmO19S85U4jsHB5uR5Mh2jMR+rtZxAwDPrTB8KxdyrNme6ny3G95Dr6ygQGCUej6FW66mqujw537Ag5Hzqo2BwjK6ut5J/K5UaDAYXVms5FksJ5eWX09vbwNDQsazsv6TkYpRKNYODzUxMDGQ93UJVV29Hp7PS3v4mPt9QzvY7FzZbxbTLp7pKzNWZ99Z4XHHWusQN+uwgdEokEkCt1qetn/pBGh3tnFdecslodALg93tm3MbnS5xrer0tZbnccpErE+UpSWpMJhdarRmVSpOci1SrNaNQSCk/vLk+vtn4fMMAKfMDK5UatFozodAERqMdhUKJJCmRJFXyn1qdaLFRKJQpnyenPOWeL1MBx3zLaiHHlwnzOV9SRQFp1jyZzYk+8NP1GU4395rNme5ni/E95Po6CoUmaG5+hpqa7RQWriE/v56engbRnC4s/usqo9EQ4+OnGB8/hcnkprz8clyu1Xg8rRlv5tRqLRQUrCQej9HR8dbsCRaYbqFKSzfhdNbj8Zygq2tPzvY7Vzt3/jQjUx+dWWtwdt/x+fWVOm3qST0UmpCbrazT6+3AuSd+DwYT85X+f/buO77N6l78+EeP9rIt771H4iROYrITSMJIIcw2UAqUSweldNH2llsKlJbu/lra21JWSynpoowCFxIogbAJEMggiWOynDiO916ytvT7Q7aJkB3bsmUnzvf9evEKep7nPOfoSJa+OlOjMYQcj7ReIjWe+jSbk8jOXoLNljfsl5parQv5Mprs5zeSgS7V4yc3mEwJQHC2c1nZZ8LSBAJ+AgEfXq/zuFatoEjqM9L3y0dBzti6gsfz/MYjkvfL8fx+P4oy8vNVq4N1NNqVVEZruM+zqXgdpuLvqLX1AJ2dx8jMXEha2lyys5eSnl7OsWPv0ti466TZoERMrikPNo83MDjeYIhDr4/F4Wif0PtnZy9BURSamipO2DowUenGIy9vJenp82lvP8z+/RunzdpkQ33QHv8BGf7lMtANNLaWk4F76vWx9PY2j62Qk2RgK8sTdWENtFiEt2pHVi+RirQ+bbY8Zsy4CJerm/37/4Pd3ojT2QOo0Gj0LFz4JRRFPcT7YnKf30gGloEZCOaO5/U62bnzb/j9fvx+H4GAb8S/10jqM/L3S7AskbZeRfL8IhX5++V4A2U78fN1OoNLBQ0Ec5EY2+fZVLwOU/N35PU6qK5+g/r67aSnzyc1tYy8vJWkpc2louKpsAmBYvo7qfZGVxQNOp0VCEz4YuEmUwJJSTPx+30cO7Y16ukipVIpFBWdR3r6fFpbD7Bv38Zp8ksw+KE3sPTV8QbGWEH4h3ekX2p9fcEvktEuP/RxAy0CanX0fo8N/HAxGhMZrptuoDvUbg8NNif7x0ck9akoCkVFa1CpVOze/ThtbQf7AwcI/o07B5/HRL3u0TIwVrOzs3rwWDBYCfQvV2Pqn9TjGVXZI6nPyN8vkTVvjef5RWI875fjDfztjhTU2e0tQHAJoPj43KHudILUkXyeTf7rMN7Xaryfg263nerqt9i27WG6u+swGOIoKvrEuMokTk0nTbCp01nJzl6Joqjp7Kw+4cDuSGRnL0OlUtHYuHvI1omJThcJrdbI7NnrSE4upabmXfbv/88YPyxUqFRK/4fsybWW2cDyTSZT/BBnA8d9iQz3C3xsz6e9/RAAaWlzw8Y7jsbxrR7RahXo7W3A7/diMFhJSCgMO68oalJSZuP3+2hpGW4M8+S8zpHUp9mcjFZrxO3uO8GPx5FaXqb+fazTWUhJmY3D0TG4LA8EF7Xu7AyOuczLWz1k4DGcSOoz8vdLsA7H2n07nucXiYl5vzCqgBSCf+MDr2dx8VpSU+eg01lQq3XExGRQUHDusGkj+zybytchsr+jifoc9Hod1NW9D4DVmhTxfcSpa0qCTZVKhVZrwWJJJylpNnl551BUtBazOYmenjoaGiZ2fKLVmkpCQgF+v2dMM7ojTRcJiyWZuXOvwWJJYt++jf0zL8f2Szg1dTbLlt3EsmU3MXPmxdEpaIQGJlikpc0LmWRhNNooKVk72AoxXDf6WDU17cVub0Wt1lFWdiUZGQtDdsQYid3eMrjI8syZl2C1pk74ZBS3u4+6uu0AFBaeTVxc9uC54PqOF6LXW6mrex+n8+PDNyZ3MFYk9TkwtlCvt4QFR3p9LCUlawe/OAeWRPvI1Aza1OmsIV/mwbUwL0dR1Bw8uClsHPnhw6/h8TiIjc2gvPw6cnKWEROTMWJAEEl9Rvp+Gc+YxEifXyTG9375yEeB3sh/r0eOvElHx1HUah0FBeewcOH1LFnyVebMuWJwOSC/3xO2LnQkn2dT8zqM7+9ooj4HLZZkMjOXANDRIdv4no4i7iNMSSnDbP5omaKBmYIajTlkJ6Hg7PN3Bx+npZ1BfHwhH/+l5XC00dq6j+7uiZ89nJ29DIC6uh1jajGNNN3YqZg9+wrUai1er5OcnBXk5KwY8sqmpj3U1e0Y8tzxHzwD47tOFnV120lOnoVeb6W8/L9wOrvQao1oNAba26twuXrR6y2D76MBH83mHNsv80DAz969T1JSciGxsZnk5i4nN3c5Hk8fLlcvPp8HlQoOHNg05Pghn8/NgQPPU1JyIXFxOcTF5eD3u3G57Hi9Lvbvf34wnU5nGnyvDBj4AjIabRQWhraQtLcfGdx2tLZ2GxZLCjZbLrNmfQqXqwePx4HJlIiiKDQ07B7yh06k9RKpSOrT6eyko6Mamy2XGTMuore3CY/HjtEYj8EQ2x9wtWA2J6Eo2o/lN7nPb0B6+nzS0+fjdPag0ejQaPS4XL18+OEGenrCt0t0ONrZvftx8vNXYbPlkJm5aHA7W5/Pg9fbh9frYffuR0KGw0T6/oz0/QJjb1Ebz/OLRKTvF6MxnoyM8sHHWm1wNYzs7KUhLaTt7Ydob68OydPrdVJZ+TQJCQVYrRnodBYcjna6uo7h8fRRXn4dDkfoQvAQ+ecZTO7rMN6/o7F8DgLExxeQnb10cEMCRdGi01kGt1/t6qrj0KHNEZVFnNoiDja1Wsvg7MjjKYoSctznC50x6Pf78HgceL19OJ1dOBwd9PY24PGEbyM2EWJjMwf3mx1oFYhmusgE8PncqNVaNBpD2Mzj4w1MABjK8WuaBf/YTx5OZyd79jxOXt6ZmM1JaLVG7PYWGhp209Z2kLKyK9HrLUOMDRqYwTn2PD0eBxUV/yYuLpvExCKs1nQMBmvIOLkTzexta6ti9+5/kZw8C6s1Db0+BoMhFpVKFZJOrdaTkjJ7yHvodOawc8dP3vD7PVRWPkNq6mwSEgr7y6anvf0QLS2VYV+OH4m8XiIVSX3u2/ccGRlnkJRUjNGYgE5nobe3kaqqV+jsrGHGjAsxm5PQaIZu2Zys59faWolKFWyB0WrNqNUaensb+/ed3nHCHc+czg4qK5/GaIwnPj4PiyUFgyEWnc6CRmNCUbxDBmKR1Gdk75fxtW5F+vwiEcn7Ra+3DPn3l5BQEPK4u3v4LTXb2qpoa6sKORYfH0wf3qsQ6efZVLwO4/87Gu3nIAS/n8zmgd2PAni9bpzOLtraDtHWdrB/OMBJttSEmBQqiyVnWr/yZWWfwWpNpbp6y+CYkWimEye/YGuDv38g/7R++08Kqc+JJfU59dRqLfPmXYPBEEdl5dN0dByd6iKdMgbmDQSXZDq5JvqJqXNSLX000eLjC7BaU3G77TQ2fhD1dOLUMLBfsJgYUp8TS+pzKqjQ6cyYTPHExKSTnDwbvd5CY+MeCTTHSIJMMZRpHGyqBrdNrK3dis832m7lSNMJIYQ41cydezVmc2LIxBev18mRI69TXy+NDUJMhGkbbCYllWA2J+JydQ/uaxzNdEIIIU49fr8Ht7sPt7uX3t5murtraW+vmvAd7IQ4nU3bYNPrddLdXUdT094xDV6PNJ0QQohTz549T0x1EYSY9qb9BCEhhBBCCDF1TpodhIQQQgghxPQjwaYQQgghhIgaCTaFEEIIIUTUSLAphBBCCCGiRoJNIYQQQggRNRJsCiGEEEKIqJFgUwghhBBCRI0EmyKEoqgxGyxYjDFTXZSTjlGr43/OXMuSrIKpLgoWnYHbV13M7JTMqS4KcQYTFxTP4UfnfJJEk3WqiyOEEOIkM213EBqNeGsCl6+4hhWzVmOzJlBxZBe/ePz7dPd1TXXRpszdNz5ESeYs1r/0AP989aGpLs5JI95k4btnXkBWbDyp1hh2NhzF5fWOmE6r1VK+6GxKZy8iJ6+U+IQkHrj7dir3bB1XedYUzaY0OZ2SxFT+tO113qo+MK77RSI/PomLZ8zjjPRc1Erwd+uCzFxeOLBn0ssihBDi5HXaBpsLi5dyy6d/TKwpbvDYguIlfPqsa/nzC/dMYcmmjl6rpyCtBIB39705xaU5eSSaLdy+6mKSzTFUNtfzu7dfHFWgecbic7j2C7cSE2sLOW61xo67TE/t3YbX5+PTZQu5cdEqNCqF147sG/d9RyPeZOG6+ctYkJEHwOH2FrYeO8y2+iM09py+P9SEEEIMbcKCTaMxnvz8NbjdPRw8+NwI1yaSn38ugUCAffuexO8f+Yt7Iq2YtZrvX/Vz7E479238DXuP7uLixes4f8GlIcHnqSg5LoXffunPfHD4Pe568idjSluSOQuNWkNrVzNVDZPfUnYyijOY+P6qS0gyW3mv9jD3vvsyXr9/xHQLl67hxpt+jsft5NWX/s3+ym20NNfR091BV2frhJTt2X076XTa+dLClVy/8Cy8AX/UWzhz4hL43sqLiNEbePdYFc/t38Xh9pao5imEEOLUNiUtm0ZjMKBzOtsnPdDMSy3k1it/Rpe9i1v+8lWqmw4D8Py2Zzh/waXsqf5gUsszkVQqFf9z+Z2k2FLZcej9Mae3O3u5d8NdHGupnvjCnYL0Gg3fWXE+SWYrW49Vcc+7r+APjBxoqtUarr7uZiDA3Xd9Z9xd5ifyRvUBfIEAX1m8mi8tWElbXy8fNtdHLb8bF51NjN7AA++9yptT0HUvhBDi1BNxsKnXx2Kz5aPVmtFqTeh05lGnNRiC3Yp2++S2iGg1Wr736Z/g83v4zoM3UNtaM3hufv5CmjubeKNi86SWaSKtW3418/IXEAgE2H7o3TGnr2o4IC2ax/mv+cvJj0/iw5YG7ts6ukATIDUth9i4BOpqq6IaaA7YcvQgcQYTV89dwjeWnMv3Nj1Bt8sx4flYdAay4+Jx+7y8XXNowu8vhBBiehpXsJmQUEIg4Mfv9xAIBEaddiDY7OubmO7E0fr8eV8lP7WQPzz7/0ICzRRbKp8+61p+9uhtON3OweOl2WXccdUv8Pn9fPbXF4fcy6A18sydr+F0O7jsx6tDnv9nVl7HFWdey99e/hPPvPM48dZE1i2/ijNnn43NmsCuw9v5xWN3YHf2DlvWeQULuWDBpczOmUus2UZjRx3PvvsEz77777Brv3bxzVy29MrBxyqVin/f/lLINXuO7OS/H7wh5JjFGMOc3PmU5c2nLK+cgrQi+lx2rvjZ+fhG0eK8qGQZlyy5guKMUvRaPdVNh3lt94s8887jQwZmE1Evo1WyYC1rv/hrnH09OHra6WiupqV2P0cqXqfh8Mit1/PSslmVN4Nul4M/vPPSqLrOB6Rm5ALQOYru5e//9K9kZhVwyzcvxWSOYe2ln2PmrIVYrHG0NNfy5iv/x0v/eZTACIHuc/t3UZyYyoKMXL644Ez+d8uLoy7vaPW6nTT2dJFqjeXs/Jm8dGjvhOchhBBi+ok42OzpqaWy8rHBIGtgzOZIVCoFvT7Yje5wTF6wmZuSz+UrrqGyZjcbtj4Zcs5qjOXejXfx/oF3Bo+pFQ3fuuxWEmOTefvD18Pul59WhKJSOFS/PyzQnpVTRowplsb2elbP/QQ3XXoLJr0Zn9+HVq1lcckKLlq0jsfe+GvYfQ06E/+z7g7OmnMuHp+Ho01HcHoc5CTn841LbqG9p4239r4akqalq5mNW5+iKKOEksxZHKo/wL5jFSHXVBzdOfj/Wo2Wu29cT0FaESqVCqfHgd1pR61oqKzZM2KgqShqvrDmK1x51nUEAgGONFWhAmZkllKaPYczChfx/b/9d1i68dTLWGn1Jhy9XRjMsVhtqSRnl1KyYC0rLvs2DUd2sWn992g+9uGQadUqhc/OWwrAv3Ztpcs5civhPQ+9iskculzUrLIl/OXR7SHHXtjwdx7/5+8GH5vNMej0RtZd9XWWLL8AFSra2hog4Ccjs4DP/Nd30OtNbHj6zyOW4eHtbzI3NYsFGXnMSEpjX0vDiGnG6k/vv85tqy7i2nnLaOzpYk9T7YTnIYQQYnqJONgcqaVlOHq9FUVR8HjseL3OkHM2WwFWazptbfux25sjLdqQLl/xWVQqFQ9tujcsODxUv59D9ftDjq1b/hnyUgsB2Ht0d9j9ijJmAHCwLnwGcE5KcB3GVWVrWDxjGQ+/eD8vbt+IWq3hrusfoDC9mFRbelg6nVbHXdffT0lmKS9/8B/u2/ibwWWYrjn7ej537pdZU35hWLD5+Bt/A+CWK35MSeYsnnr7EV7aMfwkLY/XwxNv/p3Gjnoa2mvp6G3nc+fdyDWrv8jOqpHHet525U9YOec8th3cyq+e+AEdve0AzMqZy8+u+x2LZ5zJqrLzeG13aOtqpPUSiYot/6ZiS7AVWKs3E5+aR1bJIuavvpa0vLl85pZHWf/DC+luCw+WyjNySLPG0WrvZUvNwRHzUqkUdm776AdJanoOBUVltLc18WHFeyHXVh8ObQ10u10A5OTO5N7ffpeKXW/j83nR6fR84St3smjpGtZedh3PP7sen+/EPwI6nX28Xr2fcwtKubCkLCrB5v7WBu7f+gpfX3IO31x2Ht/c+Ah2j2vC8xFCCDF9TPoEoRN1oZvNKVitGXR2Vk9onvHWRM6edz6HGw+x+8iOUaWJMcfh9/tQFDWVQwWb6cFg81BDaLBp0BlIiUsDICsphy/9/irauvu7Uz2wt2YXhenFtHQ1hd3zs6uvpySzlEdfX89Dm+4NObd550Y+d+6XsVkShi1zafZsACqPjrzO4Su7Xgh5XF64GICdh94b6vJBC4oWs3LOeeysep8f/O1beI4LgPYe3cVTWx7h2nNuYHXZJ0KCzfHUy3h5XHaajlbQdLSCiree5PJvP0x6QTnLLv4aL6y/Nez6ZdnBHxkvHNyNbxTd54GAn4fuv3Pw8apzP0VBURnHjh4IOT6UgQDyqcfuY9eONwaPu90uHln/axYtXYNebyI+MZWWUbQibtz3AecWlDIvLRu9RjOqJZrG6t1jVSzOymdRZj4zk9PZVndkwvMQQggxfUz6DkJ6fXCNQYejbdLy/OSyK9GqtTy15V+jTvOXTffhcDvw+rwcqK8MO184EGx+rEU0KykXRaXQ0tXEzQ/e+FFA1S8lLgWA+vZjIcdzUwq44sxrOdp8mIdfeiAsv5auFm5d/w0eeP53YecAYk1xpCdk0dXXSV1bzZDXDMekN1OSMZMueydHmqqGvU5R1Hx57bcBeGjTvSGB5oBd/cF8VlJOyPFI62WiOfu6ePvZ3wOQO2vlkNdkxsYDcKB14gPfj/P316FGE/67r7urne6uDgASElJGdb8Wew9dTgeKSiHVMv71PIeSFZtAdmwC7Q57VFpPhRBCTC+T3rKpVhsB6Otrj3peVmMMT35/MyqVCoCb193BzevuGPLa/bWVfP2+6wYfZyfnYTZY2HesArfHHXKtVqMlJzkPl8dFTcvRkHO5yfkA7Du2F6cnfKxfXkoxEN41f+05X0Kj1vDXzX/E7/eFpfP7fWw7MPwM8xlZA62au4a9Zjhz8xegKGp2Vr1/woleM7Nmk5tSwP7aveyvHXpyyEC3v8lgCTkeab1MBK3ORGrubKwJ6eiNVrQ6AwAxCekoas1gwAfB8Zop/WMvJ2OBcq/PAwQD+aH02buJibUNe34o9T2dxBqMZMTYONo5MT/qziucxZzUTLJi44k1GNl67DCP7X6PXrdz5MRCCCFOa5MebGq1BiCAy9UZ9bz8AT8vf/AC586/YPDY1n1v0trTgkbRoFKpUSsKakXD3o8FabOy5wJDBz95KYVo1BoO1u8LCwzzUosAOFAXPvkkzZZBii2VhvbakO5itaJhUXFwQsqe6p1h6UajNGdOf3nHvlVgeeFCgBHHa5ZmlwFQfYLWz1RbBgDt3aHDJCKpl/FKzi5lxWXfJm/OatTqod/qOr0Z53Hbk+o0GtSKQoAA7klYA3Zg6LOiqIY+z+hXeRjg7u86V5SJ67hYnFXAzKTgMIhWey9tfb04PJ4Ju78QQojpa9KDTY3GgMdjn5TF3O3OXg43HgAu4I09m5mTV05h+gwe/uv9VDWceOJHaU4wsNpbEx5sDnShDzU5qDA9uN3jofrwoGpeQTCo234wdFxkQkwCBp2Jrr5OOns7Rn5iQ5iZFQw2K4co70jm95drpPGaCdZEABo6hu86zUnOHbIckdTLeOSXnc1lX3uA7rZaNv7xJhqrd9HVWhdcDcEUw1d/+x4arQ5FHdpi6PC46XY5idEbSLXEcqwrui3wAxPtlGGC4UikxQS7zxu6J+4H3a/ffJ5kcyxFicmcVzCbT5aewYKMXH6w+WncvvCWeCGEEGLApAebKpWCVmth1qzPDHtNVtZyAKqrXx73wu8lmaUAvLD9Wf74n9/z42t/y/9++c/8z5+/wv7a8LGYA4r7Z5sfaQwNSrUaLefOC7aUfny8JkBBWrA7+MAQgWh54SIAth18J+S4ThPs1tVr9agVzajWuAwv78xhy3Qi8dZEcpLzaepsoKGj7oTXDnR/Wz7WRT5ArWi4cNGnCAQCvLQzdDZ8JPUSKbVGy9ov/BpFUfjnz9fhOC6ADwT8OO2dBPpbpFVDdE839HQQo08jM9YW9WBzYD3SgaEe46XXaEk0BV+f+p6JCzZdXi/Huto41tXGm9UH+OWaK8iKTaA4MZWKphO/b4QQQpzeJn2CkNfrxO3uGfI/v98Tco3HYx93fgNBzuHGQzR3NvLdh75CR08bP7zmV9gs8cOmS7EFuwwHlvWB4IzqH1z9S+bkze+/Z+huO8lxKcSYYmnqaBwcu3i8efkLgODM6+O1drfgD/gxaI2DLYBjEW9NwGyw4PQ4cLj7xpS2rP+5VNWPvHNQbevR/jTlQ56/dOkVpNrS2bzz+ZBAPtJ6iVRyVimmmATs3a0hgebxBlrWNVpd2LmKpuB2j+cUzJqQ8pxQ/xhZlWpi/hTPKZiJolLY39qA42NjjSeK1+9Ho1bw+f0TNiZUCCHE9DXpwWZ19SscPPjckP/19AS7ZxsatnPw4HO4xxg4DSXOHFxqaaB7uruvi9vWfwurMZYbLwxfeByCLXQ6TTAIOaNoCSqVijm58/ndl/+C3WkfvFdLVxNajRZzf0tfQVp/9/oQXcWx5jjiLDZ6nT109nZgMcag1WgBcLr72NHfhXzblT8hv399z+PLMzN7DqvnfmLI8g4EKlq1NmSdSrPBwvLSVVyz+ovD1k92Ui4AFqMVpf8+KpWKjIRs1pRfhMX40ULl2w9upc9lpzhjJlecee3gcY1awxVnfpYb136bLnsnf950T0gekdZLpBz2YEBrtaVSfMb5ofklZXPJjfegN1qDZdeZwtK/dmQfHp+PmUlpFCemjqssIxmYkKVi/C2bWrWatcXB4R+bDkZvd5+ry5aQaLLyr93v0uOSCUJCCCFOLOJu9JSUMszmj76IFSV4K43GHLKTkMvVTV3d2PfpngiKosZssOJw94V0Tde11bBh6xOsW34161+8P6z72Of3UtVwkOKMmdxx1S9wez3oNFo2bH2Sezb8midu2wTA/97wIDZrAvduuItN2zdQmB5sRR2qKzvOHGxFtRisPPjNR8lIzOa29d/kg/5JOfc/91v+kPMw6QlZ3Pf1v1PddIQ+Vy9WYwwZidmoFTWv7XqRV3dtCrt3R08bjR31pNrSefBbj3K06TAWo5X0+CycHgfPvvvEsHXU1d/SWJZXzvqbn8LldpJqS8OgM9Hc2cT+2kp6Hd3BfHrbefCFu7npku9xwwU3ccmSy2nqaKAkqxSD1siHxyr4ySPfo70ndHLQeOolEp3N1Rze/Rr5Zau47GsP0Fi9B3tXEwnpRcQmZrPnzcdorqkkObsUncEclr69r5dNByu4aMZcrp67mB+/smHEfdE/+emvYDIHA9iMrOCPhcysAq75/HdDrtv8wqM0NXy0NNXg9J8J6EZfW1yGzWimqr2Z944NP4lrPBZl5rO2pIytx6r4z+4nBtIAACAASURBVIGxT0YTQghx+ok42NRqLRiN4d3QiqKEHPf5prDlIxDAH/ChUWtRqVQhy/o8//7/ccWZ1zI7b96QYxV/+9RPuHndnWQmZnKo4QCPvf533t0XXHT7ybce4VMrruJY61Hu2fDrwW0uC9MGJsGEB1XHWqrZdXg7uakFNHc28YdnfxWywHxNyxFuvPsarjvvy5xRuISc5DycHgcH6/bx2p7NbN65kaaOxiGfpj/g56f/upVvXXYb+amFpCdkUllTwZNvPcLLH7xAn2v44Qgvbt9IeeEiygsWYzPbqHXU8vz7z/DOvjfZfXh7WJC1cetTHGs5ylUrP09eaiElmTOpbanh1d0v8vSWR4Zce3M89RKpZ+77KosuuIEZiy4iIb0Iqy2VhiMf8OJfb6e68i0u+9r9JGeXoh9m/OlTe7ezMDOXooRULp+9gMf3nHjy0vKVFxP/sbUwE5LSOecTV4Yce/Wlj+1tP9iNPr5gszgxlXWzFuD2+Xjw/dcjmMM+OpfPDg55eLpy/K+REEKI04PKYsmJ1vfSSeGf391Aclwql//sPLrsH02YUFQKz/14Cw++cPeYFnsXp4/8+CTuWH0JOrWGB99/ndeOhE9uOhmkW+P44TmXYtEZeGj7G7xSNfSe7+OlVhQe/tQXUSsKP3ttA5XN9VHJRwghxPQy6WM2J1tjR/ALcWA7xgGx5jg0ag1VDSNPjBGnp8PtLdy39RUCgQBfXHAmZ+UWT3WRwmTE2Lht1UVYdAae2787aoEmgM/vZ29/gPmNpedRlpoZtbyEEEJMH2qdLu7OqS5ENKlUCstKV5Kbks8bFS/jdDtQFDVfu+hmzAYzD794H74hduwRAqC+u5PWvl4WZORyRmYuDo+bQ23NU10sAArik7l15YXEGky8XPUhf9+5Jep57m2uozgxlXRrHCtyiilLzcTh9dJi78Z3gt2nhBBCnL6mfTe6VqPlgW/8k+ykPHocXXxYs5fMxCziYxK55aGvR7QIujj9rMgt5oYFK1ErCi9Xfcj6HW+NOGkompbnFHH9gpXo1Go2Hazg7zu3RG2c5sepVCpW5BRx8Yx5ZMQEV3twej3sqD/Kfw7s5nD7+NbGFUIIMb1M+5ZNv9/PK7s2kRSbTIotnRhTLJXH9vCjf3z3hNsuCnG8ms42DrU1c0ZmHh+21E35QuaZsTYWZOTxWMV7/Lsi8pn7karpbOOlQ3v5sKUBAirSY23k25J4q/ogbX29k14eIYQQJ69p37IpxESy6g0nzdqScUYTnY7xr0U7EbRqNTOT0tjdWDvVRRFCCHGSkWBTCCGEEEJEzbSfjS6EEEIIIaaOBJtCCCGEECJqJNgUQgghhBBRI8GmEEIIIYSIGgk2hRBCCCFE1EiwKYQQQgghokaCzWnMognwu6W9nJvhCTsXqwtw34oeFiV7p6BkQgghhDhdaKa6AKcLjVZHUfn55JYuJyVnDtb4VDY8cBPVlW9FJb9ko5/fL+ulIMZHltXHW00xOL2qwfOfznexIMnLvIRefrrTxPM1uqiUQwghhBCnNwk2J0HxGRew5tqfYopJCDlutNqikl+qyc/9Z/aQYfKzrUXD996zhASaAA/uM+Dxw1dmOfjhGXY0qgDPHtVHpTxCCCGEOH1N2A5CRmM8+flrcLt7OHjwuWGvS0oqJTm57IT38vs9fPjhkxNRrCk3Y+FFXHzjH/B6HFRseYpj+9+ls6UGR08b9q4WvB73hOaXYPDz0Moe0k1+XqnXcsf7Zjx+1bDXX5Tt4vbyPhQV/Gi7WVo4hRBCCDGhJr1l0+dz43b3DHlOpVKj1ZpQqdSTXKroUNQazrn6h0CAp+++IWpd5gMMmgC/WdJLusnPy3Vabn/fgn+EnxIba/R4Ayp+tMDO7fP7aOpTsb1VG9VyCiGEEOL0EXGwqdfHYrPlo9Wa0WpN6HTmUaVrbz9Ee/uhsONarZGsrBWo1Vpqa9+OtFgnlfjUfMyxSbTWHYh6oAlwc5mDUpuPHa1afrDNPGKgOeCFYzoSDX5umu3gZ4v6uOplKx0umTsmhBBCiPEbV7CZkFBCIODH7/cQCETeG280xpOVtQIIcPjwZlyurojvdTKJTy0AoLezacRrr/3+/5GYWcyfblmJwRTL4rVfIWfmMgwWG10tNex+81G2v7SeQMA/ZPrlKR4uyXHR7lK47T3TCbvOh/KPgwbmJvhYmebm1nkOvrt1dD8ehBBCCCFOJOIxmyqVAgQGg8zRjtn8uJiYbDIyFuF0dlBT8xY+nyuS4pw0brpnFwZT7IjXvffCn3jt8Z8PPv7SL17FlpLHnreeoHTJZaBS0dNWizkuGa3OBMCbT/+Gdzb8IexeahU8em43ORYfP95uYmNNZBN9Egx+nlnTjU4d4MtvWtg5Qnd6auocLr/8QQC6u+v5298+FVG+QgghhJi+Im7ZHK6FbSySkmaTnDyLzs5q6uvfn5B7TiWVSuHQzpcGH8en5pNeUE5PewNHP9wScm1j9e6Qx153MMhOzZnD/937FY5UvIbf50WrM3DBF+5ixqKLWLL2RrY+fz9+X+jamGelucmx+GjsU3ihNvIJPm1OhQ01Otblubim0DVisBn8wTFgQuaZCSGEEGKamZKljxRFTXr6YmJjs2lurqClpWIqijHhAgE/zz908+DjuauuJr2gnOZjlSHHh+LzBRdef+Opu6jatXnwuMft5OVH7mTGoovQ6s3ExGfQ2XI0JO2azOCM9n9V6fGOsfv84/5+wMC6PBfLUz0YNIGwJZOOp1J9dG48wyiEEEIIMX1NSbAZE5NDbGw2AImJpVit6fT2NtLZeRi3u3cqijTl/P5ga6VaE/6S2Ltb6etuwxSTQExCWliwWRATbBHe3Tb+l7O+T6HdpRCv95Nt9nOga/iVARoa9vCnP50LTExLtxBCCCGmnykJNru7j+J0tqPTxWAy2TCb00hKKiUxcSZdXdU0NOzA7w/fYnE683uDz1elDB3cOfu6MMUkhJ1XqyDTHAz0anonZsmo6h418Xo/eVbfCYPNQMB32v44EEIIIcToTEmw6ff7cDo7cTo76e6uAXZhMMSRnr6YuLg8dDoL1dWvnlatZQPd0IoyzJJDw3RTG9UBNEqAAOCaoOpy+YL/qmX1IyGEEEKM00kTTjidnVRXb8brdWAyJWEwxE91kSbVQGCtKGOL/3u9KjpcCiogyzwx0Wa2NRhtVvdMj8X1hRBCCDF1TppgE4Itnh6PAwCN5vTapzvg7w8UVWOf4FPTG3wZC2J84y6HUQ2pxv5u+Z6T6u0hhBBCiFPQSRRNqIiPL8RojMfv92C3N091gSZVoH/poNDlhEbnvebgEkWfyhv/PuufyneiVsEHbRp6TzATHcBqTWP+/M+ydOmNFBevGXfeQgghhJh+pmzpI7Vaj0ZjQq+3YjTGY7FkoNOZCAS8HDu25bSbIDQ4JjOCls1njuq4rthJeaKHsngvu9sje1l16gBXFwTX+3ysyjDi9R6Pg6VLb0RRNNTWbuPAgRcjylcIIYQQ01fEwWZKShlmc+rg44GxhhqNmfz8j1q5XK5u6ureHXyckbGIuLj8sPsFAn46O4/Q3LwXj+fUneF85ie/g94UA0BiRgkASZklnHvNj0Ku2755PR1NRwYfD8aajD3YbHYoPH5Yz2eLnNw0x8ENb1hHvS/68a4ucJFk9LO3Q80rdSde0B2C42xra3eQnb2I2NissWcohBBCiGkv4mBTq7VgNIZP4lEUJeS4z+cMOe/1evD5XHi9LtzuXtzuLuz2Vuz2psG1Jk9ls5dfjjU+LeRYTEIm5edcF3Js56v/+FjKyFs2Af70oZFV6W7K4r3cONPBfZXGMaUvi/fy5VIHLp+Kn+4wj3o/oK6uY8Ai+vpaxlxmIYQQQkx/Ee+NLk4+pTYfD5zZjUENP91h4tmjo5tklWv18eBZPcTqAvziAxNPHxn95Kxly75Kefl/UVn5DK+88otIiy6EEEKIaeokmiAkxquyQ80Pt5nxB+DW+X1clOMaMU2e1ce9y3uJ1QX4x0HDmAJNgPj4QgAqKp6OqMxCCCGEmN4k2JxmXq3X8dMdJlTAHeV9XFXoHPbaWTYvfzyrhySjn6eO6PlDxdi63vX6GDIy5nH48Bs0N+8bZ8mFEEIIMR2pdbq4O6e6EGJiHejSUN+n5qw0D8tSvCQYArzdpA0Zh3l+lptfLbZj0QZ4vErPr3eZRj1Oc8DKld9BpzOzcePN+HzjX3ZJCCGEENPPlCx9JKLv+RodbU6FXy7upcutCpud7g+ACri7wsg/Do68zNFQtm37Kz6fW/ZHF0IIIcSwZILQNBenC9DpHnqGe6LBT6tTRlIIIYQQInok0pjmhgs0AQk0hRBCCBF1Em0IIYQQQoiokWBTCCGEEEJEjQSbQgghhBAiaiTYFEIIIYQQUSPBphBCCCGEiBoJNoUQQgghRNRM+0XdP1e+ApVKxTs1h9jf0jDmXXKEEEIIIUTkpnWwadRoOSuvGL1ay7kFpbTYe3j18D5erqqk1z38nuFCCCGEEGJiTPsdhIxaHWdk5LI0q4C5qVmoVCpcPg8b9+3mmQ934PP7p7qIQgghhBDT1oQFm0ZjPPn5a3C7ezh48Llhr4uPLyIlZT7gw+v14PHYcbk66e1tore3nkAgesFfktnK2uIyziuchUqloqKpjv/3xvP4o5inEEIIIcTpbNInCGk0BhRFQVG06HQmzOYk4uOLyM5eQXHxxcTEZEct7xZ7D3/duYVfvvEc/oCf2SkZlCSmRC0/IYQQQojTXcRjNvX6WGy2fLRaM1qtCZ3OPKp0zc17aGmpQKXSoNUa0WotmM2JxMbmotWayMpaRk2Nj56eukiLNqKKpjoOtTVTnJiKVW+MWj5CCCGEEKe7cQWbCQklBAJ+/H4PgcDoe+MDgQCBgAeXy4PL1U1vbz0tLZVkZS3DYkknPr4oqsGmUasjJy4Bu9tFRVNt1PIRQgghhDjdRRxs9vTUUln52GCQOTBmM1J+v5eWlg+xWNIxmRIivs9IVMDXFp+NTqPh3rc20edxRy0vIYQQQojTXcTBZjQm8ng8DiAYeEbL2pK5zE/P4enK7WyvPxq1fIQQQgghxEm2g5DZnAiA3d4ctTzWFM0C4JXD+6KWhxBCCCGECDppgk1F0ZCUNItAwE9LS2XU8ulxBhdzXzerHINGG7V8hBBCCCEEqHW6uDsn4kZarRGbrQCfz017+8Exp8/IWIzZnExLyx66u6M3aWdfSwMlSWnMS8vmguIyZialUZiQwoHWRjx+X9TyFUIIIYQ4HZ0ULZtJSbOJjc2hp6eO1tbodm/X93Ty41ee4Y3q/ejUauakZnJe4Sw0ijqq+QohhBBCnI6mfG/01NT5JCSU0NNTx7FjW6K6gxBAQXwy31q+BrvbxT8+eJsDrU0027vpccle6UIIIYQQE23Kgk2VSkV6+kLi4vLp6qqhru6dMa3VGamvLz0Hs1bHt597BK/siy6EEEIIEVVT0o2u0ejJzT2buLg8mpsrqK19e1ICTQB/IIBeo2V2Suak5CeEEEIIcTqb9GDTaLSRn/8JDIY4amq20NJSMan5/2vXVgIEuGnpueTHJ01q3kIIIYQQpxuVxZITUZNiSkoZZnPq4GNF0aDXx+D3+3G5OgePu1zd1NW9O5AdM2euQ1E0+HxuvN7hx0l2dlbR2ro/kqKN6OIZ8/hM2WLaHXa++8LjOGQXISGEEEKIqIh4zKZWa8FojA87rihKyHGf7/iAMoDf70VRNKjVOtRq3bD3V6sNkRZtRBv2fcDCzDwK4pMpT89hy9GxL9UkhBBCCCFGFnGwWVv7NrW1b4853f79/xdplhNqYPa5xydrawohhBBCRMuUL3002fQaLdfMXcK8tGwaejrZ1Vgz1UUSQgghhJi2TptgMzsunlV5MzgrbwZGjZb9rQ3c/c5mXF7vVBdNCCGEEGLamtbBpkVn4LLSchZk5JJktgLQ2tfDP3a+zetH9jE5iy0JIYQQQpy+pnWw6fS6WZFTiEVnoKKplperPmR7XTW+KO9SJIQQQgghgiJe+uhUMSMpjcaeLjqdfVNdFCGEEEKI0860DzaFEEIIIcTUmZLtKoUQQgghxOlBgk0hhBBCCBE1EmwKIYQQQoiokWBTCCGEEEJEjQSbQgghhBAiaiTYFEIIIYQQUSPBphBCCCGEiBoJNoUQQgghRNRIsCmEEEIIIaJmwvZGNxrjyc9fg9vdw8GDz0U9nRBCCCGEOPlJy6YQQgghhIiaiFs29fpYbLZ8tFozWq0Jnc4c1XRCCCGEEOLUM65gMyGhhEDAj9/vIRAIRDWdEEIIIYQ49agslpyIoj2VSgECg8HiaMdeRppOCCGEEEKceiJu2QwE/JOaTgghhBBCnHpkgpAQQgghhIgaCTaFEEIIIUTUSLAphBBCCCGiRoJNIYQQQggRNRJsCiGEEEKIqJFgUwghhBBCRI0Em0IIIYQQImok2BRCCCGEEFET8Q5CKSllmM2pg48VRYNeH4Pf78fl6hw87nJ1U1f37rjTCSGEEEKIU0/EOwhptRaMxviw44qihBz3+ZwTkk4IIYQQQpx6Im7ZFEIIIYQQYiQyZlMIIYQQQkSNBJtCCCGEECJqJNgUQgghhBBRI8GmEEIIIYSIGgk2hRBCCCFE1EiwKYQQQgghokaCTSGEEEIIETUSbAohhBBCiKiRYFMIIYQQQkSNBJtCCCGEECJqJNgUQgghhBBRI8GmEEIIIYSIGgk2I2AxwO+uVzh3nmqqi3LKUxQ1ZoMFizFmqosyIosmwO+W9nJuhifsXKwuwH0reliU7J2CkoVKMPi5qtDJX1b1kGbyT3VxhBBCnOY0U12AU01KnIrffwkKUiE7Cd6qBKd7dGnjrQlcvuIaVsxajc2aQMWRXfzi8e/T3dcV3UKfxO6+8SFKMmex/qUH+OerD011cYaVbPTz+2W9FMT4yLL6eKspBqf3ox8bn853sSDJy7yEXn6608TzNbpJL2Opzct/FTtZmeZB3V+0lWkeHq3ST3pZhBBCiAESbI5Bqg0e+KqKjHjYdghu+Wtg1IHmwuKl3PLpHxNrihs8tqB4CZ8+61r+/MI9USrxyU2v1VOQVgLAu/venOLSDC/V5Of+M3vIMPnZ1qLhe+9ZQgJNgAf3GfD44SuzHPzwDDsaVYBnj05OkJds9HNzmYNV6cE3Y2WHmpfrdLzeoKWmVz0pZRBCCCGGM2HBptEYT37+GtzuHg4efG7E6/X6GBITZ2I2p6JW6/B6++jurqW5eQ+BwMnX9ZdghT9+VSE9Hl7ZHeD7/wzgGWWP6YpZq/n+VT/H7rRz38bfsPfoLi5evI7zF1waEnyeipLjUvjtl/7MB4ff464nfzKmtCWZs9CoNbR2NVPVcCBKJRyfBIOfB87sId3k55V6LXe8b8bjH3r4xPoDBlqdKm4v7+P28j68AVXUWziLY338YXkvNr2fl2p1/POQgcoOCTCFEEKcPKakZdNqTSMzcwWKosbnc+Hx9KDTxZKYOBOjMYGamjfx+8PHxU0Vgw5++0UV6fGweVeA2/8RwD/KeDgvtZBbr/wZXfYubvnLV6luOgzA89ue4fwFl7Kn+oMoljy6VCoV/3P5naTYUtlx6P0xp7c7e7l3w10ca6me+MJNAIMmwG+W9JJu8vNynZbb37fgD5w4zcYaPd6Aih8tsHP7/D6a+lRsb9VGrYw/PMOOTe/nR9vNPDcFXfdCCCHESCIONvX6WGy2fLRaM1qtCZ3OPLoMNQayspYTCKioqXmTnp46ALRaM9nZZ2I2J5OevoDa2nciLdqEu/mTKkqzVOyogh88MvpAU6vR8r1P/wSf38N3HryB2taawXPz8xfS3NnEGxWbo1Tq6Fu3/Grm5S8gEAiw/dC7Y05f1XDgpG3RBLi5zEGpzceOVi0/2GYeMdAc8MIxHYkGPzfNdvCzRX1c9bKVDtfEz8WL1QUoivXh9MGm2ugFtEIIIcR4jCvYTEgoIRDw4/d7CARG900cH1+ESqWhoeH9wUATwOOxc+zYFgoKLiAmJhut9gM8HkekxRtUsmAta7/4a5x9PTh62ulorqaldj9HKl6n4fDIrYrLZ6q4dJGK9l649e/+UXedA3z+vK+Sn1rIH579fyGBZootlU+fdS0/e/Q2nG7n4PHS7DLuuOoX+Px+Pvvri0PuZdAaeebO13C6HVz249Uh9f2ZlddxxZnX8reX/8Qz7zxOvDWRdcuv4szZZ2OzJrDr8HZ+8dgd2J29w5Z1XsFCLlhwKbNz5hJrttHYUcez7z7Bs+/+O+zar118M5ctvXLwsUql4t+3vxRyzZ4jO/nvB28IOWYxxjAndz5lefMpyyunIK2IPpedK352Pj7/yBW7qGQZlyy5guKMUvRaPdVNh3lt94s8887j+IcYejGeelme4uGSHBftLoXb3jMN23U+nH8cNDA3wcfKNDe3znPw3a2j+zE2Fl1uFTW9arItPj6Z6+aJwzIRSAghxMkn4mCzp6eWysrHBoOegTGbJ6IoauLjCwkEvHR11YSdd7t7sNsbsFoziI3No7W1MtLiDdLqTTh6uzCYY7HaUknOLqVkwVpWXPZtGo7sYtP679F87MMh06oV+PalwSDjno0B2ntGn29uSj6Xr7iGyprdbNj6ZMg5qzGWezfexfsHPmq9VSsavnXZrSTGJvP2h6+H3S8/rQhFpXCofn9YYD8rp4wYUyyN7fWsnvsJbrr0Fkx6Mz6/D61ay+KSFVy0aB2PvfHXsPsadCb+Z90dnDXnXDw+D0ebjuD0OMhJzucbl9xCe08bb+19NSRNS1czG7c+RVFGCSWZszhUf4B9xypCrqk4unPw/7UaLXffuJ6CtCJUKhVOjwO7045a0VBZs2fEQFNR1HxhzVe48qzrCAQCHGmqQgXMyCylNHsOZxQu4vt/+++wdJHWi1oF3yoL/tC5p8JAe4Stkr/8wMjSZA+r0t3MT9SxMwrd6T/dYeLeFb38d1kfNb1qtjbLnD8hhBAnl4i/mSKZxKPXx6JW6+npqR9yTKZKpeD1OvqvnZh1Fyu2/JuKLcHWOa3eTHxqHlkli5i/+lrS8ubymVseZf0PL6S7rTYs7VmzVOQkQWMH/GfHKPtQ+12+4rOoVCoe2nRvWHB4qH4/h+r3hxxbt/wz5KUWArD36O6w+xVlzADgYN2+sHM5KQUArCpbw+IZy3j4xft5cftG1GoNd13/AIXpxaTa0sPS6bQ67rr+fkoyS3n5g/9w38bfDC7DdM3Z1/O5c7/MmvILw4LNx9/4GwC3XPFjSjJn8dTbj/DSjuEnhXm8Hp548+80dtTT0F5LR287nzvvRq5Z/UV2Vo081vO2K3/Cyjnnse3gVn71xA/o6G0HYFbOXH523e9YPONMVpWdx2u7Q1tXI62Xs9Lc5Fh8NPYpvFAb+TjINqfChhod6/JcXFPoikqw+UGbhh9uM/PThb38YlEvl26Kpccj678KIYQ4eUzqou5arQVgMKAcoFIp2GwFFBVdiM1W2H+tacLz97jsNB2tYNuLf+HvP7mM+qodGEyxLLv4a0Ne/4ny4L+PvOHH6xt9PvHWRM6edz6HGw+x+8iOUaWJMcfh9wczqRwq2EwPBpuHGkKDTYPOQEpcGgBZSTl86fdX8ey7T/S3Hvawt2YXAC1dTWH3/Ozq6ynJLOXR19fzy8d/ELLe5+adGwGwWRKGLXNp9uz+8u4Z8fm9susFKmt2DwaK5YWLAdh56L0TpltQtJiVc85jZ9X7/OBv3xpMD7D36C6e2vIIAKvLPhGSbjz1siYzuITQv6r0eMfYff5xfz9gAGB5qgeDZmw/WEZrc52W1xq0WLQBzkg6eSbWCSGEEDDpwWZw3JrX6wpmrqiJjy+iqOgi0tMX4nL1UF//fv+1xqiWxdnXxdvP/h6A3Fkrh7ymIDUYaOyuHtu9P7nsSrRqLU9t+deo0/xl03043A68Pi8H6sOHDxQOBJsfaxHNSspFUSm0dDVx84M30tbdEnI+JS4FgPr2YyHHc1MKuOLMaznafJiHX3ogLL+WrhZuXf8NHnj+d0OWN9YUR3pCFl19ndS1hQ+JOBGT3kxJxky67J0caaoa9jpFUfPltd8G4KFN9+LxhXe37+oP5rOSckKOR1ovAAUxwVb73W3j75Ku71NodymoVZBtjs6SXoUxPgpj/DQ7lKi0ngohhBDjMakDvNTqYHYqlUJCQjGJiTPRaIz09tZz7NgWHI42jMZ4AHy+iW+h0epMpObOxpqQjt5oRasLtjrFJKSjqDX4jwtm1Apk9jfq1bQMdbdwVmMMT35/MypVMEi9ed0d3LzujiGv3V9bydfvu27wcXZyHmaDhX3HKnB7QleK12q05CTn4fK4qGk5GnIuNzkfgH3H9uIcYkJVXkoxEN41f+05X0Kj1vDXzX8cbFE9nt/vY9uB4WeYz8gaaNXcNew1w5mbvwBFUbOz6v0TTiybmTWb3JQC9tfuZX/t3iGvGWiNNRksIccjrRe1CjL7g8KJWhC9ukdNvN5PntXHga6JuecV+S4WJ3spiPWSoPezuU7PvXsNdLmlC10IIcTJZVKDTY+nD4DExBlAgJ6eelpa9uJwfNQ1qtHo+6+1T1i+ydmlrLjs2+TNWT0Y8H6cTm/GeVw3slEHGjUEAuAaZdzrD/h5+YMXOHf+BYPHtu57k9aeFjSKBpVKjVpRUCsa9n4sSJuVPRcYerxmXkohGrWGg/X7wgLDvNQiAA7UhU9ySrNlkGJLpaG9NqS7WK1oWFS8FIA91TvD0o1Gac6c/vKO3IX+ceWFCwFGHK9Zml0GQPUJWj9TbRkAtHe3hhyPpF4AjOoAGiVAAHBNUEOkq/8lU09gP8I5GR7KE4NvzMY+hcY+FXbPpHZUCCGEEKMyycGmo//fPmpq3sDp7Ay7Rq0Odp+73RMTbOaXnc1lX3uA7rZatknecAAAIABJREFUNv7xJhqrd9HVWodKpaA3xfDV376HRqtDUYe2OPU6oaMXbBbISlRR1TjyeDu7s5fDjQeAC3hjz2bm5JVTmD6Dh/96P1UNB0+YtjQnGFjtrQkPNge60IeaHFSYHtzu8VB9eFA1ryAY1G0/GDouMiEmAYPORFdfJ529HSM+r6HMzAoGm5VDlHck8/vLNdJ4zQRrIgANHQ3DXpOTnDtkOSKpF4Ber4oOl4JN7yfL7Keqe/wtkdnWYLRZ3TNxO/t86x0zmSY/cxK8XJ7n4voZTlale/j8a1ZcPmndFEIIcfKY1KYQtzu4dpBarcftHnrNR6s1OKnDbm8ed35qjZa1X/g1iqLwz5+vY/+25+lqDa7tGQj4cdo7CfS3FKqU8EDgaEswwCxIG/3EjpLMUgBe2P4sX7/vOjrtnfzvl/88eHw4xf2zzY80hgalWo2Wc+cFW0o/Pl4zWLZgd/CBIQLR8sJFAGw7GLpAvk4THD6g1+pRK5H93ijOmDlsmU4k3ppITnI+TZ0NNHTUnfDage5vy8e6yAeoFQ0XLvoUgUCAl3aGzoaPpF4G1PQG/ywKYsYwK2wYRjWkGvu75Xsm7s/N6VVxqFvN00f0fP51KzW9agpjfJTFj7/MQgghxESa9GDTbm9GUdTYbPlh5zUaAxZLOi5XN7299ePOLzmrFFNMAvbuVhzDtOD5+9d41GjDl7h5r39zm3VLR19NA0HO4cZDNHc28t2HvkJHTxs/vOZX2Czxw6ZLsQWD7ONnWxt0Bn5w9S+Zkze//56hu+0kx6UQY4qlqaMxZCb5gHn5CwAGZ14PaO1uwR/wY9AaB1sAxyLemoDZYMHpceBw940pbVn/c6mqH3nnoNrWo/1pyoc8f+nSK0i1pbN55/Psr/1oUlWk9TLgvebgJJtP5bmHPD8Wn8p3olYFlyjq9UanxdHrV6FVAnj9Kg5O0JhQIYQQYqJM+iCvtrZgS1hy8pzBVkwIzj7PyVmFoqhpbR16kfWxctiDgYbVlkrxGeeHnItNyuaSG+9Bb7QCoNGFL7X07Hvg9kJ5AczNHV2gEGe2AQx2T3f3dXHb+m9hNcZy44XhC49DsIVOpwkGu2cULUGlUjEndz6/+/JfsDvtg/dq6WpCq9Fi7m/pK0jr714foqs41hxHnMVGr7OHzt4OLMYYtJpgEOV097Gjvwv5tit/Qn7/+p7Hl2dm9hxWz/1E2H0hOMELQKvWhqxTaTZYWF66imtWf3HY+slOygXAYrSi9N9HpVKRkZDNmvKLsBg/Wl91+8Gt9LnsFGfM5Iozrx08rlFruOLMz3Lj2m/TZe/kz5vuCckj0noZ8MxRHW6fivJED2XxY9gy6mN06gBXFwRXXnisyhDxfUbyjVkO0kx+7tlroFMmCAkhhDjJRDxmMyWlDLM5dfCx0t8dq9GYQ3YScrm6qav7aFZzT08dzc27SU4uIzt7JR5PL36/F70+FlDR3n6Qzs4jkRYrRGdzNYd3v0Z+2Sou+9oDNFbvwd7VREJ6EbGJ2ex58zGaaypJzi5FZwjfTrCpM8Bjb8K1q1XcdDF86V5OuC+6oqgxG6w43H0hu+LUtdWwYesTrFt+NetfvD+s+9jn91LVcJDijJnccdUvcHs96DRaNmx9kns2/JonbtsEwP/e8CA2awL3briLTds3UJgebEUdqis7zhxsRbUYrDz4zUfJSMzmtvXf5IP+STn3P/db/pDzMOkJWdz39b9T3XSEPlcvVmMMGYnZqBU1r+16kVd3bQq7d0dPG40d9aTa0nnwW49ytOkwFqOV9PgsnB4Hz777xLB11NXf0liWV876m5/C5XaSakvDoDPR3NnE/tpKeh3dwXx623nwhbu56ZLvccMFN3HJkstp6migJKsUg9bIh8cq+Mkj36O9J3Ry0HjqBaDZofD4YT2fLXJy0xwHN7xhHfW+6Me7usBFktHP3g41r9RFZ0miszM8XFPk5OU6LY8cil5AK4QQQkRKrdPF3RlJQputAIslFa3WiFZrHJxFrlKpBo9ptUa83j66ukKX6+nra8Hl6kanM6HVmlGrdf+fvfuOb6s6Gzj+u9rT8t7bTpy9E0gCJIxAgAClrBbKKKOsUlo6KC+lpeWlvLSUDgq0lLZAy14FAmWPQAjZe0/b8d7WtOb7h2ITxVu2LCc838+HD9G99+g890qyHp17Bm53M7W1G2hq6t7Hbih2r3uXYMCH2ZZKUkYRRksS9RVb+eDpX7DmvX9QOPEEUrLHsHPVUlobus8XufEAnD4NxmQraNSwuo9xPgoKl578bRRFxTMf/yNiX11rDefP+wa7a3awr4fBQjsPbmFc3mRMeiO7q3fw0Ou/5eXlTxMKhdCoNBRnjWFf7W4e++8fWbblAwAumH8peWmFvPTZ093murS72phSNAOj3kRF/QH++J/72Lhvbdf+Nlcrn2x6jwSzjRRrOumJGVhNCVQ1VfLe+rf43Su/4u21b/R4niFCbKvYxNicCaQmpGHQGdhbs4dXlj/Db1/6JSt3Lu/1GlXU76cgo5g0WyZGnYFWZxufbf2If7z3KH9580Fanc0Rx++q2s6mA+tIsaaRmpBOVnIWBxsreXn5s/zxP7/G7u6+huhQrkunjU1aFuV6GWMLoFFgdcPgksUpyX7unuXEF1S4bYUl6iUv+3P/cU4S9SHuXG2hJUZ1CCGEEEOhWCwFsVnW5BgyIU/hrzcrGLRwz/MhXl/V+yV7+idvkJ6YyYX3LqLN+eVoe5Wi4s1fLedvb/9pUJO9i/iZkBTgLye2Y1CH1yB/vVw/oHKF1gB/O8mOTRfivg0mXt0/sHKDpVGFWHZOGxpViJs+s7KmQdZFF0IIMfpIU8gAbKsM8fOnQwRD8D8XKSyZ3fuxtS3hgU2dyzF2spkT0ag17K3pf2CMGB22taj5xRozwRDcMd3FkoKOfssUWQM8PN+BTRfi37sNMUs0ITwwaPWhBPPe2U7mZshSlUIIIUafqG+jf9UcqIe6FlgwSWHhJAWHJ8SW8u7HKYqKeRMWUJhRzLItH+DxulGp1Ny85EeYDWb++e4jBHpYsUeMTgfsampdKhZk+ViQ7cPpV9jS3HML4sQkP38+wUGKIcQr+/U8uKn7oLPhtqZBw5SUAAXWAGfmeTkuw4/Tr6LapSIQksFCQggh4k9uow/SWbMUfn4JqFUKr6yA+18JRgwa0mq0/OWWp8lPK8LubmN7xVZyU/NITkjl9r9/N6pJ0EX8nZXv5a4ZTtQKvLJfz282miIGDS3O83LndBd6dYgX9ur53SYTI/XBUilwZp6XK8Z6KDo0gbzLr/BprZZn9xjY1iLTIQkhhIgfadkcpN3VsLlcYcFkhbV7Qt0GDAWDQT7c+A5ptnQykrJJMNnYVrmZX/77J30uuyhGt91tarY0a1mQ7WNdo6bbgKHihAALs3w8vM3IX7YbRzS20KH4XtqnZ12jBlAoTAgwPjHAmxU66tzSW0YIIUT8SMtmlBLNCq1OuXRfNYm6UK9zWaYagjR6Rkdip1OHmJHq54u62Ey5JIQQQgyUJJtCCCGEECJmRkczjBBCCCGEOCZJsimEEEIIIWJGkk0hhBBCCBEzkmwKIYQQQoiYkWRTCCGEEELEjCSbQgghhBAiZiTZFOIYYzTouPXaxcyeVhLvUMRRzmIy8KMbz2bC2Jx4hyKEOIr1vMizEMPsmht/yfwFS7ptf+iB21i/5pM4RNSzs675HZPmX9Bt+ysPXcee9e/FIaLBSUo08/3rFpOTmUxGWgKbtpXT4fUP+Xl/+NvLmXLcGP5+/2sse3Nt1M9z4lkzuPanX6O6vIE7Ln9oyHENl+E6v2PNKSdMZFxpNmOKMnnihWWsWLO7/0JCCHEESTbFiLBYbbS1NuFwtOK0t1NQXIZeb4p3WN0YLYk42xpwO1pwO1vJLJiIVm+Od1gDkpJk4cc3nU1qcgI79lTz6JPv95to/vQP32b8jCIArlt0D94OX0xjNBh1ALgcnpjWI/o20Nf99XfX4g8EOP/MWVz9jQWoVSo+W7VzJEMVQhwD4pZsms3ppKSUYTAkolbr8HhasduraWraQSgkixoda/74m+9HPL7nt8+Tk1cap2h69/Ifr4l4fPU975CaUxanaAbOZjXy45uWkJpsZe2m/fzt6Q/x+4P9lgsGw8cE/MGuf8eSzhBePtPZ7o5pPSedPZNrbj+PTSt387sf/yumdR2NBvO6v/XBBlrbXVx18YlcefGJBIJBaeEUQgxKXJLN7OxZJCWVEgqF6OhoIxj0YzSmYjKlkZCQT3n5xwQCHfEITYijjl6n4ZZrziA12cqajft47N8fEgwO7Adb53HV5Q34fYFYhglA+e5q3np2OZV7a2Nel+jdYF/3z1fvIhgMcs03F3LlRSfR3OJg596aWIcphDhGjHiymZRUQlJSKW53IwcPfo7X6wJAqzWTlzcPozGFjIwpVFevHunQBKAoChqtloA/QDAY++RDDN03z59HYV4aO/fW8PgzHw040QQIBsKtWhV7RiZx2LJqL1tW7R2RukTvonndv1i7B5vVzEXnzOH6y0/lFw+8hF26QwghBmDEk8309MmEQkEqKz/H53N1bff5nBw8uJySkiUkJRXT0LANn8850uENu8SkVGbMPpmikknk5o/BmpBIKBTix989u8fjk1MyOPPcKykunURWThE1VQfYu2sj/3npMVzO9m7H/+x/nyQ3r4Tbbz0PkzmBs867ivETZ2OxJtJQf5BPP/wP7/33OUKhnm+VmUxW5p10NhOnHE9ewVhsthTUmvDb4onH/pdlH746LHEOlVqt4cxzr+S4+WeQmpZDY0MV+3Zv5q3Xn6SupmLY64tWQnIWc868gaziaaRkldJUs5fqvWtZ/p8/4HG19VpOUamZcuIlFE9eQGrOWKzJObgdzbQ2VHBw50o+e+0PhHpI/iePz+eEOWW0Ozz89V8fDOjW+eE63xcVewbe0piZl8IZF8+jaFwO2QWpNNa08snStbz78heEDkt0NVo1j7//cxRF6fYcO9Yf4L5b/zGoWAfiwRd/SEqGrevxlOPG8OSyX0UcY29z8t1z7u/1OQZ6fodTa1Sc9c0TmXvaZFKzkmisaWHvtkrefOYzaiubIo7NLkjjvn/dErGtqb6d2y58AICkVCvHL5rK5DmlGE06fnn9Y0OqryfRvO4A73y8kdKiDKZPKuCKC0/k4SdG/6A5IUT8jWiyqdOZ0GgMuN0tEYlmJ6/XhdNZg9Wag8GQeFQnm8kpGVxy+Q+YOecUVCp1xL5gMICiKN36ps6ccwrfvv4uTOYEGuoO0lhfRWHxOIpKJjBj9in8+cEfcmDf9ogyZnMCOr2RC775XY6ffyYKCk1NNRAKkpNbwjeu+CF6vYk3Xn28W4wTJs3hhlt/jcWaRCgUwt7eQmNDNSig15tQqXqeGSuaOIciNS2LG279P4pLJ9He1kJt9QEyswvJyS1h+uyF/PH+H7B396Zhqy9aY2cuZvG378dgstHaUE5bYyWZhZPIKprCmBmL+c+fv0Ptgc3dymUUTGLxVfeTUTCRgN9He9NBQkEf1qRMrEmZ5I2dwxdvPYKvI7Kfo1ql4pLzjgfg5aUrabcPvh9kMBB+Dw406Vh4zkyuvC08q0BzfSsAOUXpXHrLmeiNOl5/6suZBdQaDW898xk6gxa9UYfeoCMjN5nCsdmDjnOgdm0qR1EppGcnUTw+l7ZmB9vX7484xuPqvYvOYM6vU2pmIjf/8mKKx+fS3uKkpqKBrPw0corSmXHieH5/+9Ps2VrZdby3w8c7L6zAZDVgthiYceJ4zBYDWp2GC645hUUXzkWjDf/NaGt2DLm+ngz2dT/cv1/6lEnjcpk+uZCxxZns2tf3c2RmTubCC/8GQHt7NU899fVB1ymEOLqNaLKpVhsO/av31hevtx3IQa+3YbdXjUhcw624dBI/uvMRDEYz+/duZc3KDzmwbysNddW4XHZ8Pk+3RDOvYAw33HofbS1N/O7XN7N/7zYAbIkp3PyD31BaNo1rbrybX9x+acTtba83/MVZUDiehx/8CVs2fk4g4Een03P1jXczZ+7pnPW1K3nr9ScIBL4cmazRaLnptt9gMll59YW/8ME7zw+oRTLaOKOlVmu49fY/kpKaxcO//wlrV34AgFar5fJr7uCEhedx9Y2/4M7buk9XNJLS88Zz7g1/xtHWwAu/u5za/eHk12xL42s3P0pO6SzOuuYB/vmLsyJaKM22NC76wZNodHrefuIOtix/keCh18mWmsf1v/k0fGCoe+vg1In5ZKbZaGpx8MW6PVHF3XnLvXJP3YCO1+o0/Olnz7Jl1R4CgSA6vZZr7zif406ZxJLLTuDNpz8lcOgWbYe7gxf+GtnyNW/RFK6/68KoYh2Iv9zzEhAeIFQ8Ppfy3TU8+ssXB1x+MOcHoFaruO3+b5GSkchDdz3Hmk+2HXoeNVfcdg4nnTWDa+84n59+609dZRprW3nmz//tKv+Pj+5Gb9Byx5+upmhcNnu2VrJny0GqDtTTUN0cEV809fVksK/74drsbpav2sXCeeM5Y+GUfpNNRTn8R6sM/hTiq2hEJ3X3eh2EQiEMhiR0ut6mvQmHFAodnf0FzRYb37/9D2i1ev728F3cc+cV/Pf1J9i+ZTWNDVW4nO34vN6IMoqicOW1d6JWa3j80Z93JXAAba1NPPh/38PlspOTV8rcE8+KKNuZQL7y/CNsXLes67HX28EzT/wWCLdSJqdmRpQrHjMJk8mKvb2Vpa8+PqBEcyhxRmvRmd8gJ7eEV59/tCvRBPD5fDz1+H00N9aRlV1Iadm0YakvKorC6Vf+GpVaw1uP39aVaAI42xp48cGr6HC1k5pTxsS550cUPfvaBzElpPD2P3/KpmXPdiWaAK72hog6jnTcjPCk7e8v2xyRAA2G29VBTUUj9raB3UV47+WVbFyxq6s+b4ePp//0FgB6o56UjMSo4hgtBnt+p180l5yidF7++wddiR+Azxvgyd+9QVN9O1n5qYyZnN9jfYFAkFAohKJS+PydjXzvvN9y781/5/lH3+Gz/65n58byYa2v02Bf9yO9/dFGACaPz0Ov67vN4vBuFDLTiBBfTSOabAYCXtraDqAoKvLzT8JoTAUUVCoNVmsWBQULSUkZC0BHR+/920azRWd+A4s1iQ/fe4EVn741oDK5+aUUj5lMVeUedmxd022/x+1k2YevAVA2fnrEvs7kRKPp/ge/va2Z9rYWAFJSMiL21dceJBDwY01I5NKrfoxeb+hWfjjjjNapi79JKBRi2Yf/6bbP7/exeePycH3jhqe+aKTnjiO7eDqNVTup2LGi236vx8HGZc8DkFc2p2t7Wu44CieeSEvdfnasXtpnHT3kmuRkJgOw58DgW6c6PX7fq/22gvWnrdlBe0s4aUnOSBjSc41GfZ3foguOJxQK8cnSdd3K+X0BNq/cBUDZ1IJenz9wqJ/tqo+39Jv8DUd9MPTXvbHZTrvdjUqlIiPN1uexNTWbeeyx03jssdN47rkroq5TCHH0GvEBQjU1a1GrdVitORQXnxb+Va+E+zHW129Fr7ei1ZoP3U4/+kyeNh+gx2SsN3kF4QS7pvpAr8ccrAh/iWRmF0Zs9wfCkzEf2S+0k8vZToItqdv+1pYGHvvzXVx13Z2cesYlHDfvdN777/N93k4fSpzRMJospKRm0trSQHZuETqdHq1Wh1anR6PVo9PqsCWmAKDRaodcX7TS8sYD0FTT+yjrhoPhPqzJmV8uIZldOuPQvh0DqCUy21SrVKSlhBOfuob4f1acdjcJSeZe+/ke7Xo6P6NZT0qGjZZGOzmFqej0WjQ6NTqdFo1Wg06vwZZsAUCj7f1PbSAQQKNVo1b3fe2Gq77hUlPfSoLVSFZ6IhVVvQ9KCoUCeL3d+54KIb46RjzZDAb9VFR8itGYgsmUiqKo8XrbcThq0OuTyMycisfT2jUl0tEmKTkdgOamgbc2ZeWEV/Jw2HtPGjqfz2yObFnpHGSuUvXQ9AWE+ugjtXrFu2zfvIqzv/ZtTjnjYs6/+AbOWHIZr7/8Nz585wX8/shVRYYSZzRycsOJWWJSGnfd+1S3/QG/n0DAh8vZjt8X25Vv+pKSFZ6c3u1o7fUYe3N4ihmD+ctWIIMx/O9QFJOp63Qa1GoVoVAIn2/oy1GKwcspCt8tSEq18ou/Xt9tf8AfxO/347S78ffxGnW2bKr6STaHq77h4js0P2d/cQshRNxWEHK7m3C7v/w1rFJpyMmZBUBDw7beio16fn+4P2Zaei7l+wfSYgVORzh5S05J7/UYqzUJgOqD+yK2d05holJH91I6HK08/+/f886b/2LRWZdy8mkX8o3Lb+OU0y/igf+9mcaGLwdpDSXOaHT273I62vjZjy7C5/Ph9/sI+H0Rg53izeMMd/lISM7s9RijNXzLu6n6y5VXWhvC/fFSsscMuk63x4vd4cFqMZCeaqOqtrn/QmJ4db4/293cccVD+H0BfL5A+EfQIKag6lzBp99W4WGqb7hkpod/UNbW9/4jSwghYIT7bPZGpVKTk3Mcen0i7e2VtLePnnkTB6u2Ohx7QfG4QZQJJx3ZuSVHjNz8Uudt6YOVkaOOg4eSzZ7mMhyM1pZGXnz6T/zklnPZtX096Rl5XHPj3cMWZzTqaisIhUKYLTYSbMm4nO14O9yjKtEEaK4NJ9Yp2WW9XpeUQ7fPGw5+ua50XflWQqEQqTljKZlycrcy/Q2mqG04NDVPVlJUcR/LOq+d3qCLWR11B5vD788EI7ZkC067G6/HO+jEr3Maov5aCIervuGg12lJTgzfsq+tPzr71wshRk7ck02dzkpR0SISEvJwuRqpqloZ75CGZN3qjwA4ZdFFZGb33Um/0/69W/B5vaSmZTFzzind9mu1Whacej4+n5cvPns7cuehL9XekpzBcjhaeev1fwJQWBKZMA8pzmhisbeyfcsqAC698icYTZYon0lBUdSH/hv+t3zN/g34fR3YUnMYO3Nxt/0arY6pC76J3+dl2xevdW1vbShny/LwtDxLrv8TUxdeiiUxA73RSu6Y2Zxx1f/1We/2XdUALJg7fhjP5thQf6gPYW5ROlpdz/2Zh8re5mTb2vAPjcu+dxZGsz6q5+ls2eyvz+Zw1TccFswdh0qlYve+Gtweb5/HWq1ZTJ/+LebOvYGxY08foQiFEKNJ3JJNrdZMdvZsSkvPxGAIt2iWl39MMDi6Wq0G69OPXqOyfDdGk4Wf3fMEZ557FSmpvd9ehfC0QW8vDfdJvOK6O5gw6csRy0aThRtuvZ/klAzeeu2f1NVGtvp2tuAoDK1ls1NB0TjO/fp1AGzZ+MWwxRmtp5/4LQ57C2UTZvDrB1/h65fcxNjx0weVeE6ceB4337ycm29ezlln9Z3ARcPZ1sDqt8OrvJx+xb0UTJjftU9vtHLuDQ9jTc5i5VuP0FIXOcH4R8/dy77Nn6A3Wjnjil9z04MrufXhzVx6x4skJIcnP/d5XXg93QdYfLpqBz5/gLKSLEoL+36PfdVU7KnF5w1gTjDy/fsuo2RCbkwGL/37j29hb3Mybloh9z99KxdedyplUwsGlQh2Lh05kPiGo76h0mrUnL5gCgAffNZ/lyefz83cuTcwc+ZVTJhwbqzDE0KMQnHps6nTWSktPRNFUREIeKmtXU9r6/7+Cx4FAgE/D9x7Azfeej/jJs7ioktv4aJLb6G9rZmW5no8bheKovC3R35OU0N1V7k3X3uCgqLxTJk+nx/97FGam+qwt7eQk1eCRqPlw3df5M3//LNbfV03Wgd5G336rIWcf/ENdHS4CQWD6PQmklPSsBzqc7lz2zqeeOx/u5WLNs4rrv2fiC/TzoFUp55xCVNnnNi1fdXn77LtUGsmQE3Vfu6962ou+/ZPmDR1LkvOv4Yl518DgMfjwt7egsft4p47L+82oKmTXm/u+nd/A89Ov+LeiJH7lqRwEjfj1CspnXpq1/btq96gfNvyrsdfvPkoGQWTKZ6ykEt+9DT25hqc9ibScspQa7Ss//BffPHmw93q87jaeOn3VzJmxhnklM7CmpRJc+1eKnaswNnWwLW//pDW+p4T95ZWJx9+upUzTp7CRefM4f6H3xjUuuixZku2cMG1p0Zsy8gJzx6QmZ/C1T85L2LfhhU7WffpwPo598ft7ODRX77Ad++5hEmzS5k0u5QOdwfNDXbcTg8P/+IFGmuH3tewuryBe258nMu/fzaT55RyzuULOOfyBQB4XF7srU48bi93f+cv+A8NqMkuSGPxJfO6nsNsDU879vVrT8HR9uX7c+2n29m4YteQ6xtuixZMJtFmYn9FA2s39d832+Np5eDBdeTnz8Fmy4tJTEKI0S0uyabXa8dur6ajo52mph0EAn3fhjna2Ntb+c091zNpyvHMPO5UxpRNIyUtk4KiL29LO9ojv+i8HW7++JtbWXDq15k55xQKisdhtlhZv/ojli9byqb1y4+sJqzrNvrgks0EWzK5+WMOPUUIt9tBQ10Va1Z+xJqV77N9y6oe+wxGG+f8k85Bq+vef27C5OMiHm/furrbMXW1FTx433fJyili6owTKCyeQHpGHknJ6VgTkjAYzL0mmgBa7ZcLCPS0TOrhJs2/EI22eytR4YQTIh6Xb/884rHP6+KlP36baQsuZezMxWQUTMJotrF7/TtsXf4yezd91Ge9u9e9w+5170RsGzM9fMvxyNbQw7327jqmTy6gpDCDry2exStvdb9+8WK0GFiwZGaP+xJTrN32HdxfP6z1r/10O3d/56+cdNYMSibmkZqRSHp2Miq1gr1t8Et79qbuYBMP/OgpsgvSmDZvLIVlOaTnJJOcloA10YzBpI9I/BJTu587wMwTI7tD7N7S85KTg61vOJUWZnLe4pn4fAGeeH4ZA52jva2tEpiDy9XQ77FCiGOPYrEUjJ6mkGMgGNYDAAAgAElEQVScTqcnGAwSCAS6RpHHk1qtQa1WEwgERt2gm686ncHMVb98i8S0Al76/ZXs29x9Te5OhXlp/OTmJei0Gp54fhmfrdrZ67FCRCszPZGf3nIOFpOBf730KZ+sGHgr9Lx5NzFjxhVs2/YaH354XwyjFEKMRnGb+uirqHMd89EiEPBLkjlaKAoWWzop2aXkjpnN5BMvISE5iw0fP91noglwoLKBx5/+iBuvPI0rLjqBUCjI8tW7+ywjxGBkZyRx2/VnYTEZeOfjTYNKNAGSk8Nz0W7Z8moswhNCjHKSbAoRZ1f8YinpueMi5kr1OFv58Nlfseb97v1fe7Ju8wGeeH4ZV11yElddsgCTUc97y7bEKmTxFVKUn8at1y7GYjbwyYodvLR0cDOG6PUJ5ORMY9++ZdTXD0+fXCHE0UWSTSHizNfhwtHWgKO1lroDW6jctZI969/D7xtcS/jy1bsIhkJcdclJXHLeXDLTk3j6lc9G1aAhcXQ5fmYpV150Elqtmg8+28pz//l8wP00O82f/13s9jref/9XsQlSCDHqSbIpRJw9+38XD9tzrVizm7Z2NzdddRoOp1sSTTEkwWAIFHhx6Ure+WhTVM+xZs2TBAJeWR9diK8wGSAkxDHIYjbgcHriHYY4BtgSTLS19z2LgxBC9EWSTSGEEEIIETNxX65SCCGEEEIcuyTZFEIIIYQQMSPJphBCCCGEiBlJNoUQQgghRMxIsimEEEIIIWJGkk0hhBBCCBEzx3yy+ZOpLm6f5mJ6qg9lEOVsJnj0RhVzxg6mlBBCCCGEONwxvYKQWRNiSUEHBjVcUNRBtUvFawf0vLJfT5u37yTy4hMUZpXCtCKFe16At9bIdKRCCCGEEIOl1ukS7453ELHiCyq8uNfAfocarRrGJwaYk+7n4hIPGkVhU7OaYKjnpHPdXvAF4LixCgsnKdS1ws6qET4BIYQQQoijXNxWELJas0hKKkWvT0CjMeLzuXC7G2lo2I7Xa49JndmmIJeO8XBhUQcqBVY3aLhluZW+lo9eMht+drEKlQJ3PxeSFk4hhBBCiEGIS8tmTs5cMjKmotWa6Ohw4PPZ0WhMmM3pJCePweVqxOdzDnu9dp/C53VaNjZpWZznJdccZE2DhhqXutcyu6qhqhlOnqxwwniFDftD1LQMe2hCCCGEEMekEU82k5PHkJY2Hqezjv3736elZQ9tbeU0N+8CQlgsGZjNGTQ17YxZDNUuFcen+8k0BfmsVsd+e+/JJsCeGvB4Yd54hXnjFN5cE8LjjVl4QgghhBDHjBEfjZ6QkA9Aff0WAoHDM7YQDQ1b8fs9aLUmdDpTzGKwaEKMTfRj9ymsahjYGKl/fRziky2QbIX/uVBGqAshhBBCDMSIj0ZXlHCiptOZcbkauu0PhUKEQiH8/o7Y1A/8crYTgxp+vNqEwzfwxPG+l4LMHadi4WSF6cUh1u/r+/jMzMlceOHfAGhvr+app74+hMiFEEIIIY4+I96y2dZWDkBGxnT0elvEvsTEQrRaIy0tewgGAzGp/7IxHk7M9PGPHQaW1egGVbbJDq+vCg8Q+tbC/pNURTn88srAIiGEEEJ89Yx4stncvJvGxh1oNDqKi08nLW0CKpWW1NRxZGfPoa2tnLq6DTGr/6LicIvpqwf0UZX/10fhpHH+eAVDP7lqZysuhFtshRBCCCG+auI29ZHFkklOzvFoNAZCoSAQpLJyBXZ7bCezfHJhO+OTArxWruP3m0y4/IPvf/nO3SqSrXDZg0F29RGuoqjRao0AhEJBfD5XtGELIYQQQhyV4rJcpUqlxmRKR6XS4nDUEgqFUBQNGRlTMJnSYlr3L9aa2d2m5rwCL++c1cZD8+38ZKoLi3bgOfeB+vD/i9L7TlRDoQBerwOv1yGJphBCCCG+kkY82VSptBQULCQ5uYTy8o8pL/+YPXvepL29Ar3eRmHhySQmFsWs/gN2Ndcts7K0Qo9eHeK4dD8XFnegVQ082fT4wv9X9z1jkhBCCCHEV96Ij0bPypqByZRGefnHXaPRfT4XlZWfk5zcQFbWTLKzZ+NyNcZkJaGJSX7uP86J3afwh81GNjZpqHKqae1nrfTDFaSH/19eP+zhCSGEEEIcU0Y02VQUFTZbAcGgD4ejttv+5ubdJCTkYTanY7Fk0Nw8/Mnm/852YtUFOf/dRHzBwffXNOogMzH87/J6GfQjhBBCCNGXEU02VSpt13RAKpWGYNDf7ZhAIDxaPFbzbAYBoxrmpPtZXqsddPmvz1VQq2DDvhAOT9/HWq1ZlJaeisFgoalpH7t2vRtd0EIIIYQQR6kR7bMZCHTQ0dGOoqjIzJyFShWZ6yYk5GG15uL3d+B01sUkhoe2GAkBv57jYELS4Oby1GngsgXh1tDnP+v/eJ/Pzdy5NzBz5lVMmHBuFNEKIYQQQhzdRnxtdLe7CZstH5MpheTkEszmTGy2PNLTJ5OcXEoo5Ke8/BO8XkdM6j9gV+MLKszL8DMvw8frB/R4B3g7/YqTFRZOVthaEeL3r/d/C93v95CVNQ2bLQdFUbNx43NDDV8IIYQQ4qgy4qPR3e5m9uz5L01NO/H53JhMKRiNqfj9HhoatrBz5+u43U0xjeHJXQa2tmhINwY5Ics3oDJTCxWuXwwdPrjneRjoHO1tbZUAPS7NKYQQQghxrBvx0egQHn1eW7s+HlV36Rx97g3036pZmA6/uybcV/M3rwTZ231sU698PicATU17o4pTCCGEEOJoFpdkM56Marh1sov5GT7KHWo+r+/7EhRlwMPXq7CZ4N8fh3hlxeDqS04uBWDLllejDVkIIYQQ4qj1lUk2x9j8nFvgZUmBF7MmxMYmDXesMuPpY7nKifnwh2sVEs3wygr409LBTXWk1yeQkzONffuWUV+/Y6inIIQQQghx1Dmmk02bLsTVZR4WZHvJNgUBqHGp+P0mI2+U6+krdTxzpsKdFynotfD8ZyF+95/QgPtpdpo//7vY7XW8//6voj8JIYQQQoij2DGdbLr8cGZ+BwnaEKvqNbxywMAn1VoCA0gaA8EQiqLwp6Uh/vVRdJO3r1nzJIGAN2Yj64UQQgghRjvFYik4ppfBmZ7qo8Khpskz+IH3qQnQ2B6DoIQQQgghviKO+WRTCCGEEELEz4jPsymEEEIIIb46JNkUQgghhBAxI8mmEEIIIYSIGUk2hRBCCCFEzEiyKYQQQgghYkaSTSGEEEIIETOSbAohhBBCiJiRZFMIIYQQQsSMJJtCCCGEECJmRnxt9OLi0zAaU/s9zm6voqLi0xGISAghhBBCxMqIJ5sAfr+n130qlQaVSkMoJKtoCiGEEEIc7UY82dy37/0+9+flzSchIY/W1gMjE5AQQgghhIiZUdVn02hMJSEhD7e7Cbv9YLzDEUIIIYQQQzSqks3MzKkA1NVtjHMkQgghhBBiOIyaZNNqzcVkSsPhqMXprI93OEIIIYQQYhiMimRTUVSHWjVD1NdLq6YQQgghxLFiVCSbSUnF6HRW2toqcbtb4h2OEEIIIYQYJnFPNlUqLWlpkwmFgtTXb453OEIIIYQQYhjFPdlMSipGo9Fjt1fh9drjHY4QQgghhBhGcU82k5NLAWhu3hPnSIQQQgghxHCLa7JpNmeg01nxeu04nXXxDEUIIYQQQsRAXJPN5OQxALS07I1nGEIIIYQQIkbilmxqtSas1myCwSAtLfvjFYYQQgghhIihuCWbSUnFKIqK9vYKAoGOeIUhhBBCCCFiKC7JpqKoSEoqAeQWuhBCCCHEsUyxWApC8Q5CCCGEEEIcm+I+9ZEQQgghhDh2SbIphBBCCCFiRpJNIYQQQggRM5JsCiGEEEKImJFkUwghhBBCxIwkm0IIIYQQImYk2RRCCCGEEDEjyaYQQgghhIgZSTaFEEIIIUTMSLIphBBCCCFiRpJNIYQQQggRM5JsCiGEEEKImJFkEwCFMWMWkZxcDCgjUE4IIYQQ4qtBE+8ARoOUlFLS0ydis+XT2lpOMBiIaTlx7EtPn8iYMYtwu5tZt+6peIcj+jF27FmkpY3lwIFlVFWti3c44ihmNqcybdq38PncrFr113iHI8So8JVv2VQUFQUF8wCoqFgx4IQx2nLiq0Gt1gLg93fEORIhhBAivkZJy6aCzZZHSso4Kio+GdEv6LS0cRiNSbjdLTQ07Ih5ud7k5s7pSl574/d3sHLlo0Ouayh0OguzZ1/b73FOZwMbNjw9AhHFRkbGREpLF9HSUs62ba8OurxKFf5o+Xye4Q5NiBE31M+DEOKrLe7JpsGQSHb2HIzGZABstkKamnaOSN0qlYq8vLlAuHUyFArGtFxfAgEPHk9rj/sURY1ebz3UWqYAoSHXNxw6OtoIhXqOxeu1j3A0o4vTWU9V1VpcrsZ4hyKEEELEVVyTzcTEYrKzZ6EoKlyuBhoatuJw1I5Y/ZmZUzEYrDgc9TQ27o55ub7U1GyipmZTt+06nYVx45ag0ejZufMtRkuiCbBhw3P4/e54hzEqtbZW0NpaEe8whBBCiLiLW7KZkjKezMypBIM+qqpW0tZWPqL1q1RacnPnAFBRsZyBJnHRlouGxZLBuHHnAAE2bXoel6spZnXF2qxZV6PXJ7Bp0wvY7dUR+7RaI3PmXA/AihUPRfR/nTr1G5hMKaxd+0/UagO5ubOw2fLQaIx0dLRRV7eF6uoN9Pc66HRmUlJKsFiyMJlS0GqNAKxZ8/cj4rwGvd7a9TgpqYD5878fccyRHf9VKhVz595CTzMStLUdZMuWl/qMDUCvt5CTMwuLJROTKQWXqxm7vZrKypX4/d1vxQ/XdYnWQK9nSsoYxo5dhM/nxe934/G04nQ20dJyoM8flvE8P6s1i+zs6VitGahUukOvwyocjrpeyyiKipycWaSllaHXJ9DR0Y7dXkNV1Rrc7p7vWAyW0ZjMjBlXRGzr6HCwZs3jQPiHaVraOBIT81GrdWza9NyQ44zm8xAuN/jP+1DOb6jvl6G8fomJ+Ye6VaVgMiV39dcWQnwpLslmQkI+mZlT8flclJd/TEdH+4jHkJ09Ha3WSHt7FS0tA090oy03WKmpYyktXYTL1cD27W/g8x27LYi93IkHQK02oFJpKSg4gdTUcSgKdHS0oyghTKYUiooWoFJpOXhwVY/l9XoLhYUnkZJSiqJEjocLd3+I7JbQ3l4NKBgMCVitmXi9TtraqiLKBYNH9inWUFW1FpVKg1qtRaXSYjAkYrGkD+j8U1JKKS09DY3GgMfTisfThsWSjtWaQUrKGHbseKNbojPU6xKtwV5PtVqLz9eBRmNAr7dgNqeRkjKG/Pzjsdtr2bv3fZzO7l0N4nV+mZmTKSg4Ea/Xid/vwWSykpxcQmJiIbt3v0Nj465uZQwGK2VlZ2OxZOLzuXG7WzAakzCZUkhJKWHbttex22uGHFsw6Ke6ej0ajR6NRk9ycgkajR6VSk1+/lyysmagUoVfE6/XOSxxRvd56Ftvn/ehnN9Q3i/Rvn46nYWiopNITR0LhA59j315corMhidElxFPNtVqHdnZMwmFglRWfh6XRFOjCf/yBSgv/zzm5QYrL+948vOPo75+O3v3vk8wOPQ+oaNb79lmMOgHwGxOZ8eOpbS2HiAUCqJSaRgz5nRSU8eSlzeLqqo13frOWiyZTJr0ddRqHQ5HHY2Ne3A4avF42ggEvASDvm5179r1XyA8IMJqzcTpbGTXrrf6jD4Y9HLgwGcR29LSxjF27OJ+z9xsTqWs7Cy8Xhdbtz7blVTqdCbGjVuC1ZrNmDGL2LDhmYjzG8p1iVY017O+fhv19dsAUKl0mEyJJCTkkJU1Bas1k0mTLmTDhme6/R2Ix/lBeEDXjh1PdyXAarWOsrLFJCUVU1x8Mi0t+wkEfF3HK4qK8eO/hl6fwI4db9LUtPvQuaopKTnl0BRYp7Nu3ZNDjq2jo539+z/pqnfevO+hUmmYNOkiLJZ07PYa7PZaXK4mPJ62iLLRxhnN56F/PX/eh3J+0b5for0uKpWKCRPOw2RKobJyJQcPriUY9ALhls6JE78+xGskxLFlxJPNpKRS1Go9TU27cLsbMRpTMBgSUau1eDztOJ21w/rl0ZPc3Jmo1Tqam/fT3l7Vf4Ehlhuow/8wVlR8QWXlF8Nex9EmFArfYisv/5yWln1d24NBP/v2fUxq6lhUKh16fULEACuNxsCECeehUmnYvfsd6uu3j3js/VMoKTkNRVGxe/fbEa2X4eTzP8yadQ0mUyppaeO6kjaI/rpEaziuZzDoxeGox+Gop75+OxMmnIfVmkVe3mz27Pkg4tiRPr9OTU27I1paAwEvO3a8ycyZ30ans5CZOYWqqrVd+7Ozp2EypbB//yddiUo4zgB7936AzVaA0ZiE1Zrd7XbyUIT/RoZQFIWGhu1s3/5an3c/4hVntAZ7ftG+X6K9Lvn58zCb0zhwYDlVVasjYvH5XIf+JU2bQnQa8WQzISEXAJ/PQUnJYgyGRMK/dJWu7eXln9LR0db7kwyBTmciM3MaEKKycuCtk9GWG4y0tLJDt2QgN3c2yclFtLaWU1e3bVi/UIfL2LFndP2RP5zT2UhFxYoBP8+RLQ0QOGxfuBWk8/bZ4Xw+Fz6fG63WiF5v6fYlotUaqa5eP0oTTTCbU7BaM3G5GmlrO9htfyDgpa5uKzk5M7DZco5INqO7LtEa7uvp93uorPyCCRPOJzGxsNv+kT6/vgSDAerqtpCXdzxmc2TXiKys6UCI2tqtPZQL0tq6n4yMydhsOcOexAWDIVQqhcbGXf12s4lnnEfq6/MeGdfAzy/a90s010WrNZGdPROv10FNzdpu5b4kyaYQnUY82dTrEwBISRlHU9NO2tsr8flcaLVm0tMnkZhYRGHhyezevbTr1shwys09DrVaS2PjLhyOhpiXG4yGhh04HHUYjclYLOkkJhaQmzuHnJxZNDTsYN++jwkEvDGpOxpJSYU9bler9YN6nsP7cIVCyhH7wl9ER/YP7OT3e9Bqjd32dyYwbW2Vg4plJJnNaQC43S29HuNyhd9rRmNSxPZor0u0huN6qlRaLJZ09HorGo2uay5Svd6KoqgikpCRPr/+uFzNAId+HIep1Tr0eiterwOzORlFUaNSqVGpNF3/abUmIDx92fALAKp+nzv+cUbq6/MeaWDnF36ewb9for0uSUmFKIqC01nfZxcnRTptCtFlRJNNrdaESqXB53OwZ8/bEcmkz+ekqmolOp0FkymNhIR8Wlv39fFsg6fXJ5CRMZlQKDiolrdoyw1WMBjA6WzE6Ww8NBDhM8zmVEpLTyc9fQIGg40tW16OeTeDgVq58q/DMvWRovTeqb6vwUN90estAHi9jmjDirnOuWX7mvi9oyM8X6lGY4jYHu11idZQrqfZnEZ+/vEkJRX1mgyo1bqIUfcjfX796bw1engCYTKlAOGBIlOmfKNbmVAoSCgUwO/39HgHYKiCwSAqVf9JTbzjPFJfn/fDDfT8ILr3S7TXpXN0vtvd8923zlZWSTaF+NKIJpudvw5DIVWvrZZ2exUmUxp6vW3Y68/PPx6VSkVd3ZY+W5OGq9xwcDob2bz5eWbOvJqEhBwsloxhGdkaLz39AT78D3n3ZKTz9tjgWlw6n1Ovt+Fw1A8uyBHSuVJWZyLXk86Wle7TXkV3XaIV7fVMSipi3LgldHS0s3Pnf3E6a/F47ICCRqNn9uzrUKnUPbwvRvb8+tOZYHQm/4fz+z2sX/8UwWCQYDBAKBQYoR+EnXUMrHU3HnEO/vN+uMGcX/Tvl2ivS+d0X90i6SoryaYQnUZ0bXSfz0EoFESnM/b6R6HztkogMLxLVppMKaSljScYDFBZuTLm5YZTMBjoalHqTD6OPuEvA7Va121PMHh4S8eRt9Gj+zJ0ucL9sgY6/dCROltK1OrY/R7r/OFiNKbS2xdT5+1zpzMy2Rzp1u1orqdKpWLMmNNRFIVNm16gqWn3oUQTIHSoxSh8HsP1usdKZ1/N1tYDXdvCff9CaDQGtFoTfr+HYNA3YrF3vkf760owHHEO/vMQ3ee9pzoH0lUimmse7XXp/NwaDEk97v+yZXNEv16FGNVG9NMQCoUOfcAVEhOLezzGas0EwO0e3gnM8/PnoSgKtbWbemydGO5yw0chM3MKFksGgYC3nz5zCoqiOvRHbnT9qu7oCCfLJlNyD3tDhyUdvbVMDO58mpv3AJCVNbVbf8eB6BxEYDKlxKx1zeGoIRj0YzBYSUkp7bZfpVKTkTGJYDBAQ0NvS7iOzOsczfU0m9PRao14va4+ulv01yIV//exTmchI2MSbndLxCAtn89Na2v481hUdHKPiVUs9ZaoH2k44hzs52Hon/eBn1+kgR8b7XXpvMtgtWZgsWT2cMTh/Ufj//4VYjQY8Z9eDQ2bAcjImILFkt21XVEU0tOnYDZn4HTW43QO361PqzWTlJQSgkHfoCaBjrZctFSq8BroVmsW6ekTKC4+hVmzrqak5BSCQR87d77Z5wChzMxJzJv3PebN+x7jx58T83gHo3OARVbWtIhBFkZjEmVlZ3W1AvR2G32w6uq24nQ2olbrmDLlEnJyZkeshNIfp7OBYDCARmNg/PhzsVozh72lwut1dU2jU1p6ComJ+V37wvM7no1eb6WqajUez5HdN0a2U2M017OzL6peb+mWTOv1NsrKzur6glepjvyij0+nTZ3OGpF0hOcWvRCVSs3u3e9ErG4FsG/fx/h8bmy2HGbMuJKCgnkkJOSMSOL5ZTLW//tyqHEO9vMQ/ec9uvOL9v0SzXVxuZpobt4LQFnZGZhMqV37NBoDOTmzux6rVJJsCgFxGI1ut9fQ1LSLlJSxFBSchM/nxOdzodcnoFbr6ehop6rqC4bzyyY/fx4AVVXrBrUST7TlolFaehoZGZO6bQ8Gg9TXb6OiYmW/00Ed/geysz/gaFFVtZb09Ino9VZmzLgCj6cNrdaIRmOguXkvHR0O9HpL1wjlTl+OVh3cH+1QKMjWrS9TVnY2NlsuhYXzKSycj8/noqPDQSDgQ1Fg1653elxYIBDwsmvXW5SVnU1iYgGJiQUEg146Opz4/R3s3PlWVzmdztT1XunU+QVrNCZRWnpaxL7m5v1dX1YHD67BYskgKamQiRO/TkeHHZ/PjcmUikqloqZmU48/dKK9LtGK5np6PK20tBwgKamQceOW4HDU4fM5MRqTMRhshxLYBszmNFQq7RH1jez5dcrOnk529nQ8HjsajQ6NRk9Hh4Pt29/Abu++vKbb3cymTS9QXLyQpKTw7BGdy9kGAj78fhd+v49Nm54Z8uIMRmMyOTkzuh5rteFZH/Lz50a0HDc376G5+cCwxjmYzwNE93kfyvlF+36J9rrs3/8pZnM6BkMS06dfhtvdSjAYwGRKxm6vIRQKHrrLpAFGzwwiQsRLXJarrK1dh9NZQ3JyKTpdEgZDIh5PK+3t1TQ37+jq8zIcbLZcEhPz8fs9EZMxx6pctPx+Lz6fG7/fjdvdhtvdRHt7DW1tlQOe7ujwNXnDq7mMHh5PK5s3v0BR0YmYzWlotUaczgZqajbR1LSbKVMuQa+39NAnrLP/0+Dr9PncbNnyEomJ+aSmjsFqzcZgsEb0O+xrJHhT0142bXqW9PSJWK1Z6PUJGAw2FEWJKKdW63v8oQDhNcSP3Hf4YJ9g0Me2ba+RmTmJlJTSQ7HpaW7eQ0PDtm5fql+K/rpEK5rruWPHm+TkzCQtbSxGYwo6nQWHo5a9ez+ktbWCcePOxmxOQ6PpuWVzpM6vsXEbihLuk6rVmlGrNTgctYfWx17X52fQ42lh27ZXMRqTSU4uwmLJwGCwodNZ0GhMqFT+YVkFTK+39Pg+S0kpiXjc3t7zAMKhxjnQz0O4rsF/3od2ftG/X6K5Lh5PKxs2PENh4TwSEnLRao3Y7fXU1W2ipmYzc+Z8B63WiEqlGVXT1QkRL4rFUjDKJhkZXlOmfAOrNbPHlR5iUU6MfuHWlOChgQrH9Nt/RMj1FEII0Ze4tGyOlOTkEqzWTLxeJ7W1G2JeThwdYrFYwFeZXE8hhBB9OYbnZlDIz58LwMGDKwkEBnpbOdpyQgghhBDiSMdsspmWVobZnEpHRzt1dVtiXk4IIYQQQnR3zN5G9/s9tLdXUVe3dVCd86MtJ4QQQgghujvmBwgJIYQQQoj4OWZvowshhBBCiPiTZFMIIYQQQsSMJJtCCCGEECJmJNkUQgghhBAxI8mmEEIIIYSIGUk2hRBCCCFEzEiyKYQQQgghYkaSTRFBpVJjNliwGBPiHcqoY9Tq+PGJZ3F8Xkm3fRadgTsXnsOkjNw4RBYp0WDizLGT+eWp55NqssY7HCGEEF9xap0u8e54BxEvydYULj/1Om792k+5+oybmVI4g9W7PqfD1xHv0OLmoRv/yXfP+TEer5vNB9bHO5yonXP9Q3zt5kfxdTip2rNuyM+XbLJw58IllKVmUpCUwif7dxA4bIWpJeOmsaCojHn5pTS4HFS0Ng25zsEqTk7jiunzuWbmSUzLyifZZKbRZWdPU/2IxyKEEEJ0OmaXq+zP7LFzuf3iX2EzJXZtmzX2eC4+6XIef/vPcYwsfvRaPSVZZQB8sePTOEczeqSaLdy58BzSzQlsq6/mD5+/S4ffH3HMK1vX4A8EuHjKbG6YsxCNouLj/TtGJL5kk4Urp89jVk4RAPuaG1hZuY811fuptbeNSAxCCCFEb+KSbJaULMZgSOx1v91eQ0XFJzGr/4SJJ/Ozb/4ap8fJI0t/x9byjZxz3AUsnnVeRPJ5NEpPzODB6x5nw75VPPDyPYMqW5Y7EY1aQ2NbPXtrdsUowqNLosHEzxaeS5rZyqqD+3j4iw/wH9aiebjXd6yn1ePkutkLuHb2SfhDQT47ENvrWJCYwk8XLCFBb+CLyr28uXMj+5obYlqnEEIIMRhxSTbVah0AXq+9x/0dHRJ24VMAACAASURBVLFrjSnKLOWOS+6lzdnG7f+4iQN1+wB4a81rLJ51HpsPbIhZ3bGmKAo/vvBuMpIyWbdn9aDLOz0OHn7jASobDgx/cEchvUbDD09YTJrZysrKvfz5iw8JhnpONDstO7CLQCjEjcedzHWzFtDkcrC9vjpmMd4w5xQS9Ab+suojPo1xYiuEEEJEI07JppZg0Mfu3W+OaL1ajZafXnwPgaCPH/7tOxxsrOjaN714NvWtdSzb8v6IxjScLph/KdOKZxEKhVi754tBl99bs0taNA9zxfT5FCensb2hhkdW9p9odlpevptEg4lLpx7PLcefxk/feZH2Dvewx2fRGchPTMYb8PN5xZ5hf34hhBBiOIx4sqkoCiqVFp/PNdJV8+1FN1GcWcpDr98fkWhmJGVy8UmXc+9z/4PH6+naPiF/Cnd98z4CwSDf+u05Ec9l0Bp57e6P8XjdfO1XJxMKhbr2fWPBlVx04uU89cFjvLbiBZKtqVww/5ucOOkUkqwpbNy3lvuevwunx9FrrNNKZnPmrPOYVDAVmzmJ2pYqXv/iRV7/4qVux958zo/42txLuh4risJLd74Xcczm/eu57W/fidhmMSYwuXA6U4qmM6VoBiVZY3B1OLno3sUEgpF9Ensyp2we5x5/EWNzJqDX6jlQt4+PN73Layte6DExG47rEo3skhnMOv1qsoqmotWZqNq7li+WPkzN/o29lpmWlc/ConG0d7h5aMV7vd46782bOzcyNjWTWTmFXDPrRH6//N2hnkY3Dq+HWnsbmVYbpxSP5709W4e9DiGEEGKoRjzZ7LyFHgh4R7TewoxiLjzhMrZVbOKNlS9H7LMabTy89AFW71rxZZwqDd//2h2k2tL5fHv3/qPFWWNQKSr2VO+MSDQBJhZMIcFko7a5mpOnnsH3zrsdk95MIBhAq9ZyXNkJLJlzAc8ve7Lb8xp0Jn58wV2cNPk0fAEf5XX78fjcFKQXc8u5t9Nsb+KzrR9FlGloq2fpylcYk1NGWe5E9lTvYkfllohjtpR/ObJcq9HypxueoCRrDIqi4PG5cXqcqFUatlVs7jfRVKnUXH36jVxy0pWEQiH21+1FAcblTmBC/mRmls7hZ0/d1q3cUK5LtKYuuJQFF92Bo7Uet6MFS1IWY6afTtGkhbz5+A/Yubp767paUfGtaXMBeHbjSto80bVK/nPtp0zNzGNWThHj0rLY0VAzpHPpyWOrP+F/Fi7h8mnzqLW3sbnu4LDXIYQQQgxFHJJNPTDyyeaFJ3wLRVH4+zsPd0sO91TvZE/1zohtF8z/BkWZpQBsLd/U7fnG5IwDYHdV9xHHBRnheRgXTjmd48bN45/vPsq7a5eiVmt44Nq/UJo9lsyk7G7ldFodD1z7KGW5E/hgw395ZOnvaHeF+69edsq1XHXa9Zw+4+xuyeYLy54C4PaLfkVZ7kRe+fwZ3lvXexcFn9/Hi5/+i9qWamqaD9LiaOaqRTdw2cnXsH5v/309/+eSe1gweRFrdq/kNy/+nBZHMwATC6Zy75V/4LhxJ7JwyiI+3hTZuhrtdRkKt6OF1x65ifrK7QDojVaWfOf3lEw9jdMvv4f9mz/G63FGlJmRU0CWNZFGp4PlFbujrrvV4+KTAzs5rWQCZ5dNiUmyubOxhkdXfsh3jz+VW+ct4talz+D8Ck/dJYQQYvQZ8UndVapwy6bRmER+/gKysmaSmFiETmeKWZ3J1lROmbaYfbV72LR/YHMuJpgTCQYDAGzrKdnMDiebe2oik02DzkBGYhYAeWkFXPfHb/L6Fy8eaj20s7UifOu2oa2u23N+6+RrKcudwHOfPMH/vfDzrkQT4P31SwFIsqT0GvOE/EmH4t3c7/l9uPFttlVs6koUZ5QeB8D6Pav6LDdrzHEsmLyI9XtX8/Onvt9VHmBr+UZeWf4MACdPOSOi3FCuy1DsWvvfrkQToMNt57VHbsLRWofRksy0hZd1KzMvP/wj4+3dmyLm0ozG0h3hAWfTsvLRa2Lz2+6Lyr2srtqPUatjfPrwJutCCCHEUI14y2Yw6KW1tRyt1ojBYMNqzera53I10NCwFYejdljrPH/eJWjVWl5Z/uyAy/zjnUdYMucC9FoDu6q3ddtf2plsHtEimpdWiEpR0dBWx4/+dgMeX+Qt2IzEDACqmysjthdmlHDRiZdTXr+Pf773l271NbQ1cMcTt+DuZaCJzZRIdkoeba5WqpoqejymNya9mbKc8bQ5W9lft7fX41QqNdef9QMA/v7Ow/gC3W+3b9y/jssJJ5SHi/a6xILf52XjJ88y/7zvk54/sdv+XFsyALsah574NjjttHnc2AxGMi02ymMw2XueLYV8WwrNbmdMWk+FEEKIoRjxZLOjo52qqsP6Rqp1mEzpJCYWkJCQS0HBAmprN9DUtLOPZxkYqzGBl3/2PoqiAPCjC+7iRxfc1eOxOw9u47uPXNn1OD+9CLPBwo7KLXh9kbf8tRotBelFdPg6qGgoj9hXmF4MwI7Krd0SKoCijLFA91vzl596HRq1hiff/2tXi+rhgsEAa3b1PsJ8XF5nq2bvg156M7V4FiqVmvV7V3frYnC48XmTKMwoYefBrew82PNglM7WWJPBErE92usSK0014dHbSRlFEdvViooMc3ipzuGaEL3a3orNYCQnIWnYks1FpROZnJlLni0Zm8HIysp9PL9pFY7DBrgJIYQQo0HcVxAKBLzY7Qex2w9isWRSULDg/9m77+ioyvSB49/pM5mZ9N47JPQiSFcRFWxrQRTXturaV9d1ddV1bauua1u7P8uKunbFgqCooCIoHYFQE0II6b3MJJOpvz8mCY6TQBLSgOdzjueY297n3jskz7yVyMhR1NbmdZh0dYfb42bZL19x8pjZ7dvW7PyRqsZK1Eo1CoUKlVKJSqlm22+StGGJo4COk5+UqHTUKjW5JTv9YkyJzgBgd/EOv/NiQuKICommtKbIp7lYpVQzIdM7IKWnS0RmJ41ojffQTei/NTb9OIBD9tfMThwJQMFBaj+jQ+IAqGmo8tnek+fSl5oavEmfQunbk0SrVqNSKvHgwd6FEfldYW9dbUip7L1eKxMT0siK8LYKVFktVDdZaHY4eu36QgghRG8Z8GTz1yyWMmy2evT6YHS6IJqbaw590kFYbRbyy3YDs1mx9VtGpIwlPXYor7/xIntKDz7wIzvJm1htK/RPNtua0DsaHJQe613uMa/EP6kaneZN6jbk+vaLDAsMQ68NoL6pjjpL7aFvrANZCd5kc3sH8R7KmNa4DtVfM8wcDkBpbedNtUmRyR3G0ZPn0pcCw7x9Gxuri322NzvsNLTYCNTpiTYFsb/+8D6DADGBQQCUNtQd9rXaPPbjEiKNQWSERzIrbTjnZI9jfFwy//j2E+yuw/uSJoQQQvSmfh8gdDBKpRqt1gx4cDp7ZxLsIfHZAHy14XNufOEy6qx1PHXNq+3bO5PZOtp8b5lvUqpRazh5tLem9Lf9NQHSYrzNwbs7SETHpk8AYH3uzz7btWo94F2bXKXsWf6fGZfVaUwHE2oOJykylfK6Ukpriw96bFvzt+k3TeRtVEo1p084F4/HwzebfEfD9+S59KW2vpp7c1b47Stt9Cb88UEhh12OTq0hPMD7vEoaey/ZbHE62V9fzfI9O/jHsoWUNdaTEBRGZnh0r5UhhBBC9IZBk2xqtWYSE2egVKqoqyvA0UG/vp5oS3Lyy/KoqCvj9teuo7axmnsv/jchptBOz4sK8TZR/nq0tV6r5x/z/8WIlDGt1/RdbScyOIrAgCDKa8t8RpK3GZ06HqB95HWbqoZK3B43eo2hvQawO0LNYRj1JmyOZprt3Zssf2TrvewpOfTKQUVV+1rPGdvh/rMnzSU6JJZvNy1hV9GBQVU9fS59xRwSzajpF1FTlk/OKv9J8nPKvctLzkzzHzzUXTPTslAqlOyqKqXZ0TfTfTndbtQqJS63u08GIAkhhBCHY0CSTYVCgUZjwmSKJSJiOCkpM8nImIPRGEFjYzGlpet7raxgo7d2qq15uqGpnrsW3ILZEMS1p/tPPA7eGjqt2jtF07iM41EoFIxIHsN/rvkvVpu1/VqV9eVo1BqMrTV9aTGtzesdNBUHGYMJNoVgsTVSZ6nFZAhEo9YAYLM3sbG1CfmueQ+S2jq/56/jyUocwYmjTvW7LoBC4X2NGpXGZ55Ko97ElOwTuPjEKzt9PokRyQCYDGaUrddRKBTEhSVyytgzMBkC24/dkLuGphYrmXFZzJ12Sft2tUrN3Gm/59o5f6beWserS5/zKaOnz6U3mIJj0BnM7T/HpI7mwtvfRaXRsuTVv+DsYE7K7/fuxOFykRURc1g1hRqVijmZ3u4YS3P7bnWf+SOPJzzAzLtbVtPYIgOEhBBCDC793mczJmYcoaHpgMJne3NzNVVVO2lo6L2pb5RKFUa9mWZ7k8+qOMXVhSxa8yHnTZnPgq9f9Gs+drmd7CnNJTMui3suegS704FWrWHRmo95btFjfHjXUgCe+uMrhJjDeH7R4yzdsIj0WG8takdN2cFGby2qSW/mlZvfIy48kbsW3MwvrYNyXlz8JM8mvU5sWAIv3PgWBeV7aWqxYDYEEheeiEqp4vvNX/Pd5qV+165trKastoTokFheueU99pXnYzKYiQ1NwOZo5vPVH3b6jOpbaxpHpoxlwW0LabHbiA6JQa8NoKKunF1F27E0N3jLsdTwylfP8Kez/sYfZ/+Js44/n/LaUoYkZKPXGNixP4cH3/kbNY2+g4MO57kcrvGn/IHxp/yB+qpi9AFmdAGBNNaWsfCZqynJ73gwVk2ThaW5OZwxdBTzR03kgeWLurwu+q/NyRxJiMHInpoK1u7vfFDV4ZgQn8qcISNZs38PX+7u/uAwIYQQoq+ptNrg+/qzQKMxCo3GiN1ej8VSSm1tPqWlG6iu3klLS0OvlqVAwfwTr0ChUPLO9//12VdeV8o5ky8kt3Qn+R0MFtpVlMPQhBEE6Azkluzk2c8f4+NVb+PxeFAr1aTGZJBflsvLXz7NipxlAJw3ZT4JEcl8tPJtv7kuG5vqGZkyFoMugMKKAp7+9BE2529o31/fVMcPW74h0BhEmDmSyOAozAGBFFfv55tNS3hi4QN8tWFRh/fpwcP2wi1kxmUTHhiBXqtnT2keC1e9w2Mf3c+aXas6fUaFFXtJikolIigag1ZPnbWeldu+47/fvMhLi5+kzuo7QGZ38Q62FGwkzBxBeGAkMaExFFXt5+NV7/L0pw/T2NzoV8bhPJeecjlsKFVq1FodSpUGpVJBWcFWtq/+lC9evoWq4oP3bc2tKuf4xFQSg8NRKZVsqzh4f9bfygyP5toJJ+J0u3li5VfUdzI/6uG6efIsAnUGnlu9jIY+KkMIIYQ4HAqTKanziRWPAm/fvojI4GjOf2gW9dYDAzSUCiWLH1jFK189063J3sWxIzU0gntOPAutSs0r637g+73+g5s6EmsO5t6ZZ2PS6nltwwqW7/HvPtAbVEolr597JSqlkoe+X8T2ipI+KUcIIYQ4HINmgFBfKav1/gFuW46xTZAxGLVKzZ7SQw+MEcem/JpKXlizHI/Hw5XjpzE9OfOQ58QFhnDXCWdg0upZvGtLnyWaAC63m22tCeZNk2YxMjq+z8oSQggheqrfm9H7m0KhZHL2DJKjUlmRswybvRmlUsUNZ9yGUW/k9a9fwHWYk8eLo1dJQx1VTRbGxyUzLj6ZZoedvOqKDo9NC43kzhmnE6QPYNmeHby1qfPuC71lW0UxmeHRxJqDmZqUycjoeJqdTiqtDbgOshqUEEII0V+O+mZ0jVrDSze9TWJECo3N9ewo3EZ8eAKhgeHc8dqNPZoEXRx7piZn8sfxM1AplSzbs4MFG1f6DBqakpTBVeNnoFWpWJqbw1ubVtFf/7AUCgVTkzI4c+ho4gK9sy/YnA42luzjy91byK+p7KdIhBBCCH9Hfc2m2+1m+ealRARFEhUSS2BAENv3b+X+/91+0GUXhfi1wrpq8qorGBefwo7KYnLKfQcMxQeFMD4uhfdz1vJRTu+MpO9ufN/kbWNHZSl4FMQGhZAaEsHKglyqmyz9Ho8QQgjR5qiv2RSiN5l1+k7nsgw2BFDX3L1J9fuKRqUiKyKGLWVFAx2KEEKIY5wkm0IIIYQQos8c9aPRhRBCCCHEwJFkUwghhBBC9BlJNoUQQgghRJ+RZFMIIYQQQvQZSTaFEEIIIUSfkWRTCCGEEEL0GUk2hRAolSqMehMmQ+BAh3JIJrWH/0yycHKcw29fkNbDC1MbmRDpHIDIfIXp3VyUbuO/JzQSE+A+9AlCCHGUUg90AEL0t1BzGOdPvZipw04kxBxGzt7NPPLB32loqh/o0AbMM9e+xpD4YSz45iXe/u61gQ6nU5EGN09PtpAW6CLB7GJleSA2p6J9/wWpLYyPcDI6zMI/NwWwpFDb7zFmhzi5NNPGjBgHqtbQZsQ4eG+Prt9jEUKIwUCSTXFMOS5zEndc8ABBAcHt28ZnHs8F0y/h1a+eG8DIBo5OoyMtZggAq3f+OMDRdC46wM2L0xqJC3CzvlLN39aafBJNgFd26nG44bphzdw7zopa4eHzff2T5EUa3Nw2spkTYu0AbK9VsaxYyw+lGgotqn6JQQghBqMBSTYNhnBSU0/G4/Gwc+fHuN0D3+R1tDCbIznnnJcpLl7HsmUPDXQ4g8rUYSfy94sexmqz8sIXT7Bt32bOnHgep40/2yf5PBJFBkfx5NWv8kv+Wh7/+MFunTskfhhqlZqq+gr2lO7uowgPT5jezUvTGokNcLO8RMM964w43IoOj12wW0+VTcHdY5u4e2wTTo+iz2s4M4NcPDvFQojOzTdFWt7O07O9VhJMIYSAAUs2vX/YbbYaSTR7lYKZM+8lMDCa1avXDXQwg0pKdDp3znuIems9d/z3egrK8wFYsv4zTht/NlsLfhngCHtOoVDw1/PvIyokmo153X/vVpuF5xc9zv7Kgt4Prhfo1R6eON5CbICbZcUa7l5nwn2IRXa/KNTh9Ci4f7yVu8c0Ud6kYEOVps9ivHeclRCdm/s3GFk8AE33QggxmA1IsqnXhwBgtVYORPH9IjQ0hVGj5rF//3ry8r7tlzLHjLmQ+PhxeDwe9u9f26dlDcT99ZRGreFvFzyIy+3gL6/8kaKqwvZ9Y1KPo6KunBU5g/seDua8KfMZnToej8fDhrzV3T5/T+nuQVujCXDbyGayQ1xsrNLwj/XGQyaabb7aryVc7+ZPw5t5aEITFy0zU9vS+2Mig7QeMoJc2FywtKjvElohhDhSDWiy2dRUNRDF97mQkGQuuOC/qNUGoqKGtydjQUEJZGaewpAhp1FQsIqVK//TyRUUpKefRFbWHMLCMtHpzDQ0FLNt22ds2fIh4PvXdvr0Wxk58oIDZysUXHnlVz7HlJT8wsKF1/psi44ewWmnPYzb7eLNN3/ns0+tNnDNNctwOJp5+eWTfcrs6f2NHXspY8dezNq1r7Jly4cYjeGMGjWPtLQTMRrDKC7eyNKl92K3Ww71iLvlilnXkxqdzrOfP+qTaEaFRHPB9Et46L27sNlt7duzE0dyz0WP4HK7+f1jZ/pcS68x8Nl932OzN/O7B07E4znwXC6ccRlzp13Cm8te5rOfPyDUHM55Uy5i2vCTCDGHsTl/A4+8fw9WW+f3NzrtOGaPP5vhSaMIMoZQVlvM56s/5PPVH/kde8OZt/G7SfPaf1YoFHx09zc+x2zdu4lbX/mjzzaTIZARyWMYmTKGkSljSYvJoKnFytyHTsPVhZaGCUMmc9bxc8mMy0an0VFQns/3W77ms58/wO3xH3V9OM9lSpSDs5JaqGlRctfagE6bzjvzv1w9o8JczIixc+foZm5fY+zW+V1Rb1dQaFGRaHJxTrKdD/NlIJAQQvxavyebCoUSnc7bjN7cfHQmmyNHno9abQC8XQbOPPMpIiKGEBAQ2n5Mc3Nth+eaTJGccsoDxMaOxuVyUl29G4UCwsLSmD79VtRqPRs3vulzTmNjJTk5nxARMYSoqGwqK3MpL8/xOaa01LeZWKlUc+KJd2AyRbB37wq/OMLD01EolFRW7ua3yW1P7y82dgR6fRD19SVkZp7CjBl/Ras14na7UanUJCVNYfjwc/3u73AkR6Vy/tSL2V64hUVrPvbZZzYE8fwXj7Nu98/t21RKNbf87k7CgyL5accPftdLjclAqVCSV7LLJ9EEGJY0ksCAIMpqSjhx1Kn86ew7CNAZcbldaFQaJg6ZyhkTzuP9FW/4XVevDeCv593D9BEn43A52Fe+F5ujmaTIVG466w5qGqtZue07n3Mq6yv4Ys1CMuKGMCR+GHklu9m53/e95+zb1P7/GrWGZ65dQFpMBgqFApujGavNikqpZnvh1kMmmkqlij+cch3zpl+Gx+Nhb/keFMDQ+GyyE0cwLn0Cf3/zVr/zevpcVAq4ZWQzAM/l6KnpYa3kv34xMCnSwQmxdsaEa9nUB83p/9wYwPNTLdw6solCi4o1FTL2Uggh2vT7b0SdzoxSqcThsOJ02nz2hYSkYTbHUl29C6u1or9D6zX5+T+QkjIdkykSozEcjUZPbW0Bu3d/zbBhv0OlUrNjxxd+55lMEZx77kuYTJGsWvUcW7d+gNPpHdmalXUGM2f+naysOX7J2KZNbwEwa9Z9REVls3nzu+zcueSgMY4ePY+wsHQASkq2+u2PjBwKQGXlrl67v9DQVAAyM2eRnDyZ1av/jx07FqNUqjjnnBeJiMggMDDmoHF31/lTf49CoeC1pc/7JYd5JbvIK/G9v/OmXEhKtPe5bNu3xe96GXHe55JbvNNvX1JUGgAnjDyFiUMn8/rXL/L1hi9QqdQ8ftVLpMdmEh0S63eeVqPl8ateZEh8Nst++ZIXvniifRqmi0+6istPvoZTxp7ul2x+sML7Obhj7gMMiR/Gwp/e4ZuNizt9Fg6ngw9/fIuy2hJKa4qotdRw+axrufjEK9m059B9Pe+a9yAzRsxife4a/v3hP6i11AAwLGkUD132HyYOncYJI2fx/Rbf2tWePpfpMXaSTC7KmpR8VdTzfpDVNiWLCrWcl9LCxektfZJs/lKt5t71Rv55nIVHJlg4e2kQjY7u1cIKIcTRqt+TzYM1oRuNUZjNcdTVFfRzVL1r//51VFfvwWqt4pNPrsPpbAEgPn48o0dfSF7ecpqaqv3Omz79r5jNMXzxxa3s2/ezz778/B+YOfPvKJWd1+5ERw8DoLTUP3n8Lb0+CI/HhUKhoqzMP6mKiPBOhVNZ6Z9U9eT+NBo9ZrM3kQwJSeKddy726bNbVraZiIgMLJbyQ8beVaHmcE4afRr5ZXls2buxS+cEGoNxu10olSq2d5RsxnqTzbxS3+ei1+qJCvbeX0JEElc/fRHVDa3354BthZtJj82kst7//n5/4lUMic/mvR8W8NrS5332fbvpCy4/+RpCTGGdxpydOByA7fsO/d6Xb/btXjE2fSIAm/IO3sd3fMZEZoyYxaY96/jHm7fgcB2oBd22bzMLV73DJTP/yIkjT/VJNg/nuZwS7/2i9e4eHc5uNp//1lu79ZyX0sKUaAd6tcdvyqTe8G2xhpPjNZwU62BchIPvS2SgkBBCwACsIKTTBQHQ3OyfbB0tkpOnkZg4ge+//1d7IgYwfLi3X+SOHZ/7nZOUNIXU1Onk5Hzsl2gCZGXNASA3d3mHZer1wQQFJWCz1VFfv/+QMf7880s4HM243U4qK3f47T+QbPoPHOnJ/QUHJ6FQKLFYKli48Hq/wWFmcxQA9fVFh4y9q86ZPA+NSsPCVe92+Zz/Ln2BZnszTpeT3SXb/fantyWbv6kRTYhIRqlQUllfzm2vXHsgoWoVFey9v5Ia33eTHJXG3GmXsK8in9e/ecmvvMr6Su5ccBMvLem4f29QQDCxYQnUN9VRXF3Y4TGdCdAZGRKXRb21jr3lezo9TqlUcc2cPwPw2tLnfRLNNptbk/mEiCSf7T19LgBpgd7+n1uqD/87cUmTkpoWJSoFJBr7ZjWf9EAX6YFuKpqVfVJ7KoQQR6p+r9lUqbx9/Zqaavq76H6h1ZqYPv3PbN78oU+iZjAEk5JyAs3Ndezfv97vvClTbsTj8fg1kZtMkUyYcCXZ2WdTUPAj69a92mG5UVFttZr+tXEdCQ1NQas1UV6+rb2pvo1KpSE0NAWns4Xa2n29cn9hYd4mdG95zR3Ek9Gt+A/GbAjk479/i0Lhrb267bx7uO28ezo8dlfRdm584bL2nxMjUzDqTezcn4Pd4ftcNGoNSZEptDhaKKz0fS7Jkd7727l/GzaH//2lRGUC/k3zl8y8GrVKzRvf/h9ut8vvPLfbxfrdnY8wH5rQVqu5udNjOjMqdTxKpYpNe9b5dTH4tayE4SRHpbGraBu7irZ1eExbs3+A3uSzvafPRaWA+NaksLcmRC9oVBGqc5NidrG7vneuOTe1hYmRTtKCnITp3HxbrOP5bXrq7dKELoQQbfo92dRo9ICHlpa6/i66HyiYNesfNDfXsHr1Cz57UlNPQKVSk5v7jd/cosHBCYSGplBfv5/Q0DSSkqYSFBRPfPx4IiIyqa7ew7ffPnDQfpgxMSMAKC3N6fSYX4uObjvev+k1LCwNpVJNZeVOPJ5fJ0A9uz/vNb3JZEWFf7N8YGAcgYHR1NcXYbEcfl9dt8fNsl++4uQxs9u3rdn5I1WNlaiVahQKFSqlEpVSzbbfJGnDEkcBHffXTIlKR61Sk1uy0y8xTIn23t/uYv9a4piQOKJCoimtKfJpLlYp1UzInATA1oJNfud1RXbSiNZ4D92E/ltj048DOGR/zezEkQAUHKT2MzokDoCaBt/uMT15LgAGlQe10oMHaOmlisiW1lem6sX2nJlxDsaGe9doL2tSUtakwOro9wYjIYQY1Po92VSrJVUjswAAIABJREFU9Tgc1qNyMvfx4y8jPHwIH354hV9tYUrKVAD27vVfDjA0NAXwJl0zZ96DxVJBTU0+O3cu4euv/0FtbcEhy26r2eyo/2VHoqO9CURHNYltTegVFb5NxT29P4DwcG/S0VGTfXz8eMDbF7Q3WG0W8st2A7NZsfVbRqSMJT12KK+/8SJ7SnMPem52kve5bCv0fy5tTegdDQ5Kj/U+s7wS//sbneZN6jbk+vaLDAsMQ68NoL6pjjpLx7MTHEpWgjfZ3N5BvIcypjWuQ/XXDDOHA1BaW9rpMUmRyR3G0ZPnAmBxKqhtURKic5NgdLOn4fBrIhPN3myzoLH3Vva55Wcj8QFuRoQ5OT+lhauG2jgh1sEV35tpcUntphBCwABNfaTRmBg27MJOj0lImAJAQcGyI2ri95qavSxefJtfFwGVSk18/HG4XA5KS/2bOzUab9eCwsKfWbToLz0qOyoqC+i4j2VHIiO9SUB1tW/ypVJpGDJkdofX6un9AUREeJtLf5vAAiQkeJOOwsLuT0jemSHx2QB8teFz/u/Lp3ngkid56ppX+eur17GryL8vZpvM1tHme8t8n4tGreHk0d7n8tv+mgBpMd77291BIjo2fQIA63N9++Jq1XrAuza5Sqnu0hyX/vFmdRrTwYSaw0mKTKW8rpTS2uKDHtvW/G36TRN5G5VSzekTzsXj8fDNJt/R8D15Lm0KLd5kMy3QddjJpkEF0YbWZvnG3qt5tDkV5DWoyGtQsbhQyzsnNZIe6GJkqIt1lTL9kRBCwAAMEHI6bdjtjR3+53Y7fI5xOKz9Hd5hyc//gaoq/5ozszkWtVpHQ0Oxz4CaNo2N3iZEb21j92tDAgLC0GpNOJ3NOBxNXTqnbYqhpqYDNWoajZ7Zsx8mNnY0AFVVvslmT+/PbI5Erw+ioaEMm63eb398/Digd/prtmlLcvLL8qioK+P2166jtrGaey/+NyGm0E7PiwrxPpe2aX3AO6L6H/P/xYiUMa3X9H0ukcFRBAYEUV5b1t538ddGp3prbrcV+ibiVQ2VuD1u9BpDew1gd4SawzDqTdgczTTbu/be24xsvZc9JYf+clJUta/1nLEd7j970lyiQ2L5dtMSn0S+p8+lzdoK7yCbc1PsHe7vjnNTbagU3imKLH0wEh3A6VagUXpwuhXk9lKfUCGEOBr0e7JZULCc3NzFHf7X2Ohtpist3UBu7mLs3fwDOli1TfmjUv16hOqBP3hlZTlYrVXodGYmT77+N8d5pylKTZ3BSSfdiVbrvwKKQuF9jUqlhsDAA/MVarUmUlNnMH78FT7HK5VqVCrvtCyJiRMBBbGxoznvvFdoaWlqn5DdYqlApdKg1XZco9XV+wsPb5uz0792y2AIxmAIoaWlkebmWnQ6s9/990Sw0TvFVlvzdENTPXctuAWzIYhrT/efeBy8NXRatfe5jMs4HoVCwYjkMfznmv9itVnbr1VZX45GrcHYWtOXFtPavN5BU3GQMZhgUwgWWyN1llpMhkA0au/92exNbGxtQr5r3oOkts7v+et4shJHcOKoUzuMt+29a1Qan3kqjXoTU7JP4OITr+z0+SRGJANgMphRtl5HoVAQF5bIKWPPwGQIbD92Q+4amlqsZMZlMXfaJe3b1So1c6f9nmvn/Jl6ax2vLn3Op4yePpc2n+3TYncpGBvuYGRoz7vdaFUe5qd5vwS9v0ff4+scyk3DmokJcPPcNj11MkBICCHaSTtPP2iboD4wMI7f/e45HI4moqNH8P77l2GxVOB2O/n++38zZ86/GDv2EoYN+x21tQUoFEqMxghMpkiczhZ27fqyPcH4taamahoaSggMjGX+/Leprt6LXm8iMDABp7OZrVt9lzp0u51UVeURGTmU0057CJfLgUqlISdnIT/88ARXXukdiHTeeS8REBDGihVPdjhJe1fvr60JvaMJ4g0Gb1Ko05mZP/8dgoISWbToFoqK/Ee0d5VSqcKoN9Nsb/Jpmi6uLmTRmg85b8p8Fnz9ol/zscvtZE9pLplxWdxz0SPYnQ60ag2L1nzMc4se48O7lgLw1B9fIcQcxvOLHmfphkWkx3rvr6Om7GCjtxbVpDfzys3vEReeyF0LbuaX1kE5Ly5+kmeTXic2LIEXbnyLgvK9NLVYMBsCiQtPRKVU8f3mr/lu81K/a9c2VlNWW0J0SCyv3PIe+8rzMRnMxIYmYHM08/nqDzt9RvWtNY0jU8ay4LaFtNhtRIfEoNcGUFFXzq6i7ViaG7zlWGp45atn+NNZf+OPs//EWcefT3ltKUMSstFrDOzYn8OD7/yNmkbfwUGH81wAKpqVfJCv4/cZNv40opk/rjB3eV30X5uf1kKEwc22WhXLi/tmSqKT4hxcnGFjWbGGd/L6LqEVQogjkUqrDb5voINoExiY0Nrcup+WloaBDqfXNDfXodcHERKSjFqto76+hLVrX6GqKo+2pSDr6vZRWLgGkykMkykSkykKlUpNRcUOtmz5kGXL/kle3jJcro6aFD2Ulm4lMjILkykCjcZAZWUemze/x7JlD1JQ8JPfGeXl24iKGoFWa6Cychc//PAEv/zyLuBBqVQTHp5OdXUeq1Y9S15ex3N7dvX+Ro26kJCQJDZtetdvDlCbrYG4uDFotQZqagr4/vt/UVzctQnYO6NAwfwTr0ChUPLO9//1ve+6Us6ZfCG5pTvJ72Cw0K6iHIYmjCBAZyC3ZCfPfv4YH696G4/Hg1qpJjUmg/yyXF7+8mlW5CwD4Lwp80mISOajlW/7zXXZ2FTPyJSxGHQBFFYU8PSnj7A5f0P7/vqmOn7Y8g2BxiDCzJFEBkdhDgikuHo/32xawhMLH+CrDYs6vE8PHrYXbiEzLpvwwAj0Wj17SvNYuOodHvvoftbsWtXpMyqs2EtSVCoRQdEYtHrqrPWs3PYd//3mRV5a/CR1Vt9+ubuLd7ClYCNh5gjCAyOJCY2hqGo/H696l6c/fZjG5ka/Mg7nubTZXK1hVrydjCAXagWsq+xesjgy1Ml946043Apu/dnU4yUvD+XRiVaCdR7uXmeito/KEEKII5XCZErqQV2BEIPb27cvIjI4mvMfmkW99cA0W0qFksUPrOKVr57p1mTvYuBkh7h4aVoDepV3DfLP9+m6dF6y2cUr0xsJ0np45JcAPtnbtfO6S630sOLMetRKD9evNLNeBgYJIYQP+QoujkpltSXAgeUY2wQZg1Gr1Owp7dqofTHwttequHe9EbcH7hzTxBlJ/oPQfivF7OL5KRaCtB7+l6vvs0QTvAOD2kaeP3SclUlRjj4rSwghjkSDqhldiN6iUCiZnD2D5KhUVuQsw2ZvRqlUccMZt2HUG3n96xdwdbBijxicChpVlDUpmRHjYEasA6tTQU5NxzWIw0KcPDfVQpjew8K9Op7cEtDn8a2vVDMyzEWS2cXsBDsTo5xYnUpKmpS4PDJYSAhxbJNmdHFU0qg1vHTT2yRGpNDYXM+Owm3EhycQGhjOHa/d2KNJ0MXAm5No556xVlQKWLhXx783B/gMGjotwc7dY5rQqTx8sEfHE1sC6K9fcEoFzE6wc2mmjZTWCeSbnAp+LNPwbp6e7bUyHZIQ4tgkNZviqOR2u1m+eSkRQZFEhcQSGBDE9v1buf9/tx902UUxuOXWq8ip0TAj1sHGKrXfgKHUQBcnxDh4fruBl3YY+jU2T2t8H+Xr2FilBhQkB7rICnaxuFBLebP0WhJCHJukZlMIccQJ1no6ncsyXO+myjY4EjutysPYcCery/tmyiUhhDgSSLIphBBCCCH6zOD4+i+EEEIIIY5KkmwKIYQQQog+I8mmEEIIIYToM5JsCiGEEEKIPiPJphBCCCGE6DOSbAohhBBCiD4jyaYQ4rAY9Fpuvuo0jhudNtChCNEvTAF6brvudLIz4wY6FCGOCB0vLizEEe7K6+5nyowz/LY/+/itbFr/wwBE1LE5Vz7B8Cnn+W1f+OzV5G36ZgAi6p6QYCO3XH0acdGhREUEsmX7PlrszsO+7l8eu4SREzN47dHPWLF4Qy9EenBX33kuU2eP9tv+9F3vsHHlzl4/70jR3+/hSHHS1GEMTY8lIyWaBR+s4Of1uQMdkhCDmiSb4qhkMgdRX1eNxVKHtbGBpNQh6HQBAx2WH4MpGGt9Jc2WWpqtdUQnDUOjMw50WF0SFmLir9efTnhoIDvzSnjxjW8PmWj+7T9XkDU2BYCrZz2IvcXRH6EekinYQH2NBUt9E5aGZpIzo9EZdH12nhicuvr5/PzrDThdLs6ZPZ4/XDgDlVLJyrW7+jNUIY4o/Z5sRkRkExk58qDHuN0Oduz4uJ8iEkejp/99i8/PDz72PnEJ6QMUTec+fvpKn5//8OBSwuOGDFA0XRdkNvDX688gPNTMhi17eeXt5Tid7kOe53Z7j3E53e3/Pxg8dcfbPj8/tOAG4lOj+uy8gTL99HFcecfZbFmTyxN/fWugwxl0uvP5XLLsF+oamrj8gmlcdsE0XG631HAK0Yl+TzZdLjt2e2OH+xQKFRpNAAqFqp+jEkJ0lU6r5qYrTyU81Mz6zfm8/L/luN1dW/W27biSfZU4Ha6+DFOIbuvu5/Ondbtxu91cedEJXDZ3OjW1FnbtKe3rMIU44vR7sllTk0dNTZ7fdo3GQELCVFQqDUVFP/V3WGKAKBQK1BoNLqcLt1uSjyPBRedMJjkhgl17Snn1ne+6nGgCuF3e2qLCPPmDLAafnnw+V2/II8hsZO6ZE7jmkpnc+/hHNFpsfRWiEEekQdFn02AIJSFhKuAhP/9bWlrqBzqkI1ZwSDhjjzuRlLThxCdmYA4MxuPx8NcbT+/w+NCwKGafdRmp6cOJiUuhtLiAPbs38+lHL9NkbfA7/u//fIP4hDTuuPlsAoyBzDn7crKGHYfJHExlRRE/Lv+Ub758D4+n4yaogAAzk6efzrCRx5OQlElQUBgqtfdjuODlf7Ji+Se9EufhUqnUzD7rMiZOOZXwiDiqKovJz93Kks/foLy0sNfL66nA0BgmzL6WmNTRhMWkU126h5I9G1j16X+wNXX+70ihVDFy2jxSR8wgPC4Tc2gczZYa6ioLKdq1hpWf/QdPB8n/iKxEpk4YQoPFxv+9taxLTee/1va5KMwr6/I50QlhnHrBZFKGxhGbFE5VaR0/fLGBrz9ejaeTRFelVjLnomlMOnkE4TEhVJXWsmf7fha/s5Ky/dXdirkvhUUGMmf+NFKz4ohNiqS0sJLcnP18+vp3WBube62cJz/8C2FRQe0/j5yYwRsrHvA5prHeyo1nPtrpNfr6PcQmRfDIWzf5bKuuaODW8x8HICTczPGzRjFiQjqGAC33X/PyYZXXkZ58PgGWfr+Z9JQoxgxP4tLzp/H8gsE/uE+I/jTgyWZgYCJxcROw2WopLFyJy9Uy0CEdkULDoph3yZ8ZN+EklErfbghutwuFQoHH4/sHYdyEk7jimnsIMAZSWV5EVUUxyalDSUnLZuxxJ/Hck3+hIH+HzzlGYyBanYHzLrqR46fMRoGC6upS8LiJi0/jwkv/gk4XwKJPXvWLMXv4BK69+WFM5hA8Hg+NDbVUVZaAAnS6AJTKjmfi6kmchyM8IoZrb/4XqenDaaivpaykgOjYZOLi0xhz3Ak8/eif2ZO7pdfK66nMcadx2hWPog8Ioq5yH/VV+4lOHk5Mykgyxp7Gp8/9kbKCrX7nRSUN57TLHyUqaRgup4OG6iI8bgfmkGjMIdEkZE5g9ZIXcLT4JjsqpZJ5Zx8PwMdfrKGhB8mQ2+X9DHb1j/kJZ47jslu9swrUVNQBEJcSyfybZqMzaPn8Tf+ZBcKjg7nh/gtIzYqnodZKaWElMYkRxKVEMnZaFk/d8TZ52/Z3O/beNn56Nn+442yMZgMVJTVUltWSnBlLytA4xk3P5tm732HvrpJeKWv3ln0olAoiY0NIzYqnvsbCjk17fY6xNXX+u7c/3oO9xcHSD34mwKzHaNIzdloWRpMejVbNeVeexKzzJ6HWeH+31ddYDru8jnT38/lr//voR4YPjWfMiGQyU6PZnX/wa0RHj+D8818BoKGhhDffPLfbZQpxpBjQZDMiYjiRkcOoqyugpGRdp7Vh4uBS04dz290voDcY2btnG+vXLKcgfxuV5SU0NTXicNj8Es2EpAyuvfkR6mureeLhG9i7ZzsAQcFh3PDnf5M+ZDRXXncf994x36d52273/kFKSs7i+SdvJ2fzT7hcTrRaHX+47j4mTDqFOb+7jCWfL8DlOjAyWa3WcP2t/yYgwMwnH7zEsqXvd6lGsqdx9pRKpebmO54mLDyG55+6nQ1rlgGg0Wi45Mo7mXrC2fzhunu5+1b/6Yr6U2RCFmdd+xyW+ko+eOISyvZ6k19jUAS/u+FF4tLHM+fKx3n93jk+NZTGoAjm/vkN1FodXy24k5xVH+JufU9B4Qlc8+8fvQd6FH5ljhqWSHREENW1FlZv9O8K0xVtTe7788q7dLxGq+aZv79Lzto8XC43Wp2Gq+48h4knDeeMi6ey+O0fcbkO/N5QqZTc+ujvCYsK5tl73mP9D9tbr6Pi0lvPZPqcsVx15zn87ffP9Cj+3pKYHs3198+lrtrKY395k707iwEICjVx04MXkjEikavuPId7/vBirwykeunBjwDvAKHUrHj25Zby4v0fdvn8/ngPVWV1vPPcl+3n//e7+9DpNdz5zB9IGRpL3rb95OUUUVxQQWVJjU98vfXeu/v5/LX6xmZWrd3NCZOzOPWEkYdMNhWKX3+57npXFCGORAMyqbtSqSI+fjKRkcOpqNhGcfEaSTR7yGgK4pY7/oNGo+OV5+/hwbsv5cvPF7AjZx1VlcU0WRtw2O0+5ygUCi676m5UKjWvvviP9gQOoL6umif/9SeamhqJS0hn0rQ5Pue2JZAL33+BzRtXtP9st7fwzoLHAG8tZWh4tM95qRnDCQgw09hQxxefvNqlRPNw4uypWbMvJC4+jU/ef7E90QRwOBy8+eoj1FSVExObTPoQ/7kV+41CwSmXPYxSpWbJq7e2J5oA1vpKPnzyclqaGgiPG8KwSef4nHr6VU8SEBjGV6//jS0r3m1PNAGaGip9yvitiWO9k7Z/u2KrT2LRHc1NLZQWVtFYb+3S8d98vIbNP+9uL8/e4uDtZ5YAoDPoCIsK9jn+lLmTiEuJ5OPXlrUnHAAOu4s3nlhEdUUDMYnhZIxI7FH8vUGhUHD5bWehUql45aGP2xNN8NbYPf7Xt2iy2IhPjWLyqaMGLM5f6+/34HK58Xg8KJQKflq6mT+d/RgP3fAa77+4lJVfbmLX5n29Wl6b7n4+f+ur7zYDMCIrAZ324HU5il/9G/ttZYAQR5sBSTYDA5MICvL+ow8PzyY19RQiI0ei1ZoGIpwj2qzZF2Iyh7D8mw/4+cclXTonPjGd1IwRFO/PY+e29X77bc1WViz/DIAhWWN89rUlJ2q1/y/ShvoaGuprAQgL853+paKsCJfLiTkwmPmX/xWdTt+ncfbUzNMuwuPxsGL5p377nE4HWzev8pY3tHfK64nI+KHEpo6hqngXhTt/9ttvt1nYvOJ9ABKGTGjfHhE/lORh06gt38vOdV8ctIwOck3iokMByCvofq1Pm1cf+eSwaxXrayw01HqTgdCoQJ99s847Ho/Hww9fbPQ7z+lwsXXNbgCGjEo6rBgOR0JaFGnZ8RTll/s1ZYO3OfuHL7wTqA9knIfS1+/B1dofeO33OYdM/nrrvR/u57OqppGGxmaUSiVREUEHPba0dCsvv3wyL798Mu+9d2mPyxTiSDAgzegNDfuw2WrQagMJCAjBaIwhIiKb8PAs6usLKC3diNs9OCZ7HuxGjJ4C0GEy1pmEpEwASksKOj2mqND7yzk6Ntlnu9PlfS+/7RfapsnaQGBQiN/+utpKXn7uHi6/+m5mnjqPiZNP4Zsv3z9oc/rhxNkThgATYeHR1NVWEhufglarQ6PRotHqUGt0aDVagoLDAFBrNIddXk9FJGQBUF26p9NjKou8fVhDow8sIRmbPrZ1X1dWtvHNNlVKJRFh3oSivLL3B2R1l7WxmcAQo08/X4NRR1hUELVVjcQlh6PVaVBrVWi1GtQaNVqdmqBQ7xdatWbgehAlpHlr/UsLqzo9Zv8eb0IfmxjeLzH1VF++B5fLhVqjQqU6eJ3IYHvvpRV1BJoNxEQGU1jc+aAkj8eF3e7f91SIo9GA/MZ1u13YbHXYbHU0NBQCm9Hrg4mNnUhwcAparYmCgu+kab0LQkIjAaip7nptU0ycd4UMS2PnSUPb9YxG3xqLtleiVHZQ9QV4DtL3aN3PX7Nj61pO/90VnHTqBZxzwbWcesbFfP7xKyxf+gFOp+8XjMOJsyfi4r2JWXBIBPc89KbffpfTicvloMnagNMxcF+GwmK8k9M3W+o6Paaxxjt1i954oHZFb/D+v6cHfQC1WjUqlRKPx4PDcfjLUfaFuBRvbXpIuJl7/+8av/0upxun04m1sRnnAN5DbFIEAJaGzgdY1VR4ZxIIMBv6Jabe1Fvvoa1mU3mIZHOwvXdH6/ych4pbiGPJgI9Gb2Oz1VFQ8C0ZGWcQEBCBXh9Kc3Pn3/yFl9Pp7Y8ZERnPvr1dW4vZavEmb6FhkZ0eYzaHAFBSlO+zve0LgFLVs4+OxVLH+/97iqWL32LWnPmcePL5XHjJrZx0ylwe/+cNVFUe6L92OHH2RFu/Kaulnr/fNheHw4HT6cDldPgMdhpoNqs3EQkMje70GIPZ2+RdXXJgRZO6Sm8/t7DYjG6X2Wyz02ixYTbpiQwPoris5tAn9be299fQzJ2XPovT4cLhcHm/JHRziqa+ZGkdxR8a0fkXJHOwd8nSkoLKTo8ZtHrpPbQNjOpsloreLq+3REd632tZRedfBoU41gyqr15utwuHw/uLWK2W9YW7oqzEO+djUurQbpzjTTpi49N+MyLygLZm6aL9vqOO3a3JpqKjTn3dUFdbxYdvP8PtN53F7h2biIxK4Mrr7uu1OHuivKwQj8eD0RREYFAoTdYG7C3NgyrRBKgp8ybWYbFDOn0uYa3N55VFB9ZrLt+3DY/HQ3hcJmkjT/Q751CDFMoqW6e8iQnpUdx9rbyoxvv+Ag0EhZqwNjZjt9kHVaIJUNbafB6XEomikxaCmNbm8/35Pe8f25G2d6zTa3v1ur/WW++hbRqiQ9UQDqb3rtNqCA32NtmXVch80UK0GUTJpoLQ0HQMhlDcbgdWa8VAB3RE2LjuOwBOmjWX6NiuDSbYuycHh91OeEQM4yac5Ldfo9EwY+Y5OBx2Vq/8yndn6x+rzpKc7rJY6ljy+esAJKf5JsyHFWdPYmmsY0fOWgDmX3Y7hoCeDlhToFCoWv/r/X9ipXt/weloISg8jsxxp/ntV2u0jJpxEU6Hne2rP2vfXle5j5xV3uluzrjmGUadMB9TcBQ6g5n4jOM49fJ/HbTcHbu9cz7OmJTVi3fTexrrrWzf4E3EL/7THAzGwfmFNX9HEQ67k/DoYMZPz/bbr9GqOOHMcTjsLn7+pnfnc61o7UMYnxKJRts3ywL31ntoq9k8VJ/NwfTeZ0wailKpJDe/lGab/aDHms0xjBnzeyZNupbMzFP6KUIhBsaATX2k0QRgMIQTHJxCTMw4MjLOJCZmPB6Pk/37V8kAoS768bvP2L8vF0OAib8/uIDZZ11OWHjnzavgnTboqy+8fRIvvfpOsocfGLFsCDBx7c2PEhoWxZLPXqe8zHe1nLaaEQWHV7PZJillKGedezUAOZtX91qcPfX2gsewNNYyJHssDz+5kHPnXU9m1phuJZ7Dhp3NDTes4oYbVjFnzsETuJ6w1ley7ivv6imnXPoQSdlT2vfpDGbOuvZ5zKExrFnyArXlvqOdv3vvIfK3/oDOYObUSx/m+ifXcPPzW5l/54cEhsYC4LA3Ybf5D1z4ce1OHE4XQ9JiSE8++GdsoPzv6SU01lsZOjqZR9++mfOvnsmQUUmDKvGsr7Hw5XveWQ0uv+1Msseltu8zGHVcf988QiODWPz2CsqLene1o8K8Mhx2F8ZAA7c8cjFp2fGHbqbugd54D21LR3YlvsHw3jVqFafMGAnAspXbD3E0OBzNTJp0LePGXU529ll9HZ4QA6rf+2zGxU0gODjVb7vH46aubi8VFdtwOGSEXle5XE4ef+harrv5UYYOG8/c+Tcxd/5NNNTXUFtTga25CYVCwSsv/IPqygOrkSz+bAFJKVmMHDOF2/7+IjXV5TQ21BKXkIZarWH51x+y+NPX/cprb2jtZjP6mPEncM4F19LS0ozH7UarCyA0LAJTa5/LXds3suDlf/qd19M4L73qLp8/Um0DqWaeOo9RY6e1b1/709dsb63NBCgt3stD9/yBi6+4neGjJnHGOVdyxjlXAmCzNdHYUIutuYkH777Eb0BTG53O2P7/dnvTQZ/LKZc+5DNy3xTiTeLGzryM9FEz27fvWLuIfdtXtf+8evGLRCWNIHXkCcy77W0aa0qxNlYTETcElVrDpuVvsXrx837l2Zrq+eipy8gYeypx6eMxh0RTU7aHwp0/Y62v5KqHl1NX0XHiXltnZfmP2zj1xJHMPXMCjz6/qFvroveHkn2VPHjdq1xyy+mMmJDOmZfM4MxLZgBga7LTWGfF1mznvj++hNNxYLL7y/5ypk8NWkhrf8qTz53I6MlD2revXra1vRbtcM5b9L8fScqMZdTxGdzx1OXUVNTTUGclPiUKtUbFsk/Wsuh/K3rrsbRrtrbw4v0fcOOD8xh+XDrDj0unpbmFmspGmq02nr/3A6rKDr+vYU/eQ2xSBKfNm9x+DaPZOz3auVedhKX+wL+jDT/uYPPPuw+7vN42a8YIgoMC2FtYyYYth+5DbrPVUVS0kcTECQQFJfRJTEIMFv2ebDqdDlyuFpzOFux2C3Z7PVZrFVZrOW734OrWI9oNAAANO0lEQVQbd6RobKjj3w9ew/CRxzNu4kwyhowmLCKapJQDzdKWBt8/IPaWZp7+983MmHku4yacRFLqUIwmM5vWfceqFV+wZdOq3xbj1d6M3r1kMzAolPjEjNZLeGhutlBZXsz6Nd+xfs237MhZ22GfwZ7GOWX6mWi0/v3SskdM9Pl5x7Z1fseUlxXy5CM3EhOXwqixU0lOzSYyKoGQ0EjMgSHo9cZOE00AjSag/f8djoMnm8OnnI9a41/7kpw91efnfTt+8vnZYW/io6evYPSM+WSOO42opOEYjEHkblrKtlUfs2fLdwctN3fjUnI3LvXZljHG25T329rQX/vs642MGZFEWnIUvzttPAuX+D+/gVZeVM3jt71JbFIEoydnkjwkjsi4UEIjAjEHG9EH6PwSjmmzx6DpYBLuYePTfH7evtE3iejpeXabnafu+B8nnjWecdOzSB4Si8lsYOOPO1i59Be/ZKo3bfhxB/f98f+YPmcsacMSCI8KJjI2FKVKQWN9763H3t33EBxuZsYZ4/yuM26ab7eN3JyOl5zsyXvvLenJ0Zx92jgcDhcL3l9BV+dor6/fD0ygqekIHAgmRDcoTKakwVU1IXqNVqvD7XbjcrkGxTRSKpUalUqFy+UadINujnVavZHL719CcEQSHz11Gflb/de6bpOcEMHtN5yBVqNmwfsrWLl2V6fHCnG0i44M5m83nYkpQM9bH/3IDz93bVYQgMmTr2fs2EvZvv0zli9/pA+jFGJgDZqpj0Tva1vHfLBwuZySZA4WCgWmoEjCYtOJzziOEdPmERgawy/fv33QRBOgYH8lr779HddddjKXzp2Kx+Nm1brcg54jxNEoNiqEW6+ZgylAz9Lvt3Qr0QQIDfXOmZuT80lfhCfEoCHJphDHmEvv/YLI+KE+c6XarHUsf/cB1n/r3/+1Ixu3FrDg/RVcPm86l8+bQYBBxzcrcvoqZCEGnZTECG6+6jRMRj0//LyTj75Y063zdbpA4uJGk5+/goqK7iWpQhxpJNkU4hjjaGnCUl+Jpa6M8oIc9u9eQ96mb3A6ulcTvmrdbtweD5fPm868sycRHRnC2wtXDrpBQ0L0tuPHpXPZ3OloNCqWrdzGe5/+1OV+mm2mTLmRxsZyvv32gb4JUohBRJJNIY4x7/7rgl671s/rc6lvaOb6y0/GYm2WRFMcE9xuDyjgwy/WsPS7ns2Fun79G7hcdlkfXRwTZICQEOKwmYx6LFbbQIchRL8JCgygvuHgs00IIbwk2RRCCCGEEH1mEC1XKYQQQgghjjaSbAohhBBCiD4jyaYQQgghhOgzkmwKIYQQQog+I8mmEEIIIYToM5JsCiGEEEKIPiOTuvey20c1oVDA10UafqnSIPNKCSGEEOJYJvNs9iKj2sOXc+rQq7w/lzQp+axAx8K9OurtioENTgghhBBiAEiy2ctMag/TYx3MirczKdKBUgE2F7y128Dru3U43ZJ0CiGEEOLY0e/JZmhoBlFRYwAXTqcDh8NKS0sdFks5FksJHo+7P8PpU7EBbuZn2Dg/pQWlAtZVqrlplRlZPloIIYQQx4p+TzYjI0cQETGsw31OZzOlpZtoaCjsz5D63HERTp6Z0ohKAdf+aGJjlWagQxJCCCGE6Bf9PkCoomIrlZU5KBRqNBoDGo0JozGcoKBkNJoAEhImU1joorGxuL9D6zPrKtXk1KgZFeYkWDvQ0QghhBBC9J8BmfrI4/HgdjtoaWnAYimhvHwLeXlLsFhKAG9T+9HEpPaQGeyk0aFgbaVMACCEEEKIY8egmWfT7XZSWbkDgICAsAGOpvcogPuPs6JXwf0bArA4ZICQEEIIIY4dgybZBHA4mgFv4nm0uDjDxrRoB//dqWdFqbShCyGEEOLYMqiSTaMxHACrtWKAI+k9c1NbAPikQDfAkQghhBBC9L9Bk2wqlWoiIobh8biprNw+0OH0mroWb7P51VnNBKhlziMhhBBCHFsGzaTu8fGTCApKoqJiy1GVbCabXTx0nJWMIBctLgW/VKvYb1HxwnaD9N8UQgghxFFvUNRsRkQMJygoicbGYqqqdg50OL2qoFHF1SvMfFGoQ6fyMDHSyfmpLWiUgyLHF0IIIYToUwM+D0909BjCwobQ2FjM/v2rjqoVhACGhTh5dKKVRoeC/2w1sLlaTbFVRZ2slS6EEEKIY8CAJZsKhYLY2OMIDk6lvr6Q4uKf8XiOvtq+fx5nxax1c87XwThkXXQhhBBCHGMGpBldrdaRnHwSwcEpVFTkUFT001GZaAK4AYMKJkQePdM5CSGEEEJ0Vb8nmwZDCKmpp6LXB1NYuIrKypz+DqFfPZtjwAM8PMFCdohroMMRQgghhOhX/TwaXUFW1nkolWpcLjtOp63TI+vq9lBVtav/QutDl2XauGFYMxXNSi78NhCLU5rThRBCCHFs6Oc+mx7cbidKpRqVSotK1fmKOiqVvh/j6ltv7NZzQqyDYSFOpsY4+Gq/rCQkhBBCiGNDvw8Q2rXr0/4uclBoG31ud0mtphBCCCGOHQM+9dHRzqCCm0c0MSXKwT6Lip8q5JELIYQQ4tghmU8fyQhyclaSnTOS7BjVHjZXq7lzrRGb9NcUQgghxDFEks1eFKT18IchNmbE2okN8E5OX9qk5KktBhbt03F0Tu4khBBCCNE5STZ7UZMTZie2EKjxsLZCzcICPT+UaHBJlimEEEKIY1Q/T3109BsT7qDQoqLaNiiWnRdCCCGEGFCSbAohhBBCiD4j1W9CCCGEEKLPSLIphBBCCCH6jCSbQgghhBCiz0iyKYQQQggh+owkm0IIIYQQos9IsimEEEIIIfrMUT+p++Vjp6JQKPi5MI9dlaWyio8QQgghRD86qpNNg1rD9JRMdCoNJ6dlU2lt5Lv8nSzbsx2L3TbQ4QkhhBBCHPWO+kndDRot4+KSmZSQxqjoBBQKBS0uB1/s3MJnOzbicrsHOkQhhBBCiKPWgCebBkMoqamnYLc3kpu7uE/LijCamZM5klnpw1AoFOSUF/PoiiW4PZJwCiGEEEL0hWNqgFCltZE3Nq3iXysW4/a4GR4Vx5DwqIEOSwghhBDiqNXvfTZ1uiBCQlLRaIxoNAFotcb+DoGc8mLyqivIDI/GrDP0e/lCCCGEEMeKAUk2w8KG4PG4cbsdeDz934pv0GhJCg7Dam8hp7yo38sXQgghhDhW9Huy2dhYxPbt77cnmW19NvuLArhh4klo1WqeX7mUJoe938oWQgghhDjW9Huy6RngwThzhoxiTGwSn2zfwIaSfQMaixBCCCHE0e6YGiAEcErGMACW5+8c4EiEEEIIIY5+x1yy2WjzTuZ+3rCx6NWaAY5GCCGEEOLoptJqg+8byAA0GgMhIWm4XHZqanL7vLydlaUMiYhhdEwiszNHkhURQ3pYFLurynC4XX1evhBCCCHEseSYq9ksaazjgeWfsaJgF1qViv9v725CoojjMI4/bbuuy24aq+bbplkm24u6lFTS29KLh6DwIFQIHrxlL9ShqEu3jl0iijp1kII6lQQeCupiL1AZBVlkRa1ptohmvqzuS4dIiIKknNmc+X5gDjMwM8/xYYb//1dZEND28hVyOuamOxoAAIDlWHo2+u8s8S/Q4fV1GpmIqbWzQ6+in9Q/8kXDMWalAwAAzDTblc0DtVvldWXoyM3LijMXHQAAwFC2+42eTKXkdrq0Mj+Q7igAAACWZ7uyeeXpA6WU0qHabVrsz0t3HAAAAEub4/OVmjovMj+/Sl5vwdS5w+GU252lZDKpWGxw6nos9kU9PfcNybAzGNKeqrUaGBvRsfarGmOKEAAAgCFM/7Lpcvnk8finDrc763sQh+On605nhmEZ2ro61T3QL7/Hq1VFpYa9BwAAwO5MXyAUiXQoEukw+7W/+LH6fDLB3poAAABGsd1qdLfTpcbqdQoVlqh3eFBP+96nOxIAAIBl2aZslsz3K1wW1KayoDxOl15Ge3Xm3i3F4vF0RwMAALAsS5dNX0am6pevUk3xIuV550mSoqPDan3Sobtvu2TqyigAAAAbsnTZHI9PaENpuXwZmXr+KaLb3S/0qOedEik2cwcAADCD6VsfmS2YV6i+4SENjo+mOwoAAIDtWPbLZuuNy391X3PD/hlOAgAAYF+2myAEAAAA81A2AQAAYBjKJgAAAAxD2QQAAIBhKJsAAAAwDGUTAAAAhqFsAgAAwDCUTQAAABiGsgkAAADD/DJBqGBRpZpOtmmw/50uHg//8QElwVrV1DVrwcJlcnuy9DnSpTfP7uhh+0UlE3EjMgMAAGCW+KdxlXVNpxQKNyqRiGvg42tNxsZUVL5agYo1qqjZoWunmzT2dWCmsgIAAGCWceYULVX15r3KzinWPH+RsnMD07oxFG5UKNyoj92P1XbhoIaiPZKk7NyF2rXvrArLqrW54ajaL50wMj8AAAD+Y47c4grVbG/W4qotys4NTPvX9/r6I0rEJ3X9XMtU0ZSkoegH3TjfovjkhCo37lZWzvTKKwAAAKznGwv78BWTdZHoAAAAAElFTkSuQmCC;" vertex="1" parent="1">
          <mxGeometry x="320" y="170" width="667" height="589" as="geometry" />
        </mxCell>
        <mxCell id="d-vFsKxNeQWg8kUWLc13-2" value="Why function is First Class Citizen" style="text;html=1;strokeColor=none;fillColor=none;align=center;verticalAlign=middle;whiteSpace=wrap;rounded=0;fontFamily=Comfortaa;fontSource=https%3A%2F%2Ffonts.googleapis.com%2Fcss%3Ffamily%3DComfortaa;fontSize=24;fontStyle=0" vertex="1" parent="1">
          <mxGeometry x="430" y="120" width="470" height="30" as="geometry" />
        </mxCell>
        <mxCell id="d-vFsKxNeQWg8kUWLc13-3" value="First class citizen mean an entity support all the operations" style="rounded=0;whiteSpace=wrap;html=1;fontFamily=Comfortaa;fontSource=https%3A%2F%2Ffonts.googleapis.com%2Fcss%3Ffamily%3DComfortaa;fontSize=24;" vertex="1" parent="1">
          <mxGeometry x="1100" y="170" width="320" height="200" as="geometry" />
        </mxCell>
      </root>
    </mxGraphModel>
  </diagram>
</mxfile>
